<?xml version="1.0" encoding="UTF-8" standalone="no"?>
<svg
   xmlns:dc="http://purl.org/dc/elements/1.1/"
   xmlns:cc="http://creativecommons.org/ns#"
   xmlns:rdf="http://www.w3.org/1999/02/22-rdf-syntax-ns#"
   xmlns:svg="http://www.w3.org/2000/svg"
   xmlns="http://www.w3.org/2000/svg"
   xmlns:sodipodi="http://sodipodi.sourceforge.net/DTD/sodipodi-0.dtd"
   xmlns:inkscape="http://www.inkscape.org/namespaces/inkscape"
   version="1.1"
   id="Layer_1"
   x="0px"
   y="0px"
   viewBox="0 0 122.88 118.29"
   style="enable-background:new 0 0 122.88 118.29"
   xml:space="preserve"
   sodipodi:docname="bar-chart.svg"
   inkscape:version="1.0.1 (3bc2e813f5, 2020-09-07)"><metadata
     id="metadata11"><rdf:RDF><cc:Work
         rdf:about=""><dc:format>image/svg+xml</dc:format><dc:type
           rdf:resource="http://purl.org/dc/dcmitype/StillImage" /></cc:Work></rdf:RDF></metadata><defs
     id="defs9" /><sodipodi:namedview
     pagecolor="#ffffff"
     bordercolor="#666666"
     borderopacity="1"
     objecttolerance="10"
     gridtolerance="10"
     guidetolerance="10"
     inkscape:pageopacity="0"
     inkscape:pageshadow="2"
     inkscape:window-width="1434"
     inkscape:window-height="875"
     id="namedview7"
     showgrid="false"
     inkscape:zoom="5.2159945"
     inkscape:cx="71.312923"
     inkscape:cy="59.145"
     inkscape:window-x="0"
     inkscape:window-y="19"
     inkscape:window-maximized="0"
     inkscape:current-layer="Layer_1" /><g
     id="g4"
     transform="matrix(-1,0,0,1,122.8818,0)"><path
     fill="#fff"
       d="m 12.53,19.37 v 86.39 h 108.46 v 12.53 H 6.27 C 2.81,118.29 0,115.48 0,112.02 V 19.37 h 12.53 z m 28.13,-1.6 -1.04,8.14 c -0.32,2.51 -2.61,4.28 -5.12,3.97 -2.51,-0.32 -4.28,-2.61 -3.97,-5.12 L 33.18,4.14 c 0.14,-1.45 0.97,-2.81 2.33,-3.57 1.24,-0.69 2.65,-0.74 3.88,-0.27 l 19.86,7.65 c 2.36,0.91 3.53,3.56 2.62,5.92 -0.91,2.36 -3.56,3.53 -5.92,2.62 l -6.78,-2.61 c 7.43,10.08 16.33,18.5 25.94,25.06 13.84,9.45 29.1,15 43.51,16.04 2.53,0.18 4.43,2.37 4.25,4.9 -0.18,2.53 -2.37,4.43 -4.9,4.25 C 101.98,63 85.12,56.9 69.94,46.53 59.02,39.08 48.95,29.4 40.66,17.77 Z M 115.5,85.66 V 96.9 H 101.29 V 85.66 H 115.5 Z M 90.1,73.83 V 96.9 H 75.9 V 73.83 H 90.1 Z M 64.71,65.69 V 96.9 H 50.51 V 65.69 h 14.2 z M 39.32,53.29 V 96.9 H 25.11 V 53.29 h 14.21 z"
       id="path2" /></g></svg>
