<svg xmlns="http://www.w3.org/2000/svg" fill="none" viewBox="0 0 989 1006"><path fill="#1983CA" fill-opacity=".3" d="M1220 309c0 264-239 478-533 478-295 0-534-214-534-478s239-479 534-479c294 0 533 215 533 479z"/><g filter="url(#filter0_d)" opacity=".5"><path stroke="url(#paint0_linear)" stroke-dasharray="200 100" stroke-linecap="round" stroke-width="20" d="M294 28C217 214 90 534 417 718s479 64 622 9c143-56 497-93 444-314-53-222-64-609-318-608-254 2-220 106-383 126-164 19-411-89-488 97z" clip-rule="evenodd" opacity=".5"/></g><g filter="url(#filter1_d)" opacity=".2"><path stroke="url(#paint1_linear)" stroke-dasharray="100 50" stroke-linecap="round" stroke-width="10" d="M371 65c-67 165-178 448 116 615 295 166 431 61 559 13 127-48 444-79 395-276s-62-542-290-543S954-33 808-17s-369-83-437 82z" clip-rule="evenodd" opacity=".2"/></g><g filter="url(#filter2_d)"><path stroke="url(#paint2_linear)" stroke-dasharray="200 100" stroke-linecap="round" stroke-width="30" d="M287-42C208 150 77 481 414 671c338 191 495 67 643 9 148-57 513-96 458-324-54-229-66-629-328-628-263 2-228 110-396 130-169 20-425-92-504 100z" clip-rule="evenodd"/></g><g filter="url(#filter3_d)" opacity=".5"><path stroke="url(#paint3_linear)" stroke-dasharray="200 100" stroke-linecap="round" stroke-width="20" d="M860-319c-77 186-204 506 123 690 327 185 479 65 622 9 143-55 497-93 444-314s-64-608-318-607-220 106-384 125c-163 20-410-89-487 97z" clip-rule="evenodd" opacity=".5"/></g><g filter="url(#filter4_d)" opacity=".2"><path stroke="url(#paint4_linear)" stroke-dasharray="100 50" stroke-linecap="round" stroke-width="10" d="M937-282c-67 165-179 449 116 615 295 167 431 62 558 13 128-48 445-78 396-276-49-197-63-541-290-542-228-1-197 92-343 108-147 16-370-82-437 82z" clip-rule="evenodd" opacity=".2"/></g><g filter="url(#filter5_d)"><path stroke="url(#paint5_linear)" stroke-dasharray="200 100" stroke-linecap="round" stroke-opacity=".3" stroke-width="30" d="M853-388c-80 192-211 522 127 713 338 190 495 66 643 9 147-57 513-96 458-325-54-228-66-628-328-627-263 1-228 109-396 130-169 20-425-93-504 100z" clip-rule="evenodd"/></g><path stroke="url(#paint6_linear)" stroke-dasharray="200 100" stroke-linecap="round" stroke-opacity=".3" stroke-width="30" d="M327-45c-76 186-203 507 123 691 327 184 480 64 623 9 143-56 496-93 443-315-52-221-64-608-318-607S978-161 815-141c-163 19-411-90-488 96z" clip-rule="evenodd"/><path stroke="url(#paint7_linear)" stroke-dasharray="200 100" stroke-linecap="round" stroke-opacity=".3" stroke-width="30" d="M405-7c-68 165-179 448 116 615 294 166 430 61 558 13 128-49 445-79 396-276-50-197-63-542-291-543S987-105 841-89 472-172 405-7z" clip-rule="evenodd"/><path stroke="url(#paint8_linear)" stroke-dasharray="200 100" stroke-linecap="round" stroke-opacity=".3" stroke-width="30" d="M320-114C241 78 110 409 448 599c337 190 495 67 642 9 148-57 513-96 459-324-55-229-66-629-329-628-262 1-227 110-396 130s-424-92-504 100z" clip-rule="evenodd"/><defs><linearGradient id="paint0_linear" x1="1405.8" x2="341.3" y1="627.3" y2="-52.4" gradientUnits="userSpaceOnUse"><stop stop-color="#844FFC"/><stop offset="1" stop-color="#2FB8FF"/></linearGradient><linearGradient id="paint1_linear" x1="1373.7" x2="413.1" y1="607.4" y2="-6" gradientUnits="userSpaceOnUse"><stop stop-color="#844FFC"/><stop offset="1" stop-color="#2FB8FF"/></linearGradient><linearGradient id="paint2_linear" x1="1435.7" x2="335.9" y1="577.7" y2="-124.6" gradientUnits="userSpaceOnUse"><stop stop-color="#844FFC"/><stop offset="1" stop-color="#2FB8FF"/></linearGradient><linearGradient id="paint3_linear" x1="1971.6" x2="907.1" y1="280.9" y2="-398.9" gradientUnits="userSpaceOnUse"><stop stop-color="#844FFC"/><stop offset="1" stop-color="#2FB8FF"/></linearGradient><linearGradient id="paint4_linear" x1="1939.5" x2="978.9" y1="260.9" y2="-352.5" gradientUnits="userSpaceOnUse"><stop stop-color="#844FFC"/><stop offset="1" stop-color="#2FB8FF"/></linearGradient><linearGradient id="paint5_linear" x1="2001.5" x2="901.6" y1="231.2" y2="-471.1" gradientUnits="userSpaceOnUse"><stop stop-color="#844FFC"/><stop offset="1" stop-color="#2FB8FF"/></linearGradient><linearGradient id="paint6_linear" x1="1469.1" x2="369.2" y1="505.5" y2="-196.8" gradientUnits="userSpaceOnUse"><stop stop-color="#844FFC"/><stop offset="1" stop-color="#2FB8FF"/></linearGradient><linearGradient id="paint7_linear" x1="1469.1" x2="369.2" y1="505.5" y2="-196.8" gradientUnits="userSpaceOnUse"><stop stop-color="#844FFC"/><stop offset="1" stop-color="#2FB8FF"/></linearGradient><linearGradient id="paint8_linear" x1="1469.1" x2="369.2" y1="505.5" y2="-196.8" gradientUnits="userSpaceOnUse"><stop stop-color="#844FFC"/><stop offset="1" stop-color="#2FB8FF"/></linearGradient><filter id="filter0_d" width="1661.4" height="1388.8" x="16" y="-384" color-interpolation-filters="sRGB" filterUnits="userSpaceOnUse"><feFlood flood-opacity="0" result="BackgroundImageFix"/><feColorMatrix in="SourceAlpha" values="0 0 0 0 0 0 0 0 0 0 0 0 0 0 0 0 0 0 127 0"/><feOffset/><feGaussianBlur stdDeviation="89.4"/><feColorMatrix values="0 0 0 0 0.129427 0 0 0 0 0.224219 0 0 0 0 0.4375 0 0 0 0.3 0"/><feBlend in2="BackgroundImageFix" result="effect1_dropShadow"/><feBlend in="SourceGraphic" in2="effect1_dropShadow" result="shape"/></filter><filter id="filter1_d" width="1520.3" height="1263.6" x="110" y="-310" color-interpolation-filters="sRGB" filterUnits="userSpaceOnUse"><feFlood flood-opacity="0" result="BackgroundImageFix"/><feColorMatrix in="SourceAlpha" values="0 0 0 0 0 0 0 0 0 0 0 0 0 0 0 0 0 0 127 0"/><feOffset/><feGaussianBlur stdDeviation="89.4"/><feColorMatrix values="0 0 0 0 0.129427 0 0 0 0 0.224219 0 0 0 0 0.4375 0 0 0 0.3 0"/><feBlend in2="BackgroundImageFix" result="effect1_dropShadow"/><feBlend in="SourceGraphic" in2="effect1_dropShadow" result="shape"/></filter><filter id="filter2_d" width="1714.1" height="1432.3" x="1" y="-465" color-interpolation-filters="sRGB" filterUnits="userSpaceOnUse"><feFlood flood-opacity="0" result="BackgroundImageFix"/><feColorMatrix in="SourceAlpha" values="0 0 0 0 0 0 0 0 0 0 0 0 0 0 0 0 0 0 127 0"/><feOffset/><feGaussianBlur stdDeviation="89.4"/><feColorMatrix values="0 0 0 0 0.129427 0 0 0 0 0.224219 0 0 0 0 0.4375 0 0 0 0.3 0"/><feBlend in2="BackgroundImageFix" result="effect1_dropShadow"/><feBlend in="SourceGraphic" in2="effect1_dropShadow" result="shape"/></filter><filter id="filter3_d" width="1661.4" height="1388.8" x="581" y="-730" color-interpolation-filters="sRGB" filterUnits="userSpaceOnUse"><feFlood flood-opacity="0" result="BackgroundImageFix"/><feColorMatrix in="SourceAlpha" values="0 0 0 0 0 0 0 0 0 0 0 0 0 0 0 0 0 0 127 0"/><feOffset/><feGaussianBlur stdDeviation="89.4"/><feColorMatrix values="0 0 0 0 0.129427 0 0 0 0 0.224219 0 0 0 0 0.4375 0 0 0 0.3 0"/><feBlend in2="BackgroundImageFix" result="effect1_dropShadow"/><feBlend in="SourceGraphic" in2="effect1_dropShadow" result="shape"/></filter><filter id="filter4_d" width="1520.3" height="1263.6" x="676" y="-656" color-interpolation-filters="sRGB" filterUnits="userSpaceOnUse"><feFlood flood-opacity="0" result="BackgroundImageFix"/><feColorMatrix in="SourceAlpha" values="0 0 0 0 0 0 0 0 0 0 0 0 0 0 0 0 0 0 127 0"/><feOffset/><feGaussianBlur stdDeviation="89.4"/><feColorMatrix values="0 0 0 0 0.129427 0 0 0 0 0.224219 0 0 0 0 0.4375 0 0 0 0.3 0"/><feBlend in2="BackgroundImageFix" result="effect1_dropShadow"/><feBlend in="SourceGraphic" in2="effect1_dropShadow" result="shape"/></filter><filter id="filter5_d" width="1714.1" height="1432.3" x="566" y="-812" color-interpolation-filters="sRGB" filterUnits="userSpaceOnUse"><feFlood flood-opacity="0" result="BackgroundImageFix"/><feColorMatrix in="SourceAlpha" values="0 0 0 0 0 0 0 0 0 0 0 0 0 0 0 0 0 0 127 0"/><feOffset/><feGaussianBlur stdDeviation="89.4"/><feColorMatrix values="0 0 0 0 0.129427 0 0 0 0 0.224219 0 0 0 0 0.4375 0 0 0 0.3 0"/><feBlend in2="BackgroundImageFix" result="effect1_dropShadow"/><feBlend in="SourceGraphic" in2="effect1_dropShadow" result="shape"/></filter></defs></svg>