<svg width="989" height="1006" viewBox="0 0 989 1006" fill="none" xmlns="http://www.w3.org/2000/svg">
<path d="M1220.4 308.66C1220.4 572.764 981.455 786.862 686.701 786.862C391.946 786.862 153 572.764 153 308.66C153 44.5563 391.946 -169.542 686.701 -169.542C981.455 -169.542 1220.4 44.5563 1220.4 308.66Z" fill="#1983CA" fill-opacity="0.3"/>
<g opacity="0.5" filter="url(#filter0_d)">
<path opacity="0.5" fill-rule="evenodd" clip-rule="evenodd" d="M294.047 27.6031C217.295 213.68 90.3622 533.724 417.135 717.881C743.911 902.038 896.238 782.286 1039.24 726.766C1182.24 671.245 1535.82 633.778 1482.98 412.539C1430.15 191.309 1418.92 -195.988 1164.88 -194.71C910.846 -193.431 944.753 -88.6188 781.57 -69.2102C618.393 -49.8022 370.799 -158.476 294.047 27.6031Z" stroke="url(#paint0_linear)" stroke-width="20" stroke-linecap="round" stroke-dasharray="200 100"/>
</g>
<g opacity="0.2" filter="url(#filter1_d)">
<path opacity="0.2" fill-rule="evenodd" clip-rule="evenodd" d="M371.224 64.9271C303.891 229.821 192.639 513.474 487.349 679.915C782.062 846.357 917.747 741.075 1045.59 692.841C1173.44 644.607 1490.4 614.137 1441.16 416.927C1391.93 219.716 1378.67 -124.877 1150.75 -125.79C922.815 -126.705 954.105 -33.2002 807.854 -17.2532C661.602 -1.30626 438.555 -99.9695 371.224 64.9271Z" stroke="url(#paint1_linear)" stroke-width="10" stroke-linecap="round" stroke-dasharray="100 50"/>
</g>
<g filter="url(#filter2_d)">
<path fill-rule="evenodd" clip-rule="evenodd" d="M287.007 -41.9759C207.706 150.285 76.557 480.954 414.185 671.232C751.812 861.509 909.202 737.783 1056.95 680.417C1204.7 623.051 1570.04 584.335 1515.45 355.749C1460.85 127.17 1449.25 -272.995 1186.77 -271.674C924.298 -270.354 959.334 -162.059 790.731 -142.005C622.129 -121.952 366.31 -234.237 287.007 -41.9759Z" stroke="url(#paint2_linear)" stroke-width="30" stroke-linecap="round" stroke-dasharray="200 100"/>
</g>
<g opacity="0.5" filter="url(#filter3_d)">
<path opacity="0.5" fill-rule="evenodd" clip-rule="evenodd" d="M859.821 -318.868C783.069 -132.79 656.136 187.253 982.909 371.41C1309.68 555.567 1462.01 435.815 1605.01 380.295C1748.01 324.774 2101.6 287.307 2048.76 66.0682C1995.92 -155.161 1984.7 -542.459 1730.66 -541.18C1476.62 -539.902 1510.53 -435.09 1347.34 -415.681C1184.17 -396.273 936.573 -504.947 859.821 -318.868Z" stroke="url(#paint3_linear)" stroke-width="20" stroke-linecap="round" stroke-dasharray="200 100"/>
</g>
<g opacity="0.2" filter="url(#filter4_d)">
<path opacity="0.2" fill-rule="evenodd" clip-rule="evenodd" d="M936.998 -281.543C869.665 -116.65 758.413 167.003 1053.12 333.445C1347.84 499.887 1483.52 394.604 1611.37 346.37C1739.22 298.137 2056.17 267.666 2006.94 70.4561C1957.7 -126.754 1944.44 -471.348 1716.52 -472.261C1488.59 -473.175 1519.88 -379.671 1373.63 -363.724C1227.38 -347.777 1004.33 -446.44 936.998 -281.543Z" stroke="url(#paint4_linear)" stroke-width="10" stroke-linecap="round" stroke-dasharray="100 50"/>
</g>
<g filter="url(#filter5_d)">
<path fill-rule="evenodd" clip-rule="evenodd" d="M852.781 -388.447C773.48 -196.186 642.331 134.483 979.959 324.761C1317.59 515.038 1474.98 391.312 1622.73 333.946C1770.48 276.58 2135.82 237.865 2081.22 9.27773C2026.62 -219.301 2015.02 -619.466 1752.55 -618.145C1490.07 -616.824 1525.11 -508.53 1356.5 -488.476C1187.9 -468.423 932.084 -580.707 852.781 -388.447Z" stroke="url(#paint5_linear)" stroke-opacity="0.3" stroke-width="30" stroke-linecap="round" stroke-dasharray="200 100"/>
</g>
<path fill-rule="evenodd" clip-rule="evenodd" d="M327.403 -44.5781C250.651 141.499 123.718 461.543 450.491 645.699C777.267 829.856 929.594 710.105 1072.6 654.584C1215.6 599.064 1569.18 561.596 1516.34 340.358C1463.5 119.128 1452.28 -268.169 1198.24 -266.891C944.202 -265.613 978.11 -160.8 814.926 -141.391C651.749 -121.983 404.155 -230.657 327.403 -44.5781Z" stroke="url(#paint6_linear)" stroke-opacity="0.3" stroke-width="30" stroke-linecap="round" stroke-dasharray="200 100"/>
<path fill-rule="evenodd" clip-rule="evenodd" d="M404.58 -7.25403C337.247 157.64 225.995 441.292 520.706 607.734C815.418 774.176 951.103 668.894 1078.95 620.66C1206.8 572.426 1523.75 541.956 1474.52 344.745C1425.28 147.535 1412.02 -197.059 1184.1 -197.971C956.172 -198.886 987.461 -105.381 841.21 -89.4343C694.959 -73.4873 471.912 -172.151 404.58 -7.25403Z" stroke="url(#paint7_linear)" stroke-opacity="0.3" stroke-width="30" stroke-linecap="round" stroke-dasharray="200 100"/>
<path fill-rule="evenodd" clip-rule="evenodd" d="M320.364 -114.157C241.062 78.1035 109.913 408.773 447.542 599.05C785.168 789.328 942.558 665.601 1090.31 608.236C1238.06 550.87 1603.4 512.154 1548.8 283.567C1494.21 54.9885 1482.6 -345.176 1220.13 -343.856C957.654 -342.535 992.691 -234.24 824.087 -214.187C655.485 -194.134 399.666 -306.418 320.364 -114.157Z" stroke="url(#paint8_linear)" stroke-opacity="0.3" stroke-width="30" stroke-linecap="round" stroke-dasharray="200 100"/>
<defs>
<filter id="filter0_d" x="15.6412" y="-383.456" width="1661.43" height="1388.75" filterUnits="userSpaceOnUse" color-interpolation-filters="sRGB">
<feFlood flood-opacity="0" result="BackgroundImageFix"/>
<feColorMatrix in="SourceAlpha" type="matrix" values="0 0 0 0 0 0 0 0 0 0 0 0 0 0 0 0 0 0 127 0"/>
<feOffset/>
<feGaussianBlur stdDeviation="89.3737"/>
<feColorMatrix type="matrix" values="0 0 0 0 0.129427 0 0 0 0 0.224219 0 0 0 0 0.4375 0 0 0 0.3 0"/>
<feBlend mode="normal" in2="BackgroundImageFix" result="effect1_dropShadow"/>
<feBlend mode="normal" in="SourceGraphic" in2="effect1_dropShadow" result="shape"/>
</filter>
<filter id="filter1_d" x="109.765" y="-309.542" width="1520.29" height="1263.56" filterUnits="userSpaceOnUse" color-interpolation-filters="sRGB">
<feFlood flood-opacity="0" result="BackgroundImageFix"/>
<feColorMatrix in="SourceAlpha" type="matrix" values="0 0 0 0 0 0 0 0 0 0 0 0 0 0 0 0 0 0 127 0"/>
<feOffset/>
<feGaussianBlur stdDeviation="89.3737"/>
<feColorMatrix type="matrix" values="0 0 0 0 0.129427 0 0 0 0 0.224219 0 0 0 0 0.4375 0 0 0 0.3 0"/>
<feBlend mode="normal" in2="BackgroundImageFix" result="effect1_dropShadow"/>
<feBlend mode="normal" in="SourceGraphic" in2="effect1_dropShadow" result="shape"/>
</filter>
<filter id="filter2_d" x="0.621643" y="-465.419" width="1714.09" height="1432.35" filterUnits="userSpaceOnUse" color-interpolation-filters="sRGB">
<feFlood flood-opacity="0" result="BackgroundImageFix"/>
<feColorMatrix in="SourceAlpha" type="matrix" values="0 0 0 0 0 0 0 0 0 0 0 0 0 0 0 0 0 0 127 0"/>
<feOffset/>
<feGaussianBlur stdDeviation="89.3737"/>
<feColorMatrix type="matrix" values="0 0 0 0 0.129427 0 0 0 0 0.224219 0 0 0 0 0.4375 0 0 0 0.3 0"/>
<feBlend mode="normal" in2="BackgroundImageFix" result="effect1_dropShadow"/>
<feBlend mode="normal" in="SourceGraphic" in2="effect1_dropShadow" result="shape"/>
</filter>
<filter id="filter3_d" x="581.415" y="-729.927" width="1661.43" height="1388.75" filterUnits="userSpaceOnUse" color-interpolation-filters="sRGB">
<feFlood flood-opacity="0" result="BackgroundImageFix"/>
<feColorMatrix in="SourceAlpha" type="matrix" values="0 0 0 0 0 0 0 0 0 0 0 0 0 0 0 0 0 0 127 0"/>
<feOffset/>
<feGaussianBlur stdDeviation="89.3737"/>
<feColorMatrix type="matrix" values="0 0 0 0 0.129427 0 0 0 0 0.224219 0 0 0 0 0.4375 0 0 0 0.3 0"/>
<feBlend mode="normal" in2="BackgroundImageFix" result="effect1_dropShadow"/>
<feBlend mode="normal" in="SourceGraphic" in2="effect1_dropShadow" result="shape"/>
</filter>
<filter id="filter4_d" x="675.539" y="-656.013" width="1520.29" height="1263.56" filterUnits="userSpaceOnUse" color-interpolation-filters="sRGB">
<feFlood flood-opacity="0" result="BackgroundImageFix"/>
<feColorMatrix in="SourceAlpha" type="matrix" values="0 0 0 0 0 0 0 0 0 0 0 0 0 0 0 0 0 0 127 0"/>
<feOffset/>
<feGaussianBlur stdDeviation="89.3737"/>
<feColorMatrix type="matrix" values="0 0 0 0 0.129427 0 0 0 0 0.224219 0 0 0 0 0.4375 0 0 0 0.3 0"/>
<feBlend mode="normal" in2="BackgroundImageFix" result="effect1_dropShadow"/>
<feBlend mode="normal" in="SourceGraphic" in2="effect1_dropShadow" result="shape"/>
</filter>
<filter id="filter5_d" x="566.396" y="-811.889" width="1714.09" height="1432.35" filterUnits="userSpaceOnUse" color-interpolation-filters="sRGB">
<feFlood flood-opacity="0" result="BackgroundImageFix"/>
<feColorMatrix in="SourceAlpha" type="matrix" values="0 0 0 0 0 0 0 0 0 0 0 0 0 0 0 0 0 0 127 0"/>
<feOffset/>
<feGaussianBlur stdDeviation="89.3737"/>
<feColorMatrix type="matrix" values="0 0 0 0 0.129427 0 0 0 0 0.224219 0 0 0 0 0.4375 0 0 0 0.3 0"/>
<feBlend mode="normal" in2="BackgroundImageFix" result="effect1_dropShadow"/>
<feBlend mode="normal" in="SourceGraphic" in2="effect1_dropShadow" result="shape"/>
</filter>
<linearGradient id="paint0_linear" x1="1405.83" y1="627.339" x2="341.326" y2="-52.4043" gradientUnits="userSpaceOnUse">
<stop stop-color="#844FFC"/>
<stop offset="1" stop-color="#2FB8FF"/>
</linearGradient>
<linearGradient id="paint1_linear" x1="1373.7" y1="607.364" x2="413.099" y2="-6.03586" gradientUnits="userSpaceOnUse">
<stop stop-color="#844FFC"/>
<stop offset="1" stop-color="#2FB8FF"/>
</linearGradient>
<linearGradient id="paint2_linear" x1="1435.73" y1="577.682" x2="335.858" y2="-124.642" gradientUnits="userSpaceOnUse">
<stop stop-color="#844FFC"/>
<stop offset="1" stop-color="#2FB8FF"/>
</linearGradient>
<linearGradient id="paint3_linear" x1="1971.6" y1="280.868" x2="907.1" y2="-398.875" gradientUnits="userSpaceOnUse">
<stop stop-color="#844FFC"/>
<stop offset="1" stop-color="#2FB8FF"/>
</linearGradient>
<linearGradient id="paint4_linear" x1="1939.47" y1="260.894" x2="978.873" y2="-352.506" gradientUnits="userSpaceOnUse">
<stop stop-color="#844FFC"/>
<stop offset="1" stop-color="#2FB8FF"/>
</linearGradient>
<linearGradient id="paint5_linear" x1="2001.5" y1="231.211" x2="901.632" y2="-471.113" gradientUnits="userSpaceOnUse">
<stop stop-color="#844FFC"/>
<stop offset="1" stop-color="#2FB8FF"/>
</linearGradient>
<linearGradient id="paint6_linear" x1="1469.08" y1="505.501" x2="369.214" y2="-196.823" gradientUnits="userSpaceOnUse">
<stop stop-color="#844FFC"/>
<stop offset="1" stop-color="#2FB8FF"/>
</linearGradient>
<linearGradient id="paint7_linear" x1="1469.08" y1="505.501" x2="369.214" y2="-196.823" gradientUnits="userSpaceOnUse">
<stop stop-color="#844FFC"/>
<stop offset="1" stop-color="#2FB8FF"/>
</linearGradient>
<linearGradient id="paint8_linear" x1="1469.08" y1="505.501" x2="369.214" y2="-196.823" gradientUnits="userSpaceOnUse">
<stop stop-color="#844FFC"/>
<stop offset="1" stop-color="#2FB8FF"/>
</linearGradient>
</defs>
</svg>
