<svg xmlns="http://www.w3.org/2000/svg" viewBox="0 0 448.8 500"><defs/><defs><style>.cls-1{fill:#d6d8e5;opacity:.3}.cls-2{fill:#dd990e}.cls-3{fill:#f9cb07}.cls-4{fill:#cc8b09}.cls-5{fill:#e8a30a}.cls-6{fill:#f9ca06}.cls-7{fill:#3a2c6d}.cls-8{fill:#ffcea9}.cls-9{fill:#f4f4f4}.cls-10{fill:#38226d}.cls-11{fill:#9c73ff}.cls-12{fill:#8c50ff}.cls-13{fill:#ededed}.cls-14{fill:#bfbfbf}.cls-15{fill:#e5e5e5}.cls-16{fill:#dadce5}</style></defs><g id="Слой_2" data-name="Слой 2"><g id="Слой_1-2" data-name="Слой 1"><g id="Coin"><ellipse cx="92.9" cy="380.3" class="cls-1" rx="46.5" ry="26.9"/><ellipse cx="98.4" cy="372.4" class="cls-2" rx="46.5" ry="26.9"/><path d="M51.9 372.8v-12.2l9.2 8.2-9.2 4zM144.9 360.9v11.5l-4.7 5-2.3-13.2 7-3.3z" class="cls-2"/><ellipse cx="98.4" cy="360.9" class="cls-3" rx="46.5" ry="26.9"/><path d="M131.6 361.8c-.4 4.5-3.7 9-9.7 12.4a52 52 0 01-47 0c-6-3.5-9.3-8-9.7-12.4-.6-5.3 2.7-10.8 9.7-14.8a52 52 0 0147 0c7.1 4 10.3 9.5 9.7 14.8z" class="cls-4"/><path d="M131.6 361.8c-.4 4.5-3.7 9-9.7 12.4a52 52 0 01-47 0c-6-3.5-9.3-8-9.7-12.4.4-4.6 3.7-9 9.7-12.5a52 52 0 0147 0c6 3.5 9.3 8 9.7 12.4z" class="cls-5"/><path d="M98 355.5a7.3 7.3 0 00-1.3 0 32.2 32.2 0 00-4 1 15.2 15.2 0 00-2 .7l5.3 3.1 1-.3 3.9-1.2a18.7 18.7 0 013.4-.5 12.5 12.5 0 013.2.2 10 10 0 013 1.2 6.1 6.1 0 012.3 2 2.7 2.7 0 01.3 2 4.6 4.6 0 01-1.2 2.1 13 13 0 01-2.5 2l3.4 2-1.8 1-3.4-2a27.8 27.8 0 01-5.1 2 33 33 0 01-5.7 1l-1.8-3.2a11 11 0 001.5-.1 27.2 27.2 0 004.8-1 19.3 19.3 0 002.7-1l-5.4-3.2-.7.3-.7.2c-1.3.4-2.5.8-3.7 1a16.7 16.7 0 01-3 .4 10.4 10.4 0 01-2.9-.2 9.1 9.1 0 01-2.5-1 6.6 6.6 0 01-2.3-2 3.3 3.3 0 01-.6-2 3.8 3.8 0 011-2 9.5 9.5 0 012-2l-3-1.9 1.8-1 3.1 1.8a22.3 22.3 0 014.6-1.7 34 34 0 014.6-.8zm-9.2 5.6a3.9 3.9 0 002.3.5 15.4 15.4 0 003.2-.8l-5-2.8q-2.7 1.8-.5 3zm17.6 1.4a4 4 0 00-2.5-.4 20.3 20.3 0 00-3.5.8l5 2.8q3.1-2 1-3.2z" class="cls-4"/><path d="M95 368.6v-1.8l2 1.3-.9 1.3zM112.8 369.7v-1.8l-4.4.4 2.6 1.7 1.8-.3zM113.2 363.1v-1.8l-3.3 1.2 3.3.6zM99.5 363l1.1-1 3.9 2.6-.3.8-3-1.3zM89.3 357.3l5.2 3 1-.8-.6-.8a6.7 6.7 0 00-1.7-1.4c-.3 0-2.8-1.1-2.8-1.1zM97.9 355.5v-1.8l-2.4-.8-.5 1.4.2.6 2.7.6zM82.2 354.2v-1.8l2.7.2-.9 1.8-1.8-.2zM82.3 360.3v-1.9h3.1l-.7 1.7-1.4 1.5z" class="cls-4"/><path d="M98 353.7a8.2 8.2 0 00-1.3 0 25.7 25.7 0 00-4 1 15.2 15.2 0 00-2 .7l5.3 3.1 1-.3 3.9-1.2a18 18 0 013.4-.5 12.5 12.5 0 013.2.2 10.4 10.4 0 013 1.2 6 6 0 012.3 2 2.7 2.7 0 01.3 2 4.5 4.5 0 01-1.2 2 13 13 0 01-2.5 2l3.4 2-1.8 1.1-3.4-2a27.1 27.1 0 01-5.1 2 34 34 0 01-5.7 1l-1.8-3.2 1.5-.1a30.6 30.6 0 004.8-1.1 18 18 0 002.7-1l-5.4-3-.7.2-.7.2c-1.3.4-2.5.8-3.7 1a16.7 16.7 0 01-3 .4 10.8 10.8 0 01-2.9-.2 9.4 9.4 0 01-2.5-1 6.6 6.6 0 01-2.3-2 3.3 3.3 0 01-.6-2 3.8 3.8 0 011-2 9.5 9.5 0 012-2l-3-2 1.8-1 3.1 1.9a22.3 22.3 0 014.6-1.7 32.4 32.4 0 014.6-.8zm-9.2 5.6a4 4 0 002.3.5 15.4 15.4 0 003.2-.7l-5-3c-1.8 1.3-2 2.3-.5 3.2zm17.6 1.4a4 4 0 00-2.5-.4 20.2 20.2 0 00-3.5.7l5 3c2-1.4 2.4-2.4 1-3.3z" class="cls-6"/></g><g id="Coin-2" data-name="Coin"><ellipse cx="102.2" cy="358.1" class="cls-2" rx="46.5" ry="26.9"/><path d="M55.7 358.5v-12.2l9.2 8.2-9.2 4zM148.7 346.6v11.5l-4.7 5-2.3-13.2 7-3.3z" class="cls-2"/><ellipse cx="102.2" cy="346.6" class="cls-3" rx="46.5" ry="26.9"/><path d="M135.4 347.4c-.4 4.6-3.7 9-9.7 12.5a52 52 0 01-47 0c-6-3.5-9.3-8-9.7-12.5-.6-5.3 2.7-10.7 9.7-14.7a52 52 0 0147 0c7 4 10.3 9.4 9.7 14.7z" class="cls-4"/><path d="M135.4 347.4c-.4 4.6-3.7 9-9.7 12.5a52 52 0 01-47 0c-6-3.5-9.3-8-9.7-12.5.4-4.5 3.7-9 9.7-12.4a52 52 0 0147 0c6 3.5 9.3 8 9.7 12.4z" class="cls-5"/><path d="M101.7 341.1a8.4 8.4 0 00-1.2.1 32.2 32.2 0 00-4 1 15.2 15.2 0 00-2 .7l5.3 3.1 1-.3a59 59 0 013.8-1.2 17 17 0 013.5-.6 12 12 0 013.2.3 10.3 10.3 0 013 1.1 6.1 6.1 0 012.3 2 2.7 2.7 0 01.4 2.1 4.6 4.6 0 01-1.3 2 13 13 0 01-2.4 2l3.4 2-1.9 1-3.4-2a27.9 27.9 0 01-5.1 2 34 34 0 01-5.6 1l-1.8-3.1a13.8 13.8 0 001.5-.2 20.6 20.6 0 002.2-.3l2.6-.7a19.8 19.8 0 002.6-1l-5.3-3-.7.2-.7.2-3.7 1a16.7 16.7 0 01-3.1.4 10.8 10.8 0 01-2.8-.3 9.3 9.3 0 01-2.6-1 6.4 6.4 0 01-2.2-1.9 3.2 3.2 0 01-.6-2 3.8 3.8 0 011-2.1 9.7 9.7 0 012-2l-3.1-1.8 1.9-1 3 1.8a23.4 23.4 0 014.7-1.7 32.8 32.8 0 014.6-.8zm-9 5.6a4 4 0 002.2.6 14.7 14.7 0 003.2-.8l-5-2.9c-1.8 1.2-2 2.3-.5 3.1zm17.5 1.5a4.1 4.1 0 00-2.5-.4 21.4 21.4 0 00-3.5.7l5 2.9c2-1.3 2.4-2.4 1-3.2z" class="cls-4"/><path d="M98.8 354.3v-1.8l2 1.3-.8 1.3zM116.6 355.4v-1.8l-4.4.3 2.6 1.8 1.8-.3zM117 348.8V347l-3.3 1.2 3.3.6zM103.3 348.7l1.1-1 3.9 2.6-.3.8-3-1.3zM93.1 343l5.2 3 1-.8-.7-.9A6.7 6.7 0 0097 343c-.4 0-2.8-1.2-2.8-1.2zM101.7 341.1v-1.8l-2.4-.7-.5 1.4.2.6 2.7.5zM86 339.8V338l2.7.3-.9 1.8-1.8-.3zM86 346v-1.9h3.2l-.7 1.7-1.4 1.5z" class="cls-4"/><path d="M101.7 339.3a7.2 7.2 0 00-1.2.1 32.2 32.2 0 00-4 1 15.2 15.2 0 00-2 .7l5.3 3 1-.2 3.8-1.2a17.9 17.9 0 013.5-.6 12.4 12.4 0 013.2.3 10.3 10.3 0 013 1.1 6.1 6.1 0 012.3 2 2.7 2.7 0 01.4 2.1 4.6 4.6 0 01-1.3 2 13 13 0 01-2.4 2l3.4 2-1.9 1-3.4-2a28.6 28.6 0 01-5.1 2 34 34 0 01-5.6 1l-1.8-3.1a13.8 13.8 0 001.5-.2 23.4 23.4 0 004.8-1 19.8 19.8 0 002.6-1l-5.3-3-.7.2-.7.2-3.7 1a15.8 15.8 0 01-3.1.4 10.8 10.8 0 01-2.8-.3 9.6 9.6 0 01-2.6-1 6.4 6.4 0 01-2.2-1.8 3.2 3.2 0 01-.6-2 3.8 3.8 0 01.9-2.1 9.5 9.5 0 012.1-2L86 338l1.8-1 3.2 1.8a23.4 23.4 0 014.5-1.7 36 36 0 014.6-.8zm-9 5.6a3.8 3.8 0 002.2.5 15.2 15.2 0 003.2-.7l-5-2.9c-1.8 1.2-2 2.3-.5 3.1zm17.5 1.5a4 4 0 00-2.5-.4 20.4 20.4 0 00-3.5.7l5 2.9c2-1.3 2.4-2.4 1-3.2z" class="cls-6"/></g><g id="Coin-3" data-name="Coin"><ellipse cx="99.3" cy="344.3" class="cls-2" rx="46.5" ry="26.9"/><path d="M52.9 344.7v-12.2l9.1 8.2-9.1 4zM145.8 332.8v11.5l-4.6 5-2.4-13.2 7-3.3z" class="cls-2"/><ellipse cx="99.3" cy="332.8" class="cls-3" rx="46.5" ry="26.9"/><path d="M132.6 333.6c-.5 4.6-3.7 9-9.7 12.5a52 52 0 01-47 0c-6-3.5-9.3-8-9.8-12.5-.5-5.2 2.7-10.7 9.7-14.7a52 52 0 0147 0c7 4.1 10.3 9.5 9.8 14.8z" class="cls-4"/><path d="M132.6 333.6c-.5 4.6-3.7 9-9.7 12.5a52 52 0 01-47 0c-6-3.5-9.3-8-9.8-12.5.5-4.5 3.7-9 9.7-12.4a52 52 0 0147 0c6 3.5 9.3 8 9.8 12.4z" class="cls-5"/><path d="M98.9 327.4a7.2 7.2 0 00-1.3 0 32.2 32.2 0 00-4 1 16.8 16.8 0 00-2 .7l5.3 3.1 1-.3a59 59 0 013.9-1.2 17.9 17.9 0 013.4-.5 12.4 12.4 0 013.2.2 10 10 0 013 1.2 6 6 0 012.3 2 2.8 2.8 0 01.4 2 4.7 4.7 0 01-1.3 2.1 13.2 13.2 0 01-2.4 2l3.4 2-1.9 1-3.4-2a28.4 28.4 0 01-5.1 2 34 34 0 01-5.6 1l-1.8-3.2a14 14 0 001.5-.1 23.4 23.4 0 004.8-1 19.4 19.4 0 002.7-1l-5.4-3.2-.6.3-.8.2a30 30 0 01-3.6 1 16.7 16.7 0 01-3.2.4 11.2 11.2 0 01-2.8-.2 9.6 9.6 0 01-2.5-1 6.4 6.4 0 01-2.3-1.9 3.1 3.1 0 01-.6-2 3.9 3.9 0 011-2.1 9.5 9.5 0 012-2l-3-1.9 1.8-1 3.1 1.8a22.5 22.5 0 014.6-1.7 32.8 32.8 0 014.6-.8zm-9.1 5.6a3.8 3.8 0 002.3.5 14.7 14.7 0 003.2-.7l-5-3c-1.9 1.3-2 2.3-.5 3.2zm17.5 1.5a4 4 0 00-2.5-.5 21.2 21.2 0 00-3.5.8l5 2.8c2.1-1.3 2.5-2.3 1-3.2z" class="cls-4"/><path d="M96 340.5v-1.8l2 1.3-.9 1.4zM113.8 341.6v-1.8l-4.4.3 2.5 1.8 1.9-.3zM114.2 335v-1.8l-3.4 1.2 3.4.6zM100.5 335l1-1.1 4 2.6-.3.8-3-1.3-1.8-1zM90.3 329.2l5.1 3 1-.8-.7-.8a7 7 0 00-1.6-1.4c-.3 0-2.8-1.1-2.8-1.1zM98.9 327.4v-1.8l-2.4-.8-.5 1.4.1.7 2.8.5zM83.1 326.1v-1.8l2.8.3-.9 1.7-1.9-.2zM83.2 332.2v-1.9h3.2l-.8 1.7-1.4 1.5z" class="cls-4"/><path d="M98.9 325.6a7.2 7.2 0 00-1.3 0 25.3 25.3 0 00-4 1 15.3 15.3 0 00-2 .7l5.3 3.1 1-.3 3.9-1.2a18.6 18.6 0 013.4-.5 12.4 12.4 0 013.2.2 10 10 0 013 1.2 6.1 6.1 0 012.3 2 2.8 2.8 0 01.4 2 4.7 4.7 0 01-1.3 2.1 13.1 13.1 0 01-2.4 2l3.4 2-1.9 1-3.4-2a28.4 28.4 0 01-5.1 2 33 33 0 01-5.6 1l-1.8-3.2a13.3 13.3 0 001.5-.1 23.6 23.6 0 004.8-1 19.4 19.4 0 002.7-1l-5.4-3.2-.6.3-.8.2c-1.3.5-2.5.8-3.6 1a16.7 16.7 0 01-3.2.4 10.3 10.3 0 01-2.8-.2 9.3 9.3 0 01-2.5-1 6.5 6.5 0 01-2.2-2 3.1 3.1 0 01-.6-2 3.9 3.9 0 01.8-2 9.5 9.5 0 012.2-2l-3.1-1.9 1.8-1 3.1 1.8a22.6 22.6 0 014.6-1.7 34.3 34.3 0 014.6-.8zm-9.1 5.6a3.8 3.8 0 002.3.5 15.3 15.3 0 003.2-.7l-5-3c-1.9 1.3-2 2.3-.5 3.2zm17.5 1.4a4 4 0 00-2.5-.4 20.2 20.2 0 00-3.5.8l5 2.8q3.2-2 1-3.2z" class="cls-6"/></g><g id="Coin-4" data-name="Coin"><ellipse cx="103.3" cy="331" class="cls-2" rx="46.5" ry="26.9"/><path d="M56.8 331.4v-12.2l9.2 8.2-9.2 4zM149.8 319.5V331l-4.7 5-2.3-13.1 7-3.4z" class="cls-2"/><ellipse cx="103.3" cy="319.5" class="cls-3" rx="46.5" ry="26.9"/><path d="M136.5 320.4c-.4 4.5-3.7 9-9.7 12.4a52 52 0 01-47 0c-6-3.5-9.2-8-9.7-12.4-.6-5.3 2.7-10.7 9.7-14.8a52 52 0 0147 0c7 4 10.3 9.5 9.7 14.8z" class="cls-4"/><path d="M136.5 320.4c-.4 4.5-3.7 9-9.7 12.4a52 52 0 01-47 0c-6-3.5-9.2-8-9.7-12.4.5-4.6 3.7-9 9.7-12.5a52 52 0 0147 0c6 3.5 9.3 8 9.7 12.5z" class="cls-5"/><path d="M102.8 314a7.3 7.3 0 00-1.2.2 21.5 21.5 0 00-4 .8 16.1 16.1 0 00-2 .8l5.3 3.1 1-.3 3.8-1.2a18.7 18.7 0 013.5-.5 12.4 12.4 0 013.1.2 10 10 0 013 1.2 6.1 6.1 0 012.3 2 2.6 2.6 0 01.4 2 4.6 4.6 0 01-1.3 2.1 13 13 0 01-2.4 2l3.4 2-1.9 1-3.4-2a27.8 27.8 0 01-5 2 33.7 33.7 0 01-5.7 1l-1.8-3.2 1.5-.1a30.4 30.4 0 004.8-1.1 18.8 18.8 0 002.7-1l-5.3-3-.7.2-.7.3-3.7 1a16.6 16.6 0 01-3.2.4 10.4 10.4 0 01-2.7-.3 9.2 9.2 0 01-2.6-1 6.6 6.6 0 01-2.2-1.9 3.3 3.3 0 01-.6-2 3.8 3.8 0 01.9-2.1 9.4 9.4 0 012.1-2l-3.1-1.8 1.8-1.1 3.2 1.8a22.3 22.3 0 014.5-1.7 33.8 33.8 0 014.6-.8zm-9 5.7a3.8 3.8 0 002.2.5 15.4 15.4 0 003.2-.7l-5-3c-1.8 1.3-2 2.3-.5 3.2zm17.5 1.4a4 4 0 00-2.5-.4 20.5 20.5 0 00-3.5.8l5 2.8c2-1.3 2.4-2.3 1-3.2z" class="cls-4"/><path d="M100 327.2v-1.8l2 1.3-1 1.4zM117.7 328.3v-1.8l-4.4.4 2.6 1.7 1.8-.3zM118.1 321.7v-1.8l-3.3 1.2 3.3.6zM104.4 321.6l1.1-1 3.9 2.6-.3.8-3-1.3zM94.2 316l5.2 2.9 1-.8-.7-.8a6.7 6.7 0 00-1.6-1.4c-.3 0-2.8-1.1-2.8-1.1zM102.8 314.1v-1.8l-2.4-.8-.5 1.4.2.7 2.7.5zM87.1 312.8V311l2.7.3-.9 1.7-1.8-.2zM87.2 318.9V317h3.1l-.7 1.7-1.4 1.5z" class="cls-4"/><path d="M102.8 312.3a7 7 0 00-1.2 0 33.8 33.8 0 00-4 1 14.8 14.8 0 00-2 .7l5.3 3.1 1-.3 3.8-1.2a17.2 17.2 0 013.5-.5 12 12 0 013.1.2 10.3 10.3 0 013 1.2 6.1 6.1 0 012.3 2 2.7 2.7 0 01.4 2 4.6 4.6 0 01-1.3 2.1 13 13 0 01-2.4 2l3.4 2-1.9 1-3.4-2a27.1 27.1 0 01-5 2 33.7 33.7 0 01-5.7 1l-1.8-3.3a14 14 0 001.5 0 21 21 0 002.2-.5l2.6-.6a18.8 18.8 0 002.7-1l-5.4-3.1-.7.2-.7.2c-1.3.5-2.5.8-3.7 1a16.6 16.6 0 01-3 .5 10.8 10.8 0 01-2.9-.3 9.5 9.5 0 01-2.5-1 6.7 6.7 0 01-2.3-1.9 3.3 3.3 0 01-.6-2 3.8 3.8 0 011-2.1 9.7 9.7 0 012-2l-3-1.7 1.8-1 3.2 1.7a23 23 0 014.6-1.7 32.3 32.3 0 014.5-.8zm-9 5.6a3.9 3.9 0 002.2.5 14.9 14.9 0 003.2-.7l-5-3c-1.8 1.3-2 2.3-.5 3.2zm17.5 1.4a4 4 0 00-2.5-.4 21.5 21.5 0 00-3.5.8l5 2.8q3.1-2 1-3.2z" class="cls-6"/></g><g id="Coin-5" data-name="Coin"><ellipse cx="100.5" cy="317.3" class="cls-2" rx="46.5" ry="26.9"/><path d="M54 317.6v-12.2l9.1 8.2-9.1 4zM146.9 305.7v11.6l-4.6 4.9-2.4-13.1 7-3.4z" class="cls-2"/><ellipse cx="100.5" cy="305.7" class="cls-3" rx="46.5" ry="26.9"/><path d="M133.7 306.6c-.5 4.5-3.7 9-9.7 12.4a52 52 0 01-47 0c-6-3.5-9.3-7.9-9.8-12.4-.5-5.3 2.7-10.7 9.7-14.8a52 52 0 0147 0c7.1 4 10.3 9.5 9.8 14.8z" class="cls-4"/><path d="M133.7 306.6c-.5 4.5-3.7 9-9.7 12.4a52 52 0 01-47 0c-6-3.5-9.3-7.9-9.8-12.4.5-4.6 3.7-9 9.7-12.5a52 52 0 0147 0c6.1 3.5 9.3 8 9.8 12.5z" class="cls-5"/><path d="M100 300.3a7 7 0 00-1.2 0 32.2 32.2 0 00-4 1 15.2 15.2 0 00-2 .7l5.2 3.1 1-.3c1.4-.5 2.6-.8 3.9-1.1a17.8 17.8 0 013.4-.6 12 12 0 013.2.2 10.3 10.3 0 013 1.2 6.1 6.1 0 012.3 2 2.7 2.7 0 01.4 2 4.5 4.5 0 01-1.3 2.1 13 13 0 01-2.4 2l3.4 2-1.9 1-3.4-2a27.1 27.1 0 01-5.1 2 34 34 0 01-5.7 1l-1.7-3.2 1.4-.1 2.3-.4 2.6-.7a19.2 19.2 0 002.6-1l-5.3-3-.7.2-.7.2-3.7 1a16.7 16.7 0 01-3.1.4 10.8 10.8 0 01-2.8-.2 9.4 9.4 0 01-2.6-1 6.6 6.6 0 01-2.2-2 3.3 3.3 0 01-.6-2 3.8 3.8 0 01.9-2 9.5 9.5 0 012.1-2l-3-1.8 1.8-1 3.1 1.7a22.8 22.8 0 014.6-1.7 32.8 32.8 0 014.6-.8zm-9 5.6a4 4 0 002.2.5 14.7 14.7 0 003.2-.7l-5-3c-1.9 1.3-2 2.3-.5 3.2zm17.5 1.5a4 4 0 00-2.5-.5 20.3 20.3 0 00-3.5.8l5 2.9q3-2 1-3.3z" class="cls-4"/><path d="M97 313.4v-1.8l2 1.3-.8 1.4zM114.9 314.5v-1.8l-4.4.4 2.5 1.7 1.9-.3zM115.3 307.9v-1.8l-3.3 1.2 3.3.6zM101.5 307.8l1.1-1 4 2.7-.3.7-3-1.2-1.8-1.2zM91.4 302.1l5.1 3 1-.8-.7-.8a6.7 6.7 0 00-1.6-1.3l-2.8-1.2zM100 300.3v-1.8l-2.4-.8-.5 1.4.1.7 2.8.5zM84.2 299v-1.8l2.8.3-.9 1.7-1.9-.2zM84.3 305.1v-1.9h3.2l-.8 1.7-1.4 1.5z" class="cls-4"/><path d="M100 298.5a7.3 7.3 0 00-1.2 0 32.2 32.2 0 00-4 1 15.2 15.2 0 00-2 .8l5.2 3 1-.3a59 59 0 013.9-1.1 17 17 0 013.4-.6 12 12 0 013.2.2 10 10 0 013 1.2 6.1 6.1 0 012.3 2 2.7 2.7 0 01.4 2 4.6 4.6 0 01-1.3 2.1 13 13 0 01-2.4 2l3.4 2-1.9 1-3.4-2a27.9 27.9 0 01-5.1 2 34 34 0 01-5.7 1l-1.7-3.2a13.8 13.8 0 001.4-.1 21.2 21.2 0 002.3-.4l2.6-.7a19.2 19.2 0 002.6-1l-5.3-3-.7.2-.7.2-3.7 1a16.7 16.7 0 01-3.1.4 10.8 10.8 0 01-2.8-.2 9.1 9.1 0 01-2.6-1 6.4 6.4 0 01-2.2-2 3.2 3.2 0 01-.6-2 3.8 3.8 0 01.9-2 9.5 9.5 0 012.1-2l-3.1-2 1.8-1 3.2 1.8a22.7 22.7 0 014.6-1.7 32.8 32.8 0 014.5-.8zm-9 5.6a4 4 0 002.2.5 15.3 15.3 0 003.2-.7l-5-3c-1.9 1.3-2 2.3-.5 3.2zm17.5 1.5a4 4 0 00-2.5-.5 21.4 21.4 0 00-3.5.8l5 2.8c2-1.3 2.4-2.3 1-3.1z" class="cls-6"/></g><g id="Coin-6" data-name="Coin"><ellipse cx="100.5" cy="302.2" class="cls-2" rx="46.5" ry="26.9"/><path d="M54 302.6v-12.2l9.1 8.2-9.1 4zM146.9 290.7v11.5l-4.6 5-2.4-13.2 7-3.3z" class="cls-2"/><ellipse cx="100.5" cy="290.7" class="cls-3" rx="46.5" ry="26.9"/><path d="M133.7 291.5c-.5 4.5-3.7 9-9.7 12.4a52 52 0 01-47 0c-6-3.4-9.3-7.9-9.8-12.4-.5-5.3 2.7-10.7 9.7-14.7a52 52 0 0147 0c7.1 4 10.3 9.4 9.8 14.7z" class="cls-4"/><path d="M133.7 291.5c-.5 4.5-3.7 9-9.7 12.4a52 52 0 01-47 0c-6-3.4-9.3-7.9-9.8-12.4.5-4.5 3.7-9 9.7-12.4a52 52 0 0147 0c6.1 3.4 9.3 7.9 9.8 12.4z" class="cls-5"/><path d="M100 285.2a7 7 0 00-1.2.1 32.2 32.2 0 00-4 .9 15.2 15.2 0 00-2 .8l5.2 3 1-.3 3.9-1.1a17 17 0 013.4-.6 12 12 0 013.2.2 10.3 10.3 0 013 1.2 6.1 6.1 0 012.3 2 2.7 2.7 0 01.4 2.1 4.6 4.6 0 01-1.3 2 13 13 0 01-2.4 2l3.4 2-1.9 1-3.4-2a27.1 27.1 0 01-5.1 2 34 34 0 01-5.7 1l-1.7-3.2a13.8 13.8 0 001.4-.1 21.2 21.2 0 002.3-.4l2.6-.6a19.2 19.2 0 002.6-1l-5.3-3.1-.7.2-.7.2c-1.4.5-2.6.8-3.7 1a16.7 16.7 0 01-3.1.5 10.8 10.8 0 01-2.8-.3 9.4 9.4 0 01-2.6-1 6.6 6.6 0 01-2.2-2 3.3 3.3 0 01-.6-2 3.8 3.8 0 01.9-2 9.5 9.5 0 012.1-2l-3.1-1.9 1.8-1 3.2 1.8a23.4 23.4 0 014.6-1.6 32.8 32.8 0 014.6-.8zm-9 5.6a4 4 0 002.2.5 14.7 14.7 0 003.2-.7l-5-2.9c-1.9 1.2-2 2.3-.5 3.1zm17.5 1.5a4 4 0 00-2.5-.4 20.3 20.3 0 00-3.5.7l5 2.9q3-2 1-3.2z" class="cls-4"/><path d="M97 298.3v-1.8l2 1.3-.8 1.4zM114.9 299.5v-1.8l-4.4.3 2.5 1.8 1.9-.3zM115.3 292.9V291l-3.3 1.2 3.3.7zM101.5 292.8l1.1-1 4 2.6-.3.8-3-1.3-1.8-1.1zM91.4 287l5.1 3 1-.8-.6-.8a6.7 6.7 0 00-1.7-1.3c-.3 0-2.8-1.2-2.8-1.2zM100 285.2v-1.8l-2.4-.8-.5 1.5.1.6 2.8.5zM84.2 283.9v-1.8l2.8.3-.9 1.8-1.9-.3zM84.3 290v-1.9h3.2l-.8 1.7-1.4 1.5z" class="cls-4"/><path d="M100 283.4a7.3 7.3 0 00-1.2.1 32.2 32.2 0 00-4 .9 15.2 15.2 0 00-2 .8l5.2 3 1-.3a59 59 0 013.9-1.1 17 17 0 013.4-.6 12 12 0 013.2.2 10 10 0 013 1.2 6.1 6.1 0 012.3 2 2.7 2.7 0 01.4 2.1 4.6 4.6 0 01-1.3 2 13 13 0 01-2.4 2l3.4 2-1.9 1-3.4-2a27.9 27.9 0 01-5.1 2 34 34 0 01-5.7 1l-1.7-3.2a13.8 13.8 0 001.4-.1 21.2 21.2 0 002.3-.4l2.6-.6a19.2 19.2 0 002.6-1l-5.3-3.1-.7.2-.7.2c-1.4.5-2.6.8-3.7 1a16.7 16.7 0 01-3.1.5 10.8 10.8 0 01-2.8-.3 9.1 9.1 0 01-2.6-1A6.4 6.4 0 0185 290a3.2 3.2 0 01-.6-2 3.8 3.8 0 011-2.1 9.5 9.5 0 012-2l-3-1.9 1.8-1 3.1 1.8a22.7 22.7 0 014.6-1.7 32.8 32.8 0 014.6-.8zm-9.1 5.6a4 4 0 002.3.5 15.3 15.3 0 003.2-.7l-5-3c-1.9 1.3-2 2.4-.5 3.2zm17.5 1.5a4 4 0 00-2.5-.5 21.4 21.4 0 00-3.5.8l5 2.8c2.1-1.2 2.5-2.3 1-3.1z" class="cls-6"/></g><g id="Coin-7" data-name="Coin"><ellipse cx="103.5" cy="285.1" class="cls-2" rx="46.5" ry="26.9"/><path d="M57 285.5v-12.2l9.2 8.2-9.2 4zM150 273.6v11.5l-4.7 5-2.3-13.2 7-3.3z" class="cls-2"/><ellipse cx="103.5" cy="273.6" class="cls-3" rx="46.5" ry="26.9"/><path d="M136.7 274.4c-.5 4.6-3.7 9-9.7 12.5a52 52 0 01-47 0c-6-3.5-9.3-8-9.7-12.4-.6-5.4 2.6-10.8 9.6-14.8a52 52 0 0147.1 0c7 4 10.2 9.4 9.7 14.8z" class="cls-4"/><path d="M136.7 274.4c-.5 4.6-3.7 9-9.7 12.5a52 52 0 01-47 0c-6-3.5-9.3-8-9.7-12.4.4-4.6 3.6-9 9.6-12.5a52 52 0 0147.1 0c6 3.5 9.2 8 9.7 12.4z" class="cls-5"/><path d="M103 268.2a7.3 7.3 0 00-1.2 0 21.5 21.5 0 00-4 1 16.1 16.1 0 00-2 .7l5.3 3.1 1-.3 3.8-1.2a18.7 18.7 0 013.5-.5 12.4 12.4 0 013.2.2 10.3 10.3 0 013 1.2 6.1 6.1 0 012.3 2 2.6 2.6 0 01.3 2 4.5 4.5 0 01-1.2 2 12.7 12.7 0 01-2.5 2l3.4 2-1.9 1-3.4-2a27.1 27.1 0 01-5.1 2 33.7 33.7 0 01-5.7 1l-1.7-3.1c.3 0 .8 0 1.5-.2l2.2-.3c.8-.1 1.7-.4 2.6-.7a17.6 17.6 0 002.6-1l-5.3-3a7 7 0 01-.7.2l-.7.2-3.7 1a16.6 16.6 0 01-3.1.4 10.8 10.8 0 01-2.8-.3 9.5 9.5 0 01-2.6-1 6.6 6.6 0 01-2.1-1.8 3.3 3.3 0 01-.6-2 3.8 3.8 0 01.9-2.2 9.4 9.4 0 012.1-2l-3.1-1.8 1.8-1 3.2 1.7a22.3 22.3 0 014.6-1.6 33.8 33.8 0 014.5-.9zm-9 5.6a3.8 3.8 0 002.2.5 15.4 15.4 0 003.2-.7l-5-3c-1.9 1.3-2 2.3-.5 3.2zm17.5 1.4a4 4 0 00-2.5-.4 19.4 19.4 0 00-3.5.8l5 2.8c2-1.3 2.4-2.3 1-3.2z" class="cls-4"/><path d="M100.1 281.3v-1.8l2 1.3-.9 1.3zM117.9 282.4v-1.8l-4.4.3 2.5 1.8 1.9-.3zM118.3 275.8V274l-3.3 1.2 3.3.6zM104.6 275.7l1-1 4 2.6-.3.8-3-1.3zM94.4 270l5.2 3 1-.8-.7-.9a6.7 6.7 0 00-1.6-1.3c-.4 0-2.8-1.2-2.8-1.2zM103 268.2v-1.8l-2.4-.8-.5 1.4.1.6 2.8.6zM87.2 266.9v-1.8l2.8.3-.9 1.7-1.9-.2zM87.3 273v-1.9h3.2l-.8 1.7-1.3 1.5z" class="cls-4"/><path d="M103 266.4a8.5 8.5 0 00-1.2 0 33.8 33.8 0 00-4 1 14.8 14.8 0 00-2 .7l5.3 3.1 1-.3 3.8-1.2a17.2 17.2 0 013.5-.5 12 12 0 013.2.2 10.3 10.3 0 013 1.2 6.1 6.1 0 012.3 2 2.7 2.7 0 01.3 2 4.6 4.6 0 01-1.2 2.1 13 13 0 01-2.5 2l3.4 2-1.9 1-3.4-2a27.9 27.9 0 01-5.1 2 33.7 33.7 0 01-5.7 1l-1.7-3.2a14 14 0 001.5-.2 21 21 0 002.2-.3l2.6-.7a18.8 18.8 0 002.6-1l-5.3-3-.7.2-.7.2-3.7 1a16.6 16.6 0 01-3.1.4 10.8 10.8 0 01-2.8-.3 9.3 9.3 0 01-2.6-1A6.5 6.5 0 0188 273a3.2 3.2 0 01-.6-2 3.8 3.8 0 01.9-2.1 9.7 9.7 0 012.1-2l-3.1-1.8L89 264l3.1 1.8a23 23 0 014.6-1.7 32.3 32.3 0 014.6-.8zm-9.1 5.6a3.9 3.9 0 002.3.5 14.9 14.9 0 003.2-.7l-5-3c-1.9 1.3-2 2.3-.5 3.2zm17.5 1.5a4 4 0 00-2.5-.5 21.3 21.3 0 00-3.5.8l5 2.8c2.1-1.3 2.5-2.4 1-3.2z" class="cls-6"/></g><ellipse cx="215.1" cy="456.4" class="cls-1" rx="46.5" ry="26.9"/><ellipse cx="338.1" cy="388.8" class="cls-1" rx="46.5" ry="26.9"/><ellipse cx="213.7" cy="326.7" class="cls-1" rx="46.5" ry="26.9"/><ellipse cx="46.5" cy="465.2" class="cls-1" rx="46.5" ry="26.9"/><ellipse cx="396.8" cy="473.1" class="cls-1" rx="46.5" ry="26.9"/><g id="Coin-8" data-name="Coin"><ellipse cx="217.9" cy="321.3" class="cls-2" rx="46.5" ry="26.9"/><path d="M171.4 321.7v-12.3l9.2 8.2-9.2 4.1zM264.4 309.8v11.5l-4.7 5-2.3-13.2 7-3.3z" class="cls-2"/><ellipse cx="217.9" cy="309.8" class="cls-3" rx="46.5" ry="26.9"/><path d="M251.2 310.6c-.5 4.5-3.7 9-9.7 12.4a52 52 0 01-47.1 0c-6-3.4-9.2-7.9-9.7-12.4-.6-5.3 2.7-10.7 9.7-14.8a52 52 0 0147 0c7 4 10.3 9.5 9.8 14.8z" class="cls-4"/><path d="M251.2 310.6c-.5 4.5-3.7 9-9.7 12.4a52 52 0 01-47.1 0c-6-3.4-9.2-7.9-9.7-12.4.5-4.5 3.7-9 9.7-12.5a52 52 0 0147 0c6 3.5 9.3 8 9.8 12.5z" class="cls-5"/><path d="M217.4 304.3a7.3 7.3 0 00-1.2.1 32.2 32.2 0 00-4 .9 16.6 16.6 0 00-2 .8l5.3 3 1-.3a59 59 0 013.9-1.1 18 18 0 013.4-.6 12.5 12.5 0 013.2.2 10.1 10.1 0 013 1.2 6 6 0 012.3 2 2.7 2.7 0 01.3 2 4.6 4.6 0 01-1.2 2.2 13 13 0 01-2.4 1.9l3.4 2-1.9 1-3.4-2a27.9 27.9 0 01-5 2 34 34 0 01-5.7 1l-1.8-3.2a13.6 13.6 0 001.5 0 24 24 0 004.9-1.1 19.2 19.2 0 002.6-1l-5.4-3.1-.6.2-.8.3c-1.3.4-2.5.8-3.7 1a16.7 16.7 0 01-3 .4 11.3 11.3 0 01-2.9-.3 9.4 9.4 0 01-2.5-1 6.5 6.5 0 01-2.2-1.9 3.3 3.3 0 01-.6-2 3.8 3.8 0 01.8-2.1 9.5 9.5 0 012.2-2l-3.2-1.8 1.9-1 3 1.7a22.4 22.4 0 014.7-1.6 32.8 32.8 0 014.5-.9zm-9 5.6a4 4 0 002.3.5 15.5 15.5 0 003.2-.7l-5-2.9c-1.9 1.2-2 2.2-.6 3.1zm17.5 1.5a4 4 0 00-2.5-.5 21.3 21.3 0 00-3.5.8l5 2.9c2.1-1.3 2.4-2.4 1-3.2z" class="cls-4"/><path d="M214.6 317.4v-1.8l2 1.3-1 1.4zM232.4 318.6v-1.8l-4.5.3 2.6 1.7 1.9-.2zM232.7 311.9v-1.8l-3.3 1.2 3.3.6zM219 311.9l1.1-1.1 3.9 2.7-.3.8-3-1.3zM208.9 306.2l5.1 2.9 1-.8-.6-.8a6.7 6.7 0 00-1.6-1.3l-2.9-1.2zM217.4 304.3v-1.8l-2.3-.8-.5 1.4.1.7 2.7.5zM201.7 303v-1.8l2.7.3-.8 1.7-1.9-.2zM201.8 309.1v-1.9h3.2l-.8 1.7-1.3 1.5z" class="cls-4"/><path d="M217.4 302.5a7.3 7.3 0 00-1.2.1 32.2 32.2 0 00-4 .9 15.2 15.2 0 00-2 .8l5.3 3 1-.3 3.9-1.1a18.7 18.7 0 013.4-.6 12.5 12.5 0 013.2.2 10 10 0 013 1.2 6.1 6.1 0 012.3 2 2.7 2.7 0 01.3 2 4.6 4.6 0 01-1.2 2.1 13 13 0 01-2.4 2l3.4 2-1.9 1-3.4-2a27.8 27.8 0 01-5.1 2 33 33 0 01-5.7 1l-1.7-3.2a13 13 0 001.5-.1l2.2-.4 2.6-.7a19.3 19.3 0 002.6-1l-5.3-3-.7.2-.7.2c-1.4.5-2.6.8-3.7 1a16.7 16.7 0 01-3.1.5 10.4 10.4 0 01-2.8-.3 9.1 9.1 0 01-2.6-1 6.6 6.6 0 01-2.2-2 3.3 3.3 0 01-.6-2 3.8 3.8 0 01.9-2 9.5 9.5 0 012.2-2l-3.2-1.9 1.9-1 3 1.8a22.5 22.5 0 014.7-1.7 34.3 34.3 0 014.6-.9zm-9 5.6a3.9 3.9 0 002.3.5 15.4 15.4 0 003.2-.7l-5-2.9c-1.9 1.2-2 2.2-.6 3.1zm17.5 1.5a4 4 0 00-2.5-.5 20.3 20.3 0 00-3.5.8l5 2.9q3.2-2 1-3.2z" class="cls-6"/></g><g id="Coin-9" data-name="Coin"><ellipse cx="217.9" cy="306.2" class="cls-2" rx="46.5" ry="26.9"/><path d="M171.4 306.6v-12.2l9.2 8.2-9.2 4zM264.4 294.7v11.5l-4.7 5-2.3-13.2 7-3.3z" class="cls-2"/><ellipse cx="217.9" cy="294.7" class="cls-3" rx="46.5" ry="26.9"/><path d="M251.2 295.5c-.5 4.5-3.7 9-9.7 12.5a52 52 0 01-47.1 0c-6-3.5-9.2-8-9.7-12.5-.6-5.3 2.7-10.7 9.7-14.7a52 52 0 0147 0c7 4 10.3 9.4 9.8 14.7z" class="cls-4"/><path d="M251.2 295.5c-.5 4.5-3.7 9-9.7 12.5a52 52 0 01-47.1 0c-6-3.5-9.2-8-9.7-12.5.5-4.5 3.7-9 9.7-12.4a52 52 0 0147 0c6 3.5 9.3 7.9 9.8 12.4z" class="cls-5"/><path d="M217.4 289.2a7.3 7.3 0 00-1.2.1 32.2 32.2 0 00-4 1 15.2 15.2 0 00-2 .7l5.3 3.1 1-.3 3.9-1.2a18 18 0 013.4-.6 12.5 12.5 0 013.2.3 10.1 10.1 0 013 1.1 6 6 0 012.3 2 2.7 2.7 0 01.3 2.1 4.6 4.6 0 01-1.2 2 13 13 0 01-2.4 2l3.4 2-1.9 1-3.4-2a28.6 28.6 0 01-5.1 2 34 34 0 01-5.7 1l-1.7-3.1a13.6 13.6 0 001.5-.2 24 24 0 004.8-1 19.2 19.2 0 002.6-1l-5.3-3-.7.2-.7.2-3.7 1a16.7 16.7 0 01-3.1.4 11.3 11.3 0 01-2.8-.3 9.4 9.4 0 01-2.6-1 6.5 6.5 0 01-2.2-1.9 3.3 3.3 0 01-.6-2 3.8 3.8 0 01.9-2.1 9.5 9.5 0 012.2-2l-3.2-1.8 1.9-1.1 3 1.8a22.4 22.4 0 014.7-1.7 32.8 32.8 0 014.6-.8zm-9 5.7a3.9 3.9 0 002.3.4 14.8 14.8 0 003.2-.7l-5-2.9c-1.9 1.2-2 2.3-.6 3.2zm17.5 1.4a4 4 0 00-2.5-.4 20.3 20.3 0 00-3.5.7l5 2.9c2.1-1.3 2.4-2.4 1-3.2z" class="cls-4"/><path d="M214.6 302.4v-1.8l2 1.3-1 1.3zM232.4 303.5v-1.8l-4.5.3 2.6 1.8 1.9-.3zM232.7 296.9v-1.8l-3.3 1.2 3.3.6zM219 296.8l1.1-1 3.9 2.7-.3.8-3-1.3zM208.9 291.1l5.1 2.9 1-.8-.6-.8a6.7 6.7 0 00-1.6-1.3l-2.9-1.2zM217.4 289.2v-1.8l-2.3-.7-.5 1.4.1.6 2.7.5zM201.7 287.9v-1.8l2.7.3-.8 1.8-1.9-.3zM201.8 294v-1.8h3.2l-.8 1.7-1.3 1.5z" class="cls-4"/><path d="M217.4 287.4a7.3 7.3 0 00-1.2.1 25.3 25.3 0 00-4 1 15.2 15.2 0 00-2 .7l5.3 3 1-.2 3.9-1.2a18.7 18.7 0 013.4-.6 12.5 12.5 0 013.2.3 10 10 0 013 1.1 6.1 6.1 0 012.3 2 2.7 2.7 0 01.3 2.1 4.6 4.6 0 01-1.2 2 13 13 0 01-2.4 2l3.4 2-1.9 1-3.4-2a27.8 27.8 0 01-5.1 2 34 34 0 01-5.7 1l-1.7-3.2a13 13 0 001.5 0l2.2-.5 2.6-.6a19.3 19.3 0 002.6-1l-5.3-3.1a8 8 0 01-.7.2l-.7.3-3.7 1a16.7 16.7 0 01-3.1.4 10.4 10.4 0 01-2.8-.3 9.1 9.1 0 01-2.6-1 6.6 6.6 0 01-2.2-1.9 3.3 3.3 0 01-.6-2 3.8 3.8 0 01.9-2.1 9.5 9.5 0 012.2-2l-3.2-1.8 1.9-1.1 3 1.8a22.5 22.5 0 014.7-1.7 34.3 34.3 0 014.6-.8zm-9 5.6a3.9 3.9 0 002.3.5 15.4 15.4 0 003.2-.7l-5-2.9c-1.9 1.2-2 2.3-.6 3.1zm17.5 1.5a4 4 0 00-2.5-.4 20.3 20.3 0 00-3.5.7l5 2.9q3.2-2 1-3.2z" class="cls-6"/></g><g id="Coin-10" data-name="Coin"><ellipse cx="220.9" cy="289.1" class="cls-2" rx="46.5" ry="26.9"/><path d="M174.4 289.5v-12.2l9.2 8.2-9.2 4zM267.4 277.6v11.5l-4.7 5-2.3-13.2 7-3.3z" class="cls-2"/><ellipse cx="220.9" cy="277.6" class="cls-3" rx="46.5" ry="26.9"/><path d="M254.2 278.5c-.5 4.5-3.7 9-9.7 12.4a52 52 0 01-47.1 0c-6-3.5-9.2-8-9.7-12.4-.5-5.3 2.7-10.7 9.7-14.8a52 52 0 0147 0c7 4 10.3 9.5 9.8 14.8z" class="cls-4"/><path d="M254.2 278.5c-.5 4.5-3.7 9-9.7 12.4a52 52 0 01-47.1 0c-6-3.5-9.2-8-9.7-12.4.5-4.6 3.7-9 9.7-12.5a52 52 0 0147 0c6 3.5 9.3 8 9.8 12.5z" class="cls-5"/><path d="M220.4 272.2a7.3 7.3 0 00-1.2 0 33.8 33.8 0 00-4 1 14.8 14.8 0 00-2 .7l5.3 3.1 1-.3 3.8-1.2a17.2 17.2 0 013.5-.5 12 12 0 013.2.2 10 10 0 013 1.2 6.1 6.1 0 012.3 2 2.7 2.7 0 01.3 2 4.6 4.6 0 01-1.2 2.1 13 13 0 01-2.5 2l3.4 2-1.8 1-3.5-2a27.9 27.9 0 01-5 2 33.7 33.7 0 01-5.7 1l-1.8-3.2a14 14 0 001.5-.1 21 21 0 002.3-.4l2.6-.7a18.8 18.8 0 002.6-1l-5.3-3-.7.2-.7.2c-1.4.5-2.6.8-3.7 1a16.6 16.6 0 01-3.1.5 10.8 10.8 0 01-2.8-.3 9.3 9.3 0 01-2.5-1 6.5 6.5 0 01-2.3-1.9 3.2 3.2 0 01-.6-2 3.8 3.8 0 011-2.1 9.7 9.7 0 012-2l-3-1.8 1.8-1.1 3.1 1.8a23 23 0 014.6-1.7 32.3 32.3 0 014.6-.8zm-9 5.6a3.9 3.9 0 002.3.5 14.9 14.9 0 003.2-.7l-5-3c-1.9 1.3-2 2.3-.5 3.2zm17.5 1.4a4 4 0 00-2.5-.4 21.2 21.2 0 00-3.5.8l5 2.8c2.1-1.3 2.4-2.3 1-3.2z" class="cls-4"/><path d="M217.6 285.3v-1.8l2 1.3-1 1.4zM235.4 286.4v-1.8l-4.5.4 2.6 1.7 1.9-.3zM235.7 279.8V278l-3.3 1.2 3.3.6zM222 279.7l1.1-1 3.9 2.7-.3.7-3-1.3zM211.9 274l5.1 3 1-.8-.6-.8a6.7 6.7 0 00-1.6-1.3l-2.9-1.2zM220.4 272.2v-1.8l-2.3-.8-.5 1.4.1.7 2.7.5zM204.7 270.9v-1.8l2.8.3-.9 1.7-1.9-.2zM204.8 277v-1.9h3.2l-.8 1.7-1.3 1.5z" class="cls-4"/><path d="M220.4 270.4a7.3 7.3 0 00-1.2 0 33.8 33.8 0 00-4 1 14.8 14.8 0 00-2 .7l5.3 3.1 1-.3 3.8-1.2a18.7 18.7 0 013.5-.5 12.4 12.4 0 013.2.2 10.2 10.2 0 013 1.2 6.1 6.1 0 012.3 2 2.7 2.7 0 01.3 2 4.6 4.6 0 01-1.2 2.1 12.6 12.6 0 01-2.5 2l3.4 2-1.8 1-3.5-2a27.8 27.8 0 01-5 2 32.8 32.8 0 01-5.7 1l-1.8-3.2a14 14 0 001.5-.1 23.9 23.9 0 004.9-1.1 17.6 17.6 0 002.6-1l-5.3-3-.7.2-.7.2-3.7 1a16.6 16.6 0 01-3.2.4 10.8 10.8 0 01-2.7-.2 9.6 9.6 0 01-2.6-1 6.5 6.5 0 01-2.2-2 3.3 3.3 0 01-.6-2 3.8 3.8 0 01.9-2 9.7 9.7 0 012.1-2l-3.1-1.9 1.8-1 3.2 1.7a22.3 22.3 0 014.5-1.7 35.4 35.4 0 014.6-.8zm-9 5.6a3.8 3.8 0 002.3.5 15.4 15.4 0 003.2-.7l-5-3c-1.9 1.3-2 2.3-.5 3.2zm17.5 1.4a4 4 0 00-2.5-.4 20.2 20.2 0 00-3.5.8l5 2.8q3.2-2 1-3.2z" class="cls-6"/></g><g id="Coin-11" data-name="Coin"><ellipse cx="219.9" cy="272.1" class="cls-2" rx="46.5" ry="26.9"/><path d="M173.4 272.5v-12.3l9.2 8.2-9.2 4.1zM266.4 260.6v11.5l-4.7 5-2.3-13.2 7-3.3z" class="cls-2"/><ellipse cx="219.9" cy="260.6" class="cls-3" rx="46.5" ry="26.9"/><path d="M253.2 261.4c-.5 4.5-3.7 9-9.7 12.4a52 52 0 01-47.1 0c-6-3.4-9.2-7.9-9.7-12.4-.6-5.3 2.7-10.7 9.7-14.7a52 52 0 0147 0c7 4 10.3 9.4 9.8 14.7z" class="cls-4"/><path d="M253.2 261.4c-.5 4.5-3.7 9-9.7 12.4a52 52 0 01-47.1 0c-6-3.4-9.2-7.9-9.7-12.4.5-4.5 3.7-9 9.7-12.4a52 52 0 0147 0c6 3.4 9.3 7.9 9.8 12.4z" class="cls-5"/><path d="M219.4 255.1a7 7 0 00-1.2.1 32.2 32.2 0 00-4 .9 14.7 14.7 0 00-2 .8l5.3 3 1-.3a59 59 0 013.9-1.1 17 17 0 013.4-.6 12 12 0 013.2.2 10.3 10.3 0 013 1.2 6.1 6.1 0 012.3 2 2.8 2.8 0 01.3 2 4.7 4.7 0 01-1.2 2.1 13.4 13.4 0 01-2.4 2l3.4 2-1.9 1-3.4-2a28.4 28.4 0 01-5 2 34 34 0 01-5.7 1l-1.8-3.2a14 14 0 001.5 0 20.6 20.6 0 002.2-.5c.9-.1 1.7-.4 2.6-.6a19.8 19.8 0 002.7-1l-5.4-3.1-.7.2-.7.3a30 30 0 01-3.7 1 16.7 16.7 0 01-3.1.4 10.7 10.7 0 01-2.8-.3 9.3 9.3 0 01-2.6-1 6.5 6.5 0 01-2.2-1.9 3.2 3.2 0 01-.6-2 3.8 3.8 0 01.9-2.1 9.3 9.3 0 012.2-2l-3.2-1.8 1.9-1.1 3 1.8a23.4 23.4 0 014.7-1.7 32.8 32.8 0 014.6-.8zm-9 5.6a4 4 0 002.3.5 14.8 14.8 0 003.1-.7l-5-2.9c-1.8 1.2-2 2.2-.5 3.1zm17.5 1.5a4.1 4.1 0 00-2.5-.5 21.2 21.2 0 00-3.5.8l5 2.9q3.2-2 1-3.2z" class="cls-4"/><path d="M216.6 268.2a18 18 0 000-1.8l2 1.3-.9 1.4zM234.4 269.4v-1.8l-4.5.3 2.6 1.7 1.9-.2zM234.7 262.7v-1.8l-3.3 1.2 3.3.6zM221 262.6l1.1-1 3.9 2.7-.3.8-3-1.3zM210.9 257l5.1 3 1-.8-.7-.9a7 7 0 00-1.6-1.3c-.4 0-2.8-1.2-2.8-1.2zM219.4 255.1v-1.8l-2.3-.8-.5 1.4.1.7 2.7.5zM203.7 253.8V252l2.7.3-.8 1.7-1.9-.2zM203.8 260v-2h3.2l-.8 1.7-1.3 1.5z" class="cls-4"/><path d="M219.4 253.3a7.2 7.2 0 00-1.2.1 32.2 32.2 0 00-4 .9 16 16 0 00-2 .8l5.3 3 1-.3a59 59 0 013.9-1.1 17.9 17.9 0 013.4-.6 12.4 12.4 0 013.2.2 10 10 0 013 1.2 6 6 0 012.3 2 2.8 2.8 0 01.3 2 4.7 4.7 0 01-1.2 2.1 13.4 13.4 0 01-2.4 2l3.4 2-1.9 1-3.4-2a28.4 28.4 0 01-5 2 34 34 0 01-5.7 1l-1.8-3.2a14 14 0 001.5 0 23.4 23.4 0 004.8-1.1 19.8 19.8 0 002.7-1l-5.4-3.1-.6.2-.8.3a30 30 0 01-3.7 1 16.7 16.7 0 01-3.1.4 11.2 11.2 0 01-2.8-.3 9.6 9.6 0 01-2.5-1 6.4 6.4 0 01-2.2-1.9 3.1 3.1 0 01-.6-2 3.8 3.8 0 01.8-2.1 9.3 9.3 0 012.2-2l-3.2-1.8 1.9-1 3 1.7a22.7 22.7 0 014.7-1.6 32.8 32.8 0 014.6-.9zm-9 5.6a4 4 0 002.3.5 15.5 15.5 0 003.1-.7l-5-2.9c-1.8 1.2-2 2.2-.5 3.1zm17.5 1.5a4 4 0 00-2.5-.5 21.2 21.2 0 00-3.5.8l5 2.9c2.1-1.3 2.4-2.4 1-3.2z" class="cls-6"/></g><g id="Coin-12" data-name="Coin"><ellipse cx="222.9" cy="256" class="cls-2" rx="46.5" ry="26.9"/><path d="M176.4 256.4v-12.2l9.2 8.2-9.2 4zM269.4 244.5V256l-4.7 5-2.3-13.2 7-3.3z" class="cls-2"/><ellipse cx="222.9" cy="244.5" class="cls-3" rx="46.5" ry="26.9"/><path d="M256.2 245.3c-.5 4.6-3.7 9-9.7 12.5a52 52 0 01-47.1 0c-6-3.5-9.2-8-9.7-12.5-.5-5.3 2.7-10.7 9.7-14.7a52 52 0 0147 0c7 4 10.3 9.4 9.8 14.7z" class="cls-4"/><path d="M256.2 245.3c-.5 4.6-3.7 9-9.7 12.5a52 52 0 01-47.1 0c-6-3.5-9.2-8-9.7-12.5.5-4.5 3.7-9 9.7-12.4a52 52 0 0147 0c6 3.5 9.3 8 9.8 12.4z" class="cls-5"/><path d="M222.4 239a7.3 7.3 0 00-1.2.1 32.2 32.2 0 00-4 .9 15.2 15.2 0 00-2 .8l5.3 3 1-.3 3.9-1.1a18.7 18.7 0 013.4-.6 12.5 12.5 0 013.2.2 10.3 10.3 0 013 1.2 6.1 6.1 0 012.3 2 2.7 2.7 0 01.4 2 4.6 4.6 0 01-1.3 2.1 12.6 12.6 0 01-2.4 2l3.4 2-1.9 1-3.4-2a28.6 28.6 0 01-5.1 2 34 34 0 01-5.6 1l-1.8-3.2a13.6 13.6 0 001.5-.1 23.5 23.5 0 004.8-1 18 18 0 002.6-1l-5.3-3-.7.2-.7.3-3.7 1a16.7 16.7 0 01-3.1.4 10.8 10.8 0 01-2.8-.3 9.4 9.4 0 01-2.5-1 6.5 6.5 0 01-2.3-1.9 3.3 3.3 0 01-.6-2 3.8 3.8 0 011-2.1 9.5 9.5 0 012-2l-3-1.8 1.8-1.1 3.1 1.8a22.5 22.5 0 014.6-1.7 36 36 0 014.6-.8zm-9 5.6a3.8 3.8 0 002.3.5 15.4 15.4 0 003.2-.7l-5-2.9c-1.9 1.2-2 2.3-.5 3.1zm17.5 1.5a4 4 0 00-2.5-.5 20.3 20.3 0 00-3.5.8l5 2.9q3.2-2 1-3.2z" class="cls-4"/><path d="M219.6 252.2v-1.8l2 1.3-1 1.3zM237.4 253.3v-1.8l-4.4.3 2.5 1.8 1.9-.3zM237.8 246.7v-1.8l-3.4 1.2 3.4.6zM224 246.6l1.1-1 3.9 2.6-.3.8-3-1.3zM213.9 240.9l5.1 3 1-.8-.6-.8a6.7 6.7 0 00-1.6-1.4c-.4 0-2.9-1.2-2.9-1.2zM222.4 239v-1.8l-2.3-.7-.5 1.4.1.6 2.7.5zM206.7 237.7v-1.8l2.8.3-.9 1.8-1.9-.3zM206.8 243.9V242h3.2l-.8 1.7-1.3 1.5z" class="cls-4"/><path d="M222.4 237.2a7.3 7.3 0 00-1.2.1 20.8 20.8 0 00-4 1 16.6 16.6 0 00-2 .7l5.3 3 1-.2 3.9-1.2a18.7 18.7 0 013.4-.6 13 13 0 013.2.2 10.4 10.4 0 013 1.2 6.1 6.1 0 012.3 2 2.7 2.7 0 01.4 2.1 4.6 4.6 0 01-1.3 2 13 13 0 01-2.4 2l3.4 2-1.9 1-3.4-2a27.8 27.8 0 01-5.1 2 33 33 0 01-5.6 1l-1.8-3.2h1.5c.7 0 1.4-.3 2.2-.5l2.6-.6a18 18 0 002.6-1l-5.3-3.1a8 8 0 01-.7.2l-.7.3-3.7 1a16.7 16.7 0 01-3.1.4 10.8 10.8 0 01-2.8-.3 9.1 9.1 0 01-2.5-1 6.6 6.6 0 01-2.3-1.9 3.3 3.3 0 01-.6-2 3.8 3.8 0 011-2.1 9.2 9.2 0 012-2l-3-1.8 1.8-1.1 3.1 1.8a22.5 22.5 0 014.6-1.7 34.3 34.3 0 014.6-.8zm-9 5.6a3.9 3.9 0 002.3.5 15.4 15.4 0 003.2-.7l-5-2.9c-1.9 1.2-2 2.3-.5 3.1zm17.5 1.5a4 4 0 00-2.5-.4 20.3 20.3 0 00-3.5.7l5 2.9c2.1-1.3 2.5-2.4 1-3.2z" class="cls-6"/></g><g id="Coin-13" data-name="Coin"><ellipse cx="220.9" cy="239.9" class="cls-2" rx="46.5" ry="26.9"/><path d="M174.4 240.3v-12.2l9.2 8.2-9.2 4zM267.4 228.4v11.5l-4.7 5-2.3-13.1 7-3.4z" class="cls-2"/><ellipse cx="220.9" cy="228.4" class="cls-3" rx="46.5" ry="26.9"/><path d="M254.2 229.3c-.5 4.5-3.7 9-9.7 12.4a52 52 0 01-47.1 0c-6-3.5-9.2-8-9.7-12.4-.5-5.3 2.7-10.7 9.7-14.8a52 52 0 0147 0c7 4 10.3 9.5 9.8 14.8z" class="cls-4"/><path d="M254.2 229.3c-.5 4.5-3.7 9-9.7 12.4a52 52 0 01-47.1 0c-6-3.5-9.2-8-9.7-12.4.5-4.6 3.7-9 9.7-12.5a52 52 0 0147 0c6 3.5 9.3 8 9.8 12.5z" class="cls-5"/><path d="M220.4 223a8.2 8.2 0 00-1.2 0 33.8 33.8 0 00-4 1 14.8 14.8 0 00-2 .8l5.3 3 1-.3 3.8-1.1a18 18 0 013.5-.6 12 12 0 013.2.2 10.3 10.3 0 013 1.2 6.1 6.1 0 012.3 2 2.7 2.7 0 01.3 2 4.5 4.5 0 01-1.2 2.1 13 13 0 01-2.4 2l3.4 2-2 1-3.3-2a27.1 27.1 0 01-5.1 2 33.7 33.7 0 01-5.7 1l-1.8-3.2 1.6-.1a30.4 30.4 0 004.8-1 17.6 17.6 0 002.6-1l-5.3-3.1-.7.2-.7.2c-1.4.5-2.6.8-3.7 1a16.6 16.6 0 01-3.1.5 10.8 10.8 0 01-2.8-.3 9.5 9.5 0 01-2.6-1 6.7 6.7 0 01-2.2-2 3.3 3.3 0 01-.6-2 3.8 3.8 0 01.9-2 9.7 9.7 0 012.1-2l-3.1-1.9 1.9-1 3 1.8a22.3 22.3 0 014.7-1.7 32.3 32.3 0 014.6-.8zm-9 5.6a3.9 3.9 0 002.3.5 15.4 15.4 0 003.2-.7l-5-3c-1.9 1.3-2 2.3-.5 3.2zm17.5 1.4a4 4 0 00-2.5-.4 20.1 20.1 0 00-3.5.7l5 2.9c2.1-1.3 2.4-2.3 1-3.2z" class="cls-4"/><path d="M217.6 236v-1.7l2 1.3-1 1.4zM235.4 237.2v-1.8l-4.5.4 2.6 1.7 1.9-.3zM235.7 230.6v-1.8l-3.3 1.2 3.3.6zM222 230.5l1.1-1 3.9 2.7-.3.7-3-1.3-1.7-1zM211.9 224.8l5.1 3 1-.8-.6-.8a6.7 6.7 0 00-1.6-1.4c-.4 0-2.9-1.1-2.9-1.1zM220.4 223v-1.8l-2.3-.8-.5 1.4.1.7 2.7.5zM204.7 221.7v-1.8l2.8.3-.9 1.7-1.9-.2zM204.8 227.8v-1.9h3.2l-.8 1.7-1.3 1.5z" class="cls-4"/><path d="M220.4 221.2a7.3 7.3 0 00-1.2 0 33.8 33.8 0 00-4 1 14.8 14.8 0 00-2 .7l5.3 3.1 1-.3 3.8-1.2a17.2 17.2 0 013.5-.5 12 12 0 013.2.2 10 10 0 013 1.2 6.1 6.1 0 012.3 2 2.7 2.7 0 01.3 2 4.6 4.6 0 01-1.2 2.1 13 13 0 01-2.5 2l3.4 2-1.8 1-3.5-2a27.9 27.9 0 01-5 2 33.7 33.7 0 01-5.7 1l-1.8-3.2a14 14 0 001.5-.1 21 21 0 002.3-.4l2.6-.7a18.8 18.8 0 002.6-1l-5.3-3-.7.2-.7.2c-1.4.5-2.6.8-3.7 1a16.6 16.6 0 01-3.1.5 10.8 10.8 0 01-2.8-.3 9.3 9.3 0 01-2.5-1 6.5 6.5 0 01-2.3-1.9 3.2 3.2 0 01-.6-2 3.8 3.8 0 011-2.1 9.7 9.7 0 012-2l-3-1.8 1.8-1.1 3.1 1.8a23 23 0 014.6-1.7 32.3 32.3 0 014.6-.8zm-9 5.6a3.9 3.9 0 002.3.5 14.9 14.9 0 003.2-.7l-5-3c-1.9 1.3-2 2.3-.5 3.2zm17.5 1.4a4 4 0 00-2.5-.4 21.2 21.2 0 00-3.5.8l5 2.8c2.1-1.3 2.4-2.3 1-3.2z" class="cls-6"/></g><g id="Coin-14" data-name="Coin"><ellipse cx="223.9" cy="223.9" class="cls-2" rx="46.5" ry="26.9"/><path d="M177.5 224.3v-12.2l9.1 8.1-9.1 4.1zM270.4 212.4v11.5l-4.7 5-2.3-13.2 7-3.3z" class="cls-2"/><ellipse cx="223.9" cy="212.4" class="cls-3" rx="46.5" ry="26.9"/><path d="M257.2 213.2c-.5 4.5-3.7 9-9.7 12.4a52 52 0 01-47.1 0c-6-3.4-9.2-7.9-9.7-12.4-.5-5.3 2.7-10.7 9.7-14.7a52 52 0 0147 0c7 4 10.3 9.4 9.8 14.7z" class="cls-4"/><path d="M257.2 213.2c-.5 4.5-3.7 9-9.7 12.4a52 52 0 01-47.1 0c-6-3.4-9.2-7.9-9.7-12.4.5-4.5 3.7-9 9.7-12.4a52 52 0 0147 0c6 3.4 9.3 7.9 9.8 12.4z" class="cls-5"/><path d="M223.4 207a7.3 7.3 0 00-1.2 0 33.8 33.8 0 00-4 .9 16.8 16.8 0 00-2 .8l5.3 3 1-.3 3.9-1.1a18 18 0 013.4-.6 12.4 12.4 0 013.2.2 10 10 0 013 1.2 6 6 0 012.3 2 2.8 2.8 0 01.4 2.1 4.7 4.7 0 01-1.3 2 13 13 0 01-2.4 2l3.4 2-1.9 1-3.4-2a28.4 28.4 0 01-5.1 2 34 34 0 01-5.6 1l-1.8-3.2a14 14 0 001.5-.1 23.4 23.4 0 004.8-1 18.8 18.8 0 002.6-1l-5.3-3.1-.7.2-.7.2c-1.3.5-2.6.8-3.7 1a16.8 16.8 0 01-3.1.4 11.3 11.3 0 01-2.8-.2 9.6 9.6 0 01-2.5-1 6.6 6.6 0 01-2.3-2 3.3 3.3 0 01-.6-2 4 4 0 011-2 9.5 9.5 0 012-2l-3-1.9 1.8-1 3.1 1.7a22.3 22.3 0 014.6-1.6 32.8 32.8 0 014.6-.9zm-9 5.5a4 4 0 002.3.5 15.6 15.6 0 003.2-.7l-5-2.9c-1.9 1.2-2 2.3-.5 3.1zm17.5 1.5a4 4 0 00-2.5-.5 21.2 21.2 0 00-3.5.8l5 2.9c2.1-1.3 2.5-2.4 1-3.2z" class="cls-4"/><path d="M220.6 220v-1.8l2 1.3-1 1.4zM238.4 221.2v-1.8l-4.4.3 2.5 1.7 1.9-.2zM238.8 214.6v-1.9l-3.4 1.2 3.4.7zM225 214.5l1.1-1.1 3.9 2.7-.3.8-3-1.3-1.7-1.1zM214.9 208.8l5.1 2.9 1-.8-.6-.8a6.8 6.8 0 00-1.6-1.3l-2.9-1.2zM223.4 206.9v-1.8l-2.3-.8-.5 1.5.1.6 2.7.5zM207.7 205.6v-1.8l2.8.3-.9 1.7-1.9-.2zM207.8 211.7V210h3.2l-.8 1.6-1.3 1.5z" class="cls-4"/><path d="M223.4 205.1a7.3 7.3 0 00-1.2.1 33.8 33.8 0 00-4 .9 15.3 15.3 0 00-2 .8l5.3 3 1-.3a68 68 0 013.9-1.1 18.7 18.7 0 013.4-.6 12.4 12.4 0 013.2.2 10 10 0 013 1.2 6.2 6.2 0 012.3 2 2.8 2.8 0 01.4 2 4.7 4.7 0 01-1.3 2.2 13 13 0 01-2.4 1.9l3.4 2-1.9 1-3.4-2a28.4 28.4 0 01-5 2 33 33 0 01-5.7 1l-1.8-3.2a13.3 13.3 0 001.5 0 23.6 23.6 0 004.9-1.1 18.8 18.8 0 002.6-1l-5.4-3.1-.7.3-.7.2-3.7 1a16.8 16.8 0 01-3.1.4 10.4 10.4 0 01-2.8-.3 9.2 9.2 0 01-2.5-1 6.7 6.7 0 01-2.3-1.9 3.3 3.3 0 01-.6-2 3.9 3.9 0 011-2.1 9.5 9.5 0 012-2l-3-1.8 1.8-1.1 3.1 1.8a22.3 22.3 0 014.6-1.7 34.3 34.3 0 014.6-.8zm-9 5.6a3.8 3.8 0 002.3.5 15.5 15.5 0 003.2-.7l-5-2.9c-1.9 1.2-2 2.2-.5 3.1zm17.5 1.5a4 4 0 00-2.5-.5 20.2 20.2 0 00-3.5.8l5 2.9q3.2-2 1-3.2z" class="cls-6"/></g><g id="Coin-15" data-name="Coin"><ellipse cx="219.7" cy="449.4" class="cls-2" rx="46.5" ry="26.9"/><path d="M173.2 449.8v-12.2l9.2 8.1-9.2 4.1zM266.2 437.9v11.5l-4.7 5-2.3-13.2 7-3.3z" class="cls-2"/><ellipse cx="219.7" cy="437.9" class="cls-3" rx="46.5" ry="26.9"/><path d="M253 438.7c-.5 4.5-3.7 9-9.7 12.4a52 52 0 01-47 0c-6-3.4-9.3-7.9-9.7-12.4-.6-5.3 2.6-10.7 9.6-14.7a52 52 0 0147.1 0c7 4 10.2 9.4 9.7 14.7z" class="cls-4"/><path d="M253 438.7c-.5 4.5-3.7 9-9.7 12.4a52 52 0 01-47 0c-6-3.4-9.3-7.9-9.7-12.4.4-4.5 3.6-9 9.6-12.4a52 52 0 0147.1 0c6 3.4 9.2 7.9 9.7 12.4z" class="cls-5"/><path d="M219.2 432.4a7.3 7.3 0 00-1.2.1 32 32 0 00-4 .9 15.3 15.3 0 00-2 .8l5.3 3 1-.3a59 59 0 013.9-1.1 17 17 0 013.4-.6 12 12 0 013.2.2 10 10 0 013 1.2 6.2 6.2 0 012.3 2 2.8 2.8 0 01.4 2.1 4.7 4.7 0 01-1.3 2 13 13 0 01-2.4 2l3.4 2-1.9 1-3.4-2a28.4 28.4 0 01-5.1 2 34 34 0 01-5.7 1l-1.7-3.2a14 14 0 001.5 0 20.6 20.6 0 002.2-.5l2.6-.6a18.8 18.8 0 002.6-1l-5.3-3-.7.2-.7.2a30 30 0 01-3.7 1 16.7 16.7 0 01-3.1.4 10.7 10.7 0 01-2.8-.2 9.2 9.2 0 01-2.6-1 6.6 6.6 0 01-2.2-2 3.2 3.2 0 01-.6-2 4 4 0 01.9-2 9.5 9.5 0 012.2-2l-3.2-1.9 1.9-1 3 1.8a22.3 22.3 0 014.7-1.7 32.8 32.8 0 014.6-.8zm-9 5.6a4 4 0 002.3.5 15.6 15.6 0 003.1-.7l-5-3c-1.8 1.3-2 2.4-.4 3.2zm17.5 1.5a4 4 0 00-2.5-.5 21.2 21.2 0 00-3.5.8l5 2.8c2.1-1.2 2.5-2.3 1-3.1z" class="cls-4"/><path d="M216.4 445.5v-1.8l2 1.4-1 1.3zM234.2 446.7v-1.8l-4.5.3 2.6 1.7 1.9-.2zM234.5 440.1v-1.9l-3.3 1.2 3.3.7zM220.8 440l1.1-1 4 2.6-.3.8-3-1.3a17 17 0 00-1.8-1.1zM210.7 434.3l5.1 3 1-.9-.6-.8a6.8 6.8 0 00-1.6-1.3c-.4 0-2.9-1.2-2.9-1.2zM219.2 432.4v-1.8l-2.3-.7-.5 1.4.1.6 2.7.5zM203.5 431.1v-1.8l2.8.3-.9 1.8-1.9-.3zM203.6 437.2v-1.8h3.2l-.8 1.6-1.4 1.5z" class="cls-4"/><path d="M219.2 430.6a7.3 7.3 0 00-1.2.1 32 32 0 00-4 .9 15.3 15.3 0 00-2 .8l5.3 3 1-.3 3.9-1.1a18.5 18.5 0 013.4-.6 12.4 12.4 0 013.2.2 10.2 10.2 0 013 1.2 6.2 6.2 0 012.3 2 2.8 2.8 0 01.4 2.1 4.7 4.7 0 01-1.3 2.1 12.6 12.6 0 01-2.4 2l3.4 2-1.9 1-3.4-2a28.4 28.4 0 01-5.1 2 33 33 0 01-5.7 1l-1.7-3.2a14 14 0 001.5-.1 23.4 23.4 0 004.8-1.1 17.6 17.6 0 002.6-1l-5.3-3-.7.2-.7.2-3.7 1a16.7 16.7 0 01-3.1.4 10.7 10.7 0 01-2.8-.2 9.5 9.5 0 01-2.6-1 6.6 6.6 0 01-2.2-2 3.3 3.3 0 01-.6-2 3.9 3.9 0 01.9-2 9.5 9.5 0 012.2-2l-3.2-2 1.9-1 3 1.8a22.3 22.3 0 014.7-1.7 36 36 0 014.6-.8zm-9 5.6a3.8 3.8 0 002.3.5 15.5 15.5 0 003.1-.7l-5-2.9c-1.8 1.2-2 2.3-.4 3.1zm17.5 1.5a4 4 0 00-2.5-.5 20.2 20.2 0 00-3.5.8l5 2.9c2.1-1.3 2.5-2.4 1-3.2z" class="cls-6"/></g><g id="Coin-16" data-name="Coin"><ellipse cx="219.7" cy="434.3" class="cls-2" rx="46.5" ry="26.9"/><path d="M173.2 434.7v-12.2l9.2 8.2-9.2 4zM266.2 422.8v11.5l-4.7 5-2.3-13.2 7-3.3z" class="cls-2"/><ellipse cx="219.7" cy="422.8" class="cls-3" rx="46.5" ry="26.9"/><path d="M253 423.6c-.5 4.6-3.7 9-9.7 12.5a52 52 0 01-47 0c-6-3.5-9.3-8-9.7-12.5-.6-5.2 2.6-10.7 9.6-14.7a52 52 0 0147.1 0c7 4.1 10.2 9.5 9.7 14.8z" class="cls-4"/><path d="M253 423.6c-.5 4.6-3.7 9-9.7 12.5a52 52 0 01-47 0c-6-3.5-9.3-8-9.7-12.5.4-4.5 3.6-9 9.6-12.4a52 52 0 0147.1 0c6 3.5 9.2 8 9.7 12.4z" class="cls-5"/><path d="M219.2 417.4a7.3 7.3 0 00-1.2 0 32 32 0 00-4 1 15.3 15.3 0 00-2 .7l5.3 3.1 1-.3a59 59 0 013.9-1.2 17 17 0 013.4-.5 12 12 0 013.2.2 10 10 0 013 1.2 6.2 6.2 0 012.3 2 2.8 2.8 0 01.4 2 4.7 4.7 0 01-1.3 2.1 13 13 0 01-2.4 2l3.4 2-1.9 1-3.4-2a28.4 28.4 0 01-5.1 2 34 34 0 01-5.7 1l-1.7-3.2a14 14 0 001.5-.1 20.6 20.6 0 002.2-.4l2.6-.7a18.8 18.8 0 002.6-1l-5.3-3-.7.2-.7.2a30 30 0 01-3.7 1 16.7 16.7 0 01-3.1.5 10.7 10.7 0 01-2.8-.3 9.2 9.2 0 01-2.6-1 6.6 6.6 0 01-2.2-2 3.2 3.2 0 01-.6-2 4 4 0 01.9-2 9.5 9.5 0 012.2-2l-3.2-1.9 1.9-1 3 1.8a22.3 22.3 0 014.7-1.7 32.8 32.8 0 014.6-.9zm-9 5.6a4 4 0 002.3.5 15.6 15.6 0 003.1-.7l-5-3c-1.8 1.3-2 2.3-.4 3.2zm17.5 1.5a4 4 0 00-2.5-.5 21.2 21.2 0 00-3.5.8l5 2.8c2.1-1.3 2.5-2.3 1-3.2z" class="cls-4"/><path d="M216.4 430.5v-1.8l2 1.3-1 1.4zM234.2 431.6v-1.8l-4.5.3 2.6 1.8 1.9-.3zM234.5 425v-1.8l-3.3 1.2 3.3.6zM220.8 425l1.1-1.1 4 2.6-.3.8-3-1.3a17 17 0 00-1.8-1zM210.7 419.2l5.1 3 1-.8-.6-.8a6.8 6.8 0 00-1.6-1.4c-.4 0-2.9-1.1-2.9-1.1zM219.2 417.4v-1.8l-2.3-.8-.5 1.4.1.7 2.7.5zM203.5 416.1v-1.8l2.8.3-.9 1.7-1.9-.2zM203.6 422.2v-1.9h3.2l-.8 1.7-1.4 1.5z" class="cls-4"/><path d="M219.2 415.6a7.3 7.3 0 00-1.2 0 32 32 0 00-4 1 15.3 15.3 0 00-2 .7l5.3 3.1 1-.3 3.9-1.2a18.5 18.5 0 013.4-.5 12.4 12.4 0 013.2.2 10.2 10.2 0 013 1.2 6.2 6.2 0 012.3 2 2.8 2.8 0 01.4 2 4.7 4.7 0 01-1.3 2.1 12.6 12.6 0 01-2.4 2l3.4 2-1.9 1-3.4-2a28.4 28.4 0 01-5.1 2 33 33 0 01-5.7 1l-1.7-3.2a14 14 0 001.5-.2 27 27 0 004.8-1 18.8 18.8 0 002.6-1l-5.3-3-.7.2-.7.2c-1.4.5-2.6.8-3.7 1a16.7 16.7 0 01-3.1.5 10.3 10.3 0 01-2.8-.3 9.2 9.2 0 01-2.6-1 6.6 6.6 0 01-2.2-2 3.3 3.3 0 01-.6-2 3.9 3.9 0 01.9-2 9.5 9.5 0 012.2-2l-3.2-1.9 1.9-1 3 1.8a22.3 22.3 0 014.7-1.7 36 36 0 014.6-.9zm-9 5.6a3.8 3.8 0 002.3.5 15.5 15.5 0 003.1-.7l-5-3c-1.8 1.3-2 2.3-.4 3.2zm17.5 1.4a4 4 0 00-2.5-.4 20.2 20.2 0 00-3.5.8l5 2.8c2.1-1.3 2.5-2.3 1-3.2z" class="cls-6"/></g><g id="Coin-17" data-name="Coin"><ellipse cx="222.7" cy="417.3" class="cls-2" rx="46.5" ry="26.9"/><path d="M176.3 417.7v-12.3l9.1 8.2-9.1 4.1zM269.2 405.8v11.5l-4.7 4.9-2.3-13.1 7-3.3z" class="cls-2"/><ellipse cx="222.7" cy="405.8" class="cls-3" rx="46.5" ry="26.9"/><path d="M256 406.6c-.5 4.5-3.7 9-9.7 12.4a52 52 0 01-47 0c-6-3.4-9.3-7.9-9.7-12.4-.6-5.3 2.6-10.7 9.6-14.8a52 52 0 0147.1 0c7 4 10.2 9.5 9.7 14.8z" class="cls-4"/><path d="M256 406.6c-.5 4.5-3.7 9-9.7 12.4a52 52 0 01-47 0c-6-3.4-9.3-7.9-9.7-12.4.4-4.5 3.6-9 9.6-12.5a52 52 0 0147.1 0c6 3.5 9.2 8 9.7 12.5z" class="cls-5"/><path d="M222.3 400.3a7 7 0 00-1.3 0 32.2 32.2 0 00-4 1 15.3 15.3 0 00-2 .8l5.3 3 1-.3a59 59 0 013.9-1.1 17 17 0 013.4-.6 12 12 0 013.2.2 10.3 10.3 0 013 1.2 6.1 6.1 0 012.4 2 2.8 2.8 0 01.3 2 4.7 4.7 0 01-1.2 2.1 13.2 13.2 0 01-2.5 2l3.4 2-1.8 1-3.5-2a28.4 28.4 0 01-5 2 34 34 0 01-5.7 1l-1.8-3.2a14 14 0 001.5-.1 20.6 20.6 0 002.3-.4 36 36 0 002.6-.7 19.4 19.4 0 002.6-1l-5.4-3-.7.2-.7.3a30 30 0 01-3.7 1 16.7 16.7 0 01-3.1.4 10.7 10.7 0 01-2.8-.3 9.3 9.3 0 01-2.6-1 6.5 6.5 0 01-2.2-1.9 3.2 3.2 0 01-.6-2 4 4 0 01.9-2.1 9.6 9.6 0 012.2-2l-3.2-1.8 1.9-1 3 1.7a23 23 0 014.7-1.6 32.8 32.8 0 014.6-.9zm-9.1 5.6a4 4 0 002.3.5 14.8 14.8 0 003.2-.7l-5-3c-1.9 1.3-2 2.3-.5 3.2zm17.5 1.5a4.1 4.1 0 00-2.5-.5 21.2 21.2 0 00-3.5.8l5 2.9c2.1-1.3 2.5-2.4 1-3.2z" class="cls-4"/><path d="M219.4 413.4v-1.8l2 1.3-1 1.4zM237.2 414.6v-1.8l-4.4.3 2.5 1.7 1.9-.2zM237.6 407.9v-1.8l-3.4 1.2 3.4.6zM223.8 407.8l1.1-1 4 2.7-.3.8-3-1.3-1.8-1.2zM213.7 402.2l5.1 2.9 1-.8-.7-.8a6.6 6.6 0 00-1.6-1.3l-2.8-1.2zM222.3 400.3v-1.8l-2.4-.8-.5 1.4.1.7 2.8.5zM206.5 399v-1.8l2.8.3-.9 1.7-1.9-.2zM206.6 405.1v-1.9h3.2l-.8 1.7-1.4 1.5z" class="cls-4"/><path d="M222.3 398.5a7.2 7.2 0 00-1.3 0 32.2 32.2 0 00-4 1 15.3 15.3 0 00-2 .8l5.3 3 1-.3 3.9-1.1a17.9 17.9 0 013.4-.6 12.4 12.4 0 013.2.2 10 10 0 013 1.2 6 6 0 012.4 2 2.8 2.8 0 01.3 2 4.7 4.7 0 01-1.2 2.1 13.2 13.2 0 01-2.5 2l3.4 2-1.8 1-3.5-2a29.2 29.2 0 01-5 2 34 34 0 01-5.7 1l-1.8-3.2a14 14 0 001.5-.1 23.4 23.4 0 004.9-1 19.4 19.4 0 002.6-1l-5.4-3.1-.7.2-.7.3a30 30 0 01-3.7 1 16.7 16.7 0 01-3.1.4 11.2 11.2 0 01-2.8-.3 9.6 9.6 0 01-2.6-1 6.4 6.4 0 01-2.2-1.9 3.2 3.2 0 01-.6-2 4 4 0 01.9-2.1 9.5 9.5 0 012.2-2l-3.2-1.8 1.9-1.1 3 1.8a22.3 22.3 0 014.7-1.7 32.8 32.8 0 014.6-.8zm-9.1 5.6a3.8 3.8 0 002.3.5 14.7 14.7 0 003.2-.7l-5-3q-2.8 1.9-.5 3.2zm17.5 1.5a4 4 0 00-2.5-.5 20.2 20.2 0 00-3.5.8l5 2.9c2.1-1.3 2.5-2.4 1-3.2z" class="cls-6"/></g><g id="Coin-18" data-name="Coin"><ellipse cx="221.7" cy="400.2" class="cls-2" rx="46.5" ry="26.9"/><path d="M175.3 400.6v-12.2l9.1 8.2-9.1 4zM268.2 388.7v11.5l-4.7 5-2.3-13.2 7-3.3z" class="cls-2"/><ellipse cx="221.7" cy="388.7" class="cls-3" rx="46.5" ry="26.9"/><path d="M255 389.5c-.5 4.5-3.7 9-9.7 12.4a52 52 0 01-47 0c-6-3.4-9.3-7.9-9.7-12.4-.6-5.3 2.6-10.7 9.6-14.7a52 52 0 0147.1 0c7 4 10.2 9.4 9.7 14.7z" class="cls-4"/><path d="M255 389.5c-.5 4.5-3.7 9-9.7 12.4a52 52 0 01-47 0c-6-3.4-9.3-7.9-9.7-12.4.4-4.5 3.6-9 9.6-12.4a52 52 0 0147.1 0c6 3.4 9.2 7.9 9.7 12.4z" class="cls-5"/><path d="M221.2 383.2a8.2 8.2 0 00-1.2.1 33.8 33.8 0 00-4 .9 15.3 15.3 0 00-2 .8l5.3 3 1-.3 3.8-1.1a18 18 0 013.5-.6 12 12 0 013.2.2 10.3 10.3 0 013 1.2 6 6 0 012.3 2 2.7 2.7 0 01.3 2.1 4.5 4.5 0 01-1.2 2 13 13 0 01-2.4 2l3.3 2-1.8 1-3.4-2a27.7 27.7 0 01-5.1 2 34 34 0 01-5.7 1l-1.7-3.1c.3 0 .8 0 1.5-.2l2.2-.3c.8-.1 1.7-.4 2.6-.7a17.6 17.6 0 002.6-1l-5.3-3-.7.2-.7.2-3.7 1a16.8 16.8 0 01-3.1.4 10.8 10.8 0 01-2.8-.2 9.5 9.5 0 01-2.6-1 6.8 6.8 0 01-2.2-2 3.3 3.3 0 01-.6-2 3.9 3.9 0 01.9-2 9.7 9.7 0 012.1-2l-3.1-2 1.9-1 3 1.8a22.3 22.3 0 014.7-1.7 32.3 32.3 0 014.6-.8zm-9 5.6a4 4 0 002.3.5 15.5 15.5 0 003.2-.7l-5-2.9c-1.9 1.2-2 2.3-.5 3.1zm17.5 1.5a4 4 0 00-2.5-.4 20.1 20.1 0 00-3.5.7l5 2.9c2.1-1.3 2.5-2.4 1-3.2z" class="cls-4"/><path d="M218.4 396.3v-1.8l2 1.3-1 1.4zM236.2 397.5v-1.8l-4.4.3 2.5 1.8 1.9-.3zM236.5 390.9V389l-3.3 1.2 3.3.7zM222.8 390.8l1.1-1 4 2.6-.3.8-3-1.3-1.8-1.1zM212.7 385l5.1 3 1-.8-.6-.8a6.7 6.7 0 00-1.6-1.3c-.4 0-2.9-1.2-2.9-1.2zM221.2 383.2v-1.8l-2.3-.8-.5 1.5.1.6 2.7.5zM205.5 381.9v-1.8l2.8.3-.9 1.8-1.9-.3zM205.6 388v-1.9h3.2l-.8 1.7-1.4 1.5z" class="cls-4"/><path d="M221.2 381.4a7.3 7.3 0 00-1.2.1 33.8 33.8 0 00-4 .9 15.3 15.3 0 00-2 .8l5.3 3 1-.3 3.8-1.1a17.2 17.2 0 013.5-.6 12 12 0 013.2.2 10 10 0 013 1.2 6 6 0 012.3 2 2.7 2.7 0 01.3 2.1 4.6 4.6 0 01-1.2 2 13 13 0 01-2.5 2l3.4 2-1.8 1-3.5-2a28.4 28.4 0 01-5 2 34 34 0 01-5.7 1l-1.8-3.2a14 14 0 001.5 0 21 21 0 002.3-.5l2.6-.6a18.8 18.8 0 002.6-1l-5.3-3-.7.2-.7.2-3.7 1a16.8 16.8 0 01-3.1.4 10.8 10.8 0 01-2.8-.2 9.3 9.3 0 01-2.6-1 6.6 6.6 0 01-2.2-2 3.2 3.2 0 01-.6-2 4 4 0 01.9-2 9.7 9.7 0 012.2-2l-3.2-1.9 1.9-1 3 1.8a23 23 0 014.7-1.7 32.3 32.3 0 014.6-.8zm-9 5.6a4 4 0 002.3.5 15 15 0 003.2-.7l-5-3c-1.9 1.3-2 2.4-.5 3.2zm17.5 1.5a4 4 0 00-2.5-.5 21.2 21.2 0 00-3.5.8l5 2.8c2.1-1.2 2.5-2.3 1-3.1z" class="cls-6"/></g><g id="Coin-19" data-name="Coin"><ellipse cx="52.1" cy="460.9" class="cls-2" rx="46.5" ry="26.9"/><path d="M5.6 461.3V449l9.2 8.2-9.2 4.1zM98.6 449.4v11.5l-4.7 5-2.3-13.2 7-3.3z" class="cls-2"/><ellipse cx="52.1" cy="449.4" class="cls-3" rx="46.5" ry="26.9"/><path d="M85.3 450.2c-.5 4.5-3.7 9-9.7 12.4a52 52 0 01-47 0c-6-3.4-9.3-7.9-9.7-12.4-.6-5.3 2.6-10.7 9.6-14.7a52 52 0 0147.1 0c7 4 10.3 9.4 9.7 14.7z" class="cls-4"/><path d="M85.3 450.2c-.5 4.5-3.7 9-9.7 12.4a52 52 0 01-47 0c-6-3.4-9.3-7.9-9.7-12.4.4-4.5 3.6-9 9.6-12.4a52 52 0 0147.1 0c6 3.4 9.2 7.9 9.7 12.4z" class="cls-5"/><path d="M51.6 443.9a7.3 7.3 0 00-1.2.1 33.8 33.8 0 00-4 .9 15.3 15.3 0 00-2 .8l5.3 3 1-.3 3.8-1.1a17.2 17.2 0 013.5-.6 12 12 0 013.2.2 10 10 0 013 1.2 6.2 6.2 0 012.3 2 2.7 2.7 0 01.3 2 4.6 4.6 0 01-1.3 2.1 13 13 0 01-2.4 2l3.4 2-1.8 1-3.5-2a28.4 28.4 0 01-5 2 34 34 0 01-5.7 1l-1.8-3.2a14 14 0 001.5-.1 21 21 0 002.2-.4l2.7-.7a18.8 18.8 0 002.6-1l-5.3-3-.7.2-.8.2c-1.3.5-2.5.8-3.6 1a16.8 16.8 0 01-3.2.4 10.8 10.8 0 01-2.8-.2 9.3 9.3 0 01-2.5-1 6.6 6.6 0 01-2.2-2 3.2 3.2 0 01-.6-2 4 4 0 01.8-2 9.7 9.7 0 012.2-2l-3.1-1.9 1.8-1 3.1 1.7a23 23 0 014.6-1.6 32.6 32.6 0 014.6-.9zm-9.1 5.6a4 4 0 002.3.5 15 15 0 003.2-.7l-5-2.9c-1.8 1.2-2 2.2-.5 3.1zM60 451a4 4 0 00-2.5-.5 21.2 21.2 0 00-3.4.8l5 2.9c2-1.3 2.4-2.4 1-3.2z" class="cls-4"/><path d="M48.7 457v-1.8l2 1.3-.9 1.4zM66.5 458.2v-1.8l-4.4.3 2.5 1.7 1.9-.2zM66.9 451.5v-1.8l-3.3 1.2 3.3.6zM53.2 451.4l1-1 4 2.7-.3.8-3-1.3-1.7-1.2zM43 445.8l5.2 2.9 1-.8-.7-.8a6.8 6.8 0 00-1.6-1.3l-2.8-1.2zM51.6 443.9v-1.8l-2.4-.8-.5 1.5.1.6 2.8.5zM35.9 442.6v-1.8l2.7.3-.9 1.7-1.8-.2zM36 448.7v-1.9h3.1l-.8 1.7L37 450z" class="cls-4"/><path d="M51.6 442.1a7.3 7.3 0 00-1.2.1 33.8 33.8 0 00-4 .9 15.3 15.3 0 00-2 .8l5.3 3.1 1-.3a61 61 0 013.8-1.2 18.7 18.7 0 013.5-.6 12.4 12.4 0 013.2.3 10.2 10.2 0 013 1.1 6.2 6.2 0 012.3 2 2.7 2.7 0 01.3 2.1 4.6 4.6 0 01-1.3 2 12.6 12.6 0 01-2.4 2l3.4 2-1.8 1-3.5-2a28.4 28.4 0 01-5 2 33 33 0 01-5.7 1l-1.8-3.1a14 14 0 001.5-.2 23.9 23.9 0 004.9-1 17.6 17.6 0 002.6-1l-5.3-3.1-.7.2-.8.3-3.6 1a16.8 16.8 0 01-3.2.4 10.8 10.8 0 01-2.8-.3 9.6 9.6 0 01-2.5-1 6.6 6.6 0 01-2.2-1.9 3.3 3.3 0 01-.6-2 3.9 3.9 0 01.8-2.1 9.7 9.7 0 012.2-2l-3.1-1.8 1.8-1.1 3.1 1.8a22.3 22.3 0 014.6-1.7 35.7 35.7 0 014.6-.8zm-9.1 5.6a3.8 3.8 0 002.3.5 15.5 15.5 0 003.2-.7l-5-2.9c-1.8 1.2-2 2.2-.5 3.1zm17.6 1.5a4 4 0 00-2.6-.5 20.2 20.2 0 00-3.4.8l5 2.9q3.1-2 1-3.2z" class="cls-6"/></g><g id="Coin-20" data-name="Coin"><ellipse cx="402.3" cy="467.9" class="cls-2" rx="46.5" ry="26.9"/><path d="M355.8 468.3V456l9.2 8.2-9.2 4.1zM448.8 456.4v11.5l-4.7 5-2.3-13.2 7-3.3z" class="cls-2"/><ellipse cx="402.3" cy="456.4" class="cls-3" rx="46.5" ry="26.9"/><path d="M435.5 457.2c-.5 4.5-3.7 9-9.7 12.4a52 52 0 01-47 0c-6-3.4-9.3-7.9-9.8-12.4-.5-5.3 2.7-10.7 9.7-14.7a52 52 0 0147.1 0c7 4 10.2 9.4 9.7 14.7z" class="cls-4"/><path d="M435.5 457.2c-.5 4.5-3.7 9-9.7 12.4a52 52 0 01-47 0c-6-3.4-9.3-7.9-9.8-12.4.5-4.5 3.7-9 9.7-12.4a52 52 0 0147.1 0c6 3.4 9.2 7.9 9.7 12.4z" class="cls-5"/><path d="M401.8 450.9a7.2 7.2 0 00-1.3.1 32.2 32.2 0 00-4 .9 15.2 15.2 0 00-2 .8l5.3 3 1-.3 3.9-1.1a18.6 18.6 0 013.5-.6 12.4 12.4 0 013.1.2 10.3 10.3 0 013 1.2 6.1 6.1 0 012.4 2 2.7 2.7 0 01.3 2 4.6 4.6 0 01-1.2 2.1 12.6 12.6 0 01-2.5 2l3.4 2-1.8 1-3.5-2a27.8 27.8 0 01-5 2 33 33 0 01-5.7 1L399 464a13.8 13.8 0 001.5-.1 23.4 23.4 0 004.9-1 18.5 18.5 0 002.6-1l-5.4-3.1-.6.2-.8.2c-1.3.5-2.5.8-3.7 1a16.7 16.7 0 01-3 .5 10.4 10.4 0 01-2.9-.3 9.3 9.3 0 01-2.5-1 6.4 6.4 0 01-2.2-2 3.2 3.2 0 01-.7-2 3.8 3.8 0 011-2 9.5 9.5 0 012-2l-3.1-1.8 1.9-1 3 1.7a22.8 22.8 0 014.7-1.7 36 36 0 014.5-.8zm-9.1 5.6a3.9 3.9 0 002.3.5 15.2 15.2 0 003.2-.7l-5-2.9c-1.9 1.2-2 2.2-.5 3.1zm17.5 1.5a4 4 0 00-2.5-.5 20.4 20.4 0 00-3.5.8l5 2.9q3.2-2 1-3.2z" class="cls-4"/><path d="M398.9 464v-1.8l2 1.3-.9 1.4zM416.7 465.2v-1.8l-4.4.3 2.5 1.7 1.9-.2zM417.1 458.5v-1.8l-3.3 1.2 3.3.6zM403.4 458.4l1-1 4 2.7-.3.8-3-1.3zM393.2 452.8l5.2 2.9 1-.8-.7-.8a6.5 6.5 0 00-1.6-1.3l-2.9-1.2zM401.8 450.9v-1.8l-2.4-.8-.5 1.4.1.7 2.8.5zM386 449.6v-1.8l2.8.3-.9 1.7-1.9-.2zM386.1 455.7v-1.9h3.2l-.8 1.7-1.4 1.5z" class="cls-4"/><path d="M401.8 449.1a7.2 7.2 0 00-1.3.1 20.8 20.8 0 00-4 .9 16.6 16.6 0 00-2 .8l5.3 3 1-.3 3.9-1.1a18.6 18.6 0 013.5-.6 12.4 12.4 0 013.1.2 10.3 10.3 0 013 1.2 6.1 6.1 0 012.4 2 2.7 2.7 0 01.3 2 4.5 4.5 0 01-1.2 2.1 12.7 12.7 0 01-2.5 2l3.4 2-1.8 1-3.5-2a27.1 27.1 0 01-5 2 34 34 0 01-5.7 1l-1.8-3.2 1.5-.1 2.3-.4 2.6-.7a18.4 18.4 0 002.6-1l-5.4-3-.6.2-.8.3c-1.3.4-2.5.8-3.7 1a16.7 16.7 0 01-3 .4 10.8 10.8 0 01-2.9-.3 9.6 9.6 0 01-2.5-1 6.5 6.5 0 01-2.2-1.9 3.2 3.2 0 01-.7-2 3.8 3.8 0 011-2.1 9.2 9.2 0 012-2l-3.1-1.8 1.9-1 3 1.7a22.8 22.8 0 014.7-1.7 34.3 34.3 0 014.5-.8zm-9.1 5.6a3.9 3.9 0 002.3.5 15.2 15.2 0 003.2-.7l-5-2.9c-1.9 1.2-2 2.2-.5 3.1zm17.5 1.5a4 4 0 00-2.5-.5 20.4 20.4 0 00-3.5.8l5 2.9c2.1-1.3 2.5-2.4 1-3.2z" class="cls-6"/></g><g id="Coin-21" data-name="Coin"><ellipse cx="402.3" cy="452.8" class="cls-2" rx="46.5" ry="26.9"/><path d="M355.8 453.2V441l9.2 8.2-9.2 4zM448.8 441.3v11.5l-4.7 5-2.3-13.2 7-3.3z" class="cls-2"/><ellipse cx="402.3" cy="441.3" class="cls-3" rx="46.5" ry="26.9"/><path d="M435.5 442.1c-.5 4.5-3.7 9-9.7 12.5a52 52 0 01-47 0c-6-3.5-9.3-8-9.8-12.5-.5-5.3 2.7-10.7 9.7-14.7a52 52 0 0147.1 0c7 4 10.2 9.4 9.7 14.7z" class="cls-4"/><path d="M435.5 442.1c-.5 4.5-3.7 9-9.7 12.5a52 52 0 01-47 0c-6-3.5-9.3-8-9.8-12.5.5-4.5 3.7-9 9.7-12.4a52 52 0 0147.1 0c6 3.5 9.2 8 9.7 12.4z" class="cls-5"/><path d="M401.8 435.8a7.2 7.2 0 00-1.3.1 32.2 32.2 0 00-4 1 15.2 15.2 0 00-2 .7l5.3 3 1-.3 3.9-1.1a18.6 18.6 0 013.5-.6 12.4 12.4 0 013.1.3 10.3 10.3 0 013 1.1 6.1 6.1 0 012.4 2 2.7 2.7 0 01.3 2.1 4.6 4.6 0 01-1.2 2 12.6 12.6 0 01-2.5 2l3.4 2-1.8 1-3.5-2a27.8 27.8 0 01-5 2 33 33 0 01-5.7 1L399 449a13.8 13.8 0 001.5-.1 27 27 0 004.9-1 19.8 19.8 0 002.6-1l-5.4-3.1-.6.2-.8.2c-1.3.5-2.5.8-3.7 1a16.7 16.7 0 01-3 .5 10.4 10.4 0 01-2.9-.3 9.3 9.3 0 01-2.5-1 6.4 6.4 0 01-2.2-2 3.2 3.2 0 01-.7-2 3.8 3.8 0 011-2 9.5 9.5 0 012-2l-3.1-1.9 1.9-1 3 1.8a22.8 22.8 0 014.7-1.7 36 36 0 014.5-.8zm-9.1 5.6a3.9 3.9 0 002.3.5 15.2 15.2 0 003.2-.7l-5-2.9c-1.9 1.2-2 2.3-.5 3.1zm17.5 1.5a4 4 0 00-2.5-.4 20.4 20.4 0 00-3.5.7l5 2.9q3.2-2 1-3.2z" class="cls-4"/><path d="M398.9 449v-1.8l2 1.3-.9 1.4zM416.7 450.1v-1.8l-4.4.3 2.5 1.8 1.9-.3zM417.1 443.5v-1.8l-3.3 1.2 3.3.6zM403.4 443.4l1-1 4 2.6-.3.8-3-1.3zM393.2 437.7l5.2 3 1-.8-.7-.9a6.7 6.7 0 00-1.6-1.3c-.4 0-2.9-1.2-2.9-1.2zM401.8 435.8V434l-2.4-.7-.5 1.4.1.6 2.8.5zM386 434.5v-1.8l2.8.3-.9 1.8-1.9-.3zM386.1 440.7v-2h3.2l-.8 1.8-1.4 1.5z" class="cls-4"/><path d="M401.8 434a7.2 7.2 0 00-1.3.1 20.8 20.8 0 00-4 .9 15.2 15.2 0 00-2 .8l5.3 3 1-.3 3.9-1.1a18.6 18.6 0 013.5-.6 12.4 12.4 0 013.1.2 10.3 10.3 0 013 1.2 6.1 6.1 0 012.4 2 2.7 2.7 0 01.3 2 4.5 4.5 0 01-1.2 2.1 12.7 12.7 0 01-2.5 2l3.4 2-1.8 1-3.5-2a27.1 27.1 0 01-5 2 34 34 0 01-5.7 1l-1.8-3.2 1.5-.1 2.3-.4 2.6-.7a18.4 18.4 0 002.6-1l-5.3-3-.7.2-.7.2c-1.4.5-2.6.8-3.7 1a16.7 16.7 0 01-3.2.5 10.8 10.8 0 01-2.7-.3 9.6 9.6 0 01-2.6-1 6.5 6.5 0 01-2.2-2 3.2 3.2 0 01-.6-2 3.8 3.8 0 01.9-2 9.2 9.2 0 012.1-2l-3.2-1.8 1.9-1 3 1.8a22.8 22.8 0 014.7-1.7 34.3 34.3 0 014.5-.8zm-9.1 5.6a3.9 3.9 0 002.3.5 15.2 15.2 0 003.2-.7l-5-2.9c-1.9 1.2-2 2.3-.5 3.1zm17.5 1.5a4 4 0 00-2.5-.5 20.3 20.3 0 00-3.5.8l5 2.9c2.1-1.3 2.5-2.4 1-3.2z" class="cls-6"/></g><g id="Coin-22" data-name="Coin"><ellipse cx="342.4" cy="381.5" class="cls-2" rx="46.5" ry="26.9"/><path d="M295.9 381.9v-12.2l9.2 8.2-9.2 4zM388.9 370v11.5l-4.7 5-2.3-13.2 7-3.3z" class="cls-2"/><ellipse cx="342.4" cy="370" class="cls-3" rx="46.5" ry="26.9"/><path d="M375.6 370.8c-.4 4.5-3.7 9-9.6 12.5a52 52 0 01-47.1 0c-6-3.5-9.2-8-9.7-12.5-.6-5.3 2.7-10.7 9.7-14.7a52 52 0 0147 0c7.1 4 10.3 9.4 9.7 14.7z" class="cls-4"/><path d="M375.6 370.8c-.4 4.5-3.7 9-9.6 12.5a52 52 0 01-47.1 0c-6-3.5-9.2-8-9.7-12.5.5-4.5 3.7-9 9.7-12.4a52 52 0 0147 0c6.1 3.5 9.3 8 9.7 12.4z" class="cls-5"/><path d="M342 364.5a7.2 7.2 0 00-1.3.1 32.2 32.2 0 00-4 1 15.2 15.2 0 00-2 .7l5.3 3.1 1-.3a59 59 0 013.9-1.2 17 17 0 013.4-.6 12 12 0 013.2.3 10 10 0 013 1.1 6.1 6.1 0 012.3 2 2.8 2.8 0 01.4 2.1 4.7 4.7 0 01-1.3 2 13.4 13.4 0 01-2.4 2l3.4 2-1.9 1-3.4-2a27.9 27.9 0 01-5.1 2 34 34 0 01-5.7 1l-1.8-3.2a14 14 0 001.5 0 20.6 20.6 0 002.3-.5l2.6-.6a19.8 19.8 0 002.6-1l-5.3-3.1-.7.2-.7.3-3.7 1a16.7 16.7 0 01-3.1.4 10.7 10.7 0 01-2.8-.3 9.3 9.3 0 01-2.6-1 6.4 6.4 0 01-2.2-1.9 3.1 3.1 0 01-.6-2 3.8 3.8 0 01.9-2.1 9.3 9.3 0 012.1-2l-3.1-1.8 1.9-1.1 3 1.8a22.7 22.7 0 014.7-1.7 32.8 32.8 0 014.5-.8zm-9.2 5.7a4 4 0 002.4.5 15.5 15.5 0 003.1-.8l-5-2.9c-1.8 1.2-2 2.3-.5 3.1zm17.6 1.4a4.1 4.1 0 00-2.5-.4 21.2 21.2 0 00-3.5.7l5 2.9c2.1-1.3 2.4-2.4 1-3.2z" class="cls-4"/><path d="M339 377.7a18 18 0 000-1.8l2.1 1.3-.9 1.3zM356.9 378.8V377l-4.5.3 2.6 1.8 1.9-.3zM357.2 372.2v-1.8l-3.3 1.2 3.3.6zM343.5 372l1.1-1 3.9 2.7-.2.8-3-1.3zM333.4 366.4l5.1 3 1-.8-.6-.8a7 7 0 00-1.6-1.4c-.4 0-2.9-1.2-2.9-1.2zM341.9 364.5v-1.8l-2.3-.7-.5 1.4.1.6 2.7.5zM326.2 363.2v-1.8l2.7.3-.8 1.8-1.9-.3zM326.3 369.4v-2h3.1l-.7 1.8-1.4 1.5z" class="cls-4"/><path d="M342 362.7a7.2 7.2 0 00-1.3.1 32.2 32.2 0 00-4 1 15.2 15.2 0 00-2 .7l5.3 3 1-.2 3.9-1.2a18.6 18.6 0 013.4-.6 12.4 12.4 0 013.2.3 10.3 10.3 0 013 1.1 6.1 6.1 0 012.4 2 2.8 2.8 0 01.3 2.1 4.7 4.7 0 01-1.3 2 13 13 0 01-2.4 2l3.4 2-1.9 1-3.4-2a27.8 27.8 0 01-5.1 2 33 33 0 01-5.7 1l-1.8-3.2a14 14 0 001.5 0 23.4 23.4 0 005-1.1 18.5 18.5 0 002.5-1l-5.3-3-.7.2-.7.2-3.7 1a16.7 16.7 0 01-3.1.4 10.3 10.3 0 01-2.8-.3 9.3 9.3 0 01-2.6-1 6.4 6.4 0 01-2.2-1.9 3.1 3.1 0 01-.6-2 3.8 3.8 0 01.9-2.1 9.3 9.3 0 012.1-2l-3.1-1.8 1.9-1.1 3 1.8a22.8 22.8 0 014.7-1.7 36 36 0 014.5-.8zm-9.2 5.6a3.9 3.9 0 002.4.5 15.3 15.3 0 003.1-.7l-5-2.9c-1.8 1.2-2 2.3-.5 3.1zm17.6 1.5a4 4 0 00-2.5-.4 20.2 20.2 0 00-3.5.7l5 2.9q3.2-2 1-3.2z" class="cls-6"/></g><g id="Coin-23" data-name="Coin"><ellipse cx="342.4" cy="366.4" class="cls-2" rx="46.5" ry="26.9"/><path d="M295.9 366.9v-12.3l9.2 8.2-9.2 4.1zM388.9 354.9v11.5l-4.7 5-2.3-13.1 7-3.4z" class="cls-2"/><ellipse cx="342.4" cy="354.9" class="cls-3" rx="46.5" ry="26.9"/><path d="M375.6 355.8c-.4 4.5-3.7 9-9.6 12.4a52 52 0 01-47.1 0c-6-3.5-9.2-8-9.7-12.4-.6-5.3 2.7-10.7 9.7-14.8a52 52 0 0147 0c7.1 4 10.3 9.5 9.7 14.8z" class="cls-4"/><path d="M375.6 355.8c-.4 4.5-3.7 9-9.6 12.4a52 52 0 01-47.1 0c-6-3.5-9.2-8-9.7-12.4.5-4.6 3.7-9 9.7-12.5a52 52 0 0147 0c6.1 3.5 9.3 8 9.7 12.5z" class="cls-5"/><path d="M342 349.5a7.2 7.2 0 00-1.3 0 32.2 32.2 0 00-4 1 15.2 15.2 0 00-2 .8l5.3 3 1-.3a59 59 0 013.9-1.1 17 17 0 013.4-.6 12 12 0 013.2.2 10 10 0 013 1.2 6.1 6.1 0 012.4 2 2.8 2.8 0 01.3 2 4.7 4.7 0 01-1.3 2.1 13.4 13.4 0 01-2.4 2l3.4 2-1.9 1-3.4-2a27.9 27.9 0 01-5.1 2 34 34 0 01-5.7 1l-1.8-3.2a14 14 0 001.5-.1 20.6 20.6 0 002.3-.4l2.6-.7a19.8 19.8 0 002.6-1l-5.3-3-.7.2-.7.2-3.7 1a16.7 16.7 0 01-3.1.4 10.7 10.7 0 01-2.8-.2 9.3 9.3 0 01-2.6-1 6.4 6.4 0 01-2.2-2 3.1 3.1 0 01-.6-2 3.8 3.8 0 01.9-2 9.3 9.3 0 012.1-2l-3.1-2 1.9-1 3 1.8a22.7 22.7 0 014.7-1.7 32.8 32.8 0 014.5-.8zm-9.2 5.6a4 4 0 002.4.5 15.5 15.5 0 003.1-.7l-5-3c-1.8 1.3-2 2.3-.5 3.2zm17.6 1.5a4 4 0 00-2.5-.5 21.2 21.2 0 00-3.5.8l5 2.8c2.1-1.3 2.4-2.3 1-3.1z" class="cls-4"/><path d="M339 362.6v-1.8l2.1 1.3-.9 1.4zM356.9 363.7v-1.8l-4.5.4 2.6 1.7 1.9-.3zM357.2 357.1v-1.8l-3.3 1.2 3.3.6zM343.5 357l1.1-1 3.9 2.6-.2.8-3-1.3zM333.4 351.4l5.1 2.9 1-.8-.6-.8a7 7 0 00-1.6-1.3l-2.9-1.2zM341.9 349.5v-1.8l-2.3-.8-.5 1.4.1.7 2.7.5zM326.2 348.2v-1.8l2.7.3-.8 1.7-1.9-.2zM326.3 354.3v-1.9h3.1l-.7 1.7-1.4 1.5z" class="cls-4"/><path d="M342 347.7a7.2 7.2 0 00-1.3 0 32.2 32.2 0 00-4 1 15.2 15.2 0 00-2 .8l5.3 3 1-.3 3.9-1.2a18.6 18.6 0 013.4-.5 12.4 12.4 0 013.2.2 10.3 10.3 0 013 1.2 6.1 6.1 0 012.4 2 2.8 2.8 0 01.3 2 4.7 4.7 0 01-1.3 2.1 13 13 0 01-2.4 2l3.4 2-1.9 1-3.4-2a27.8 27.8 0 01-5.1 2 33 33 0 01-5.7 1l-1.8-3.2a11.3 11.3 0 001.5-.2 27 27 0 005-1 19.8 19.8 0 002.5-1l-5.3-3-.7.2-.7.2-3.7 1a16.7 16.7 0 01-3.1.4 10.3 10.3 0 01-2.8-.2 9.3 9.3 0 01-2.6-1 6.4 6.4 0 01-2.2-2 3.1 3.1 0 01-.6-2 3.8 3.8 0 01.9-2 9.3 9.3 0 012.1-2l-3.1-2 1.9-1 3 1.8a22.8 22.8 0 014.7-1.7 36 36 0 014.5-.8zm-9.2 5.6a3.9 3.9 0 002.4.5 15.3 15.3 0 003.1-.7l-5-3c-1.8 1.3-2 2.3-.5 3.2zm17.6 1.5a4 4 0 00-2.5-.5 20.2 20.2 0 00-3.5.8l5 2.8q3.2-1.9 1-3.1z" class="cls-6"/></g><g id="Coin-24" data-name="Coin"><ellipse cx="345.4" cy="349.4" class="cls-2" rx="46.5" ry="26.9"/><path d="M298.9 349.8v-12.2l9.2 8.1-9.2 4.1zM391.9 337.9v11.5l-4.7 5-2.3-13.2 7-3.3z" class="cls-2"/><ellipse cx="345.4" cy="337.9" class="cls-3" rx="46.5" ry="26.9"/><path d="M378.7 338.7c-.5 4.5-3.7 9-9.7 12.4a52 52 0 01-47.1 0c-6-3.4-9.2-7.9-9.7-12.4-.5-5.3 2.7-10.7 9.7-14.7a52 52 0 0147 0c7.1 4 10.3 9.4 9.8 14.7z" class="cls-4"/><path d="M378.7 338.7c-.5 4.5-3.7 9-9.7 12.4a52 52 0 01-47.1 0c-6-3.4-9.2-7.9-9.7-12.4.5-4.5 3.7-9 9.7-12.4a52 52 0 0147 0c6.1 3.4 9.3 7.9 9.8 12.4z" class="cls-5"/><path d="M345 332.4a7 7 0 00-1.3.1 32.2 32.2 0 00-4 .9 15.2 15.2 0 00-2 .8l5.3 3 1-.3a59 59 0 013.9-1.1 17.2 17.2 0 013.4-.6 12 12 0 013.2.2 10.4 10.4 0 013 1.2 6.1 6.1 0 012.3 2 2.7 2.7 0 01.4 2.1 4.6 4.6 0 01-1.3 2 13 13 0 01-2.4 2l3.4 2-1.9 1-3.4-2a27.9 27.9 0 01-5.1 2 34 34 0 01-5.7 1l-1.7-3.2a14 14 0 001.5-.1 21 21 0 002.2-.4l2.6-.7a18.8 18.8 0 002.6-1l-5.3-3-.7.2-.7.2c-1.4.5-2.6.8-3.7 1a16.7 16.7 0 01-3.1.5 10.8 10.8 0 01-2.8-.3 9.1 9.1 0 01-2.6-1 6.6 6.6 0 01-2.2-2 3.3 3.3 0 01-.6-2 3.8 3.8 0 01.9-2 9.7 9.7 0 012.1-2l-3.1-1.9 1.9-1 3 1.8a23 23 0 014.7-1.7 32.3 32.3 0 014.6-.8zm-9.2 5.6a4 4 0 002.4.5 14.9 14.9 0 003.2-.7l-5-2.9q-2.8 1.8-.5 3.1zm17.6 1.5a4 4 0 00-2.5-.5 21.3 21.3 0 00-3.5.8l5 2.9c2.1-1.3 2.5-2.4 1-3.2z" class="cls-4"/><path d="M342 345.5v-1.8l2 1.3-.8 1.4zM359.9 346.7v-1.8l-4.5.3 2.6 1.7 1.9-.2zM360.2 340.1v-1.9l-3.3 1.2 3.3.7zM346.5 340l1.1-1 4 2.6-.3.8-3-1.3zM336.4 334.3l5.1 2.9 1-.8-.6-.8a6.7 6.7 0 00-1.6-1.3c-.4 0-2.9-1.2-2.9-1.2zM344.9 332.4v-1.8l-2.3-.8-.5 1.5.1.6 2.7.5zM329.2 331.1v-1.8l2.7.3-.8 1.8-1.9-.3zM329.3 337.2v-1.8h3.2l-.8 1.6-1.4 1.5z" class="cls-4"/><path d="M345 330.6a7.3 7.3 0 00-1.3.1 32.2 32.2 0 00-4 .9 15.2 15.2 0 00-2 .8l5.3 3 1-.3 3.9-1.1a18 18 0 013.4-.6 12.4 12.4 0 013.2.2 10.1 10.1 0 013 1.2 6 6 0 012.3 2 2.7 2.7 0 01.4 2.1 4.6 4.6 0 01-1.3 2 13 13 0 01-2.4 2l3.4 2-1.9 1-3.4-2a28.6 28.6 0 01-5.1 2 34 34 0 01-5.7 1l-1.7-3.2a14 14 0 001.5-.1 23.9 23.9 0 004.8-1 18.8 18.8 0 002.6-1l-5.3-3.1-.7.2-.7.2c-1.4.5-2.6.8-3.7 1a16.7 16.7 0 01-3.1.5 11.3 11.3 0 01-2.8-.3 9.4 9.4 0 01-2.6-1 6.5 6.5 0 01-2.2-2 3.3 3.3 0 01-.6-2 3.8 3.8 0 01.9-2 9.7 9.7 0 012.1-2l-3.1-1.9 1.9-1 3 1.8a22.3 22.3 0 014.7-1.7 32.3 32.3 0 014.6-.9zm-9.2 5.6a3.9 3.9 0 002.4.5 14.8 14.8 0 003.2-.7l-5-2.9q-2.8 1.8-.5 3.1zm17.6 1.5a4 4 0 00-2.5-.5 20.3 20.3 0 00-3.5.8l5 2.9c2.1-1.3 2.5-2.4 1-3.2z" class="cls-6"/></g><g id="Coin-25" data-name="Coin"><ellipse cx="344.4" cy="332.3" class="cls-2" rx="46.5" ry="26.9"/><path d="M297.9 332.7v-12.2l9.2 8.2-9.2 4zM390.9 320.8v11.5l-4.7 5-2.3-13.2 7-3.3z" class="cls-2"/><ellipse cx="344.4" cy="320.8" class="cls-3" rx="46.5" ry="26.9"/><path d="M377.6 321.6c-.4 4.6-3.6 9-9.6 12.5a52 52 0 01-47.1 0c-6-3.5-9.2-8-9.7-12.5-.6-5.3 2.7-10.7 9.7-14.7a52 52 0 0147 0c7.1 4 10.3 9.4 9.8 14.7z" class="cls-4"/><path d="M377.6 321.6c-.4 4.6-3.6 9-9.6 12.5a52 52 0 01-47.1 0c-6-3.5-9.2-8-9.7-12.5.5-4.5 3.7-9 9.7-12.4a52 52 0 0147 0c6.1 3.5 9.3 8 9.8 12.4z" class="cls-5"/><path d="M344 315.4a7 7 0 00-1.3 0 32.2 32.2 0 00-4 1 15.3 15.3 0 00-2 .7l5.3 3.1 1-.3 3.9-1.2a17.8 17.8 0 013.4-.6 12 12 0 013.2.3 10.3 10.3 0 013 1.1 6.1 6.1 0 012.3 2 2.8 2.8 0 01.3 2.1 4.6 4.6 0 01-1.2 2 13.2 13.2 0 01-2.5 2l3.4 2-1.8 1-3.4-2a27.7 27.7 0 01-5.1 2 33.8 33.8 0 01-5.7 1l-1.8-3.2h1.5c.6 0 1.5-.3 2.3-.5l2.6-.6a18.1 18.1 0 002.6-1l-5.3-3.1-.7.2-.7.3-3.7 1a16.7 16.7 0 01-3.1.4 10.7 10.7 0 01-2.8-.3 9.6 9.6 0 01-2.6-1 6.6 6.6 0 01-2.2-1.9 3.2 3.2 0 01-.6-2 4 4 0 01.9-2.1 9.6 9.6 0 012.1-2l-3-1.8 1.8-1 3 1.7a22.3 22.3 0 014.7-1.6 32.8 32.8 0 014.6-.9zm-9.2 5.6a4 4 0 002.4.5 15.5 15.5 0 003.2-.8l-5-2.9c-1.9 1.3-2 2.3-.5 3.2zm17.6 1.4a4 4 0 00-2.5-.4 20.1 20.1 0 00-3.5.7l5 3c2.1-1.4 2.5-2.4 1-3.3z" class="cls-4"/><path d="M341 328.5v-1.8l2 1.3-.8 1.3zM358.9 329.6v-1.8l-4.5.3 2.6 1.8 1.9-.3zM359.2 323v-1.8l-3.3 1.2 3.3.6zM345.5 322.9l1.1-1 4 2.6-.3.8-3-1.3-1.8-1.1zM335.4 317.2l5.1 3 1-.8-.6-.8a6.6 6.6 0 00-1.6-1.4c-.4 0-2.9-1.2-2.9-1.2zM343.9 315.4v-1.9l-2.3-.7-.5 1.4.1.6 2.7.6zM328.2 314v-1.8l2.7.3-.8 1.8-1.9-.3zM328.3 320.2v-2h3.1l-.7 1.8-1.4 1.5z" class="cls-4"/><path d="M344 313.5a7.2 7.2 0 00-1.3.1 32.2 32.2 0 00-4 1 15.3 15.3 0 00-2 .7l5.3 3.1 1-.3a59 59 0 013.9-1.2 17 17 0 013.4-.6 12 12 0 013.2.3 10 10 0 013 1.1 6.1 6.1 0 012.3 2 2.8 2.8 0 01.3 2.1 4.7 4.7 0 01-1.2 2 13.2 13.2 0 01-2.5 2l3.4 2-1.8 1-3.4-2a28.4 28.4 0 01-5.1 2 33.8 33.8 0 01-5.7 1l-1.8-3.2a14 14 0 001.5 0 20.6 20.6 0 002.3-.5 36 36 0 002.6-.6 19.4 19.4 0 002.6-1l-5.3-3.1-.7.2-.7.3a30 30 0 01-3.7 1 16.7 16.7 0 01-3.1.4 10.7 10.7 0 01-2.8-.3 9.3 9.3 0 01-2.6-1 6.4 6.4 0 01-2.2-1.9 3.2 3.2 0 01-.6-2 4 4 0 01.9-2.1 9.5 9.5 0 012.1-2l-3.1-1.8 1.9-1.1 3 1.8a23 23 0 014.7-1.7 32.8 32.8 0 014.5-.8zm-9.2 5.7a4 4 0 002.4.5 15 15 0 003.2-.8l-5-2.9q-2.8 1.8-.5 3.1zm17.6 1.4a4.1 4.1 0 00-2.5-.4 21.2 21.2 0 00-3.5.7l5 2.9c2.1-1.3 2.5-2.4 1-3.2z" class="cls-6"/></g><g id="Girl_12"><path id="_Контур_" d="M85.3 232.3c.8-1.3 7.4-2.2 9.6 3.3.8 2.1.7 7.5 1.3 11s2.4 5.2 3 8-.4 7.4-7 8.2-11.8-1.5-13.4-3.7-1.6-6.6 0-9 3-4.3 2.9-7.5z" class="cls-7" data-name="&lt;Контур&gt;"/><path id="_Контур_2" d="M89.6 231.4s-5-1.4-8 1.2a7.3 7.3 0 00-2 7.4c.4 1.6 1.2 3.7 2.4 3.8s7.6-12.4 7.6-12.4z" class="cls-7" data-name="&lt;Контур&gt;"/><path id="_Контур_3" d="M91.5 244.9s-.3 5.5-.2 6 2.2.7 2.7 1.2-3 6-4.8 6.9-7.4-1.3-7.8-4.1c-.4-2.6 1.6-4.6 2.3-5.3a11 11 0 011.6 0l.2-2.7 6-2z" class="cls-8" data-name="&lt;Контур&gt;"/><path id="_Контур_4" d="M75.3 274.3a28.9 28.9 0 01-5.5 5.7 27.7 27.7 0 00-1.9 2.2 8.4 8.4 0 01-3.7 2.5c-1.2.3-1.7.2-2 0s0-.6.5-.9a7 7 0 002.4-1.3l-2 .8a7.5 7.5 0 01-2 .4c-.6 0-1.3-.8-.8-1l2.1-.6a6.3 6.3 0 001.6-.8 14.2 14.2 0 01-2.2.4 3.5 3.5 0 01-2-.2c-.3-.1-.5-.7.2-.9a11 11 0 002.7-.6c.9-.4 1.4-.8 1.2-.9s-.7.2-1.5.1-1.6-.6-1.6-1 .2-.2 1-.3a18.8 18.8 0 012.6-.5 8.2 8.2 0 002.7-.3c.9-.2 2.9-2.7 4.4-4.9a32.2 32.2 0 004-8c1-3 2-8.7 2.8-10.7s2.2-3 3.5-3c1.5 0 2.2 2 1.8 3.7-.8 3-4.2 14.7-8.3 20.1z" class="cls-8" data-name="&lt;Контур&gt;"/><path id="_Контур_5" d="M92.3 251.3c1.5.3 3.3 1.1 3.5 2a18.2 18.2 0 01-.4 9.2c-1.4 3.5-2.9 10-3.6 11.4a18 18 0 01-11.6-2.2l-.3-8.2c-5-4.4-.8-9.7 3.5-13.9a7.7 7.7 0 011.5 0s-3.8 4.5-1.2 7c5.7-1.7 6.8-4.3 8.6-5.3z" class="cls-9" data-name="&lt;Контур&gt;"/><path id="_Контур_6" d="M81.2 238c.6-3.5 3.1-6.2 6.8-6a7 7 0 013.5 12.9 7.1 7.1 0 01-.6 1.5c-1.3 1.5-4.7 2.5-5.8 2.5-1 0-1.8-.9-2.8-2.4-1.9-3.2-1.4-6.7-1-8.4z" class="cls-8" data-name="&lt;Контур&gt;"/><path d="M89.1 232.1c2.6.5 4.7 1.2 5.4 3.8.5 1.7 1 5 .5 6.4l-.4 1-3 1.6s-1.5-1.2-1-4.8a2.7 2.7 0 00-.5-1.3 4 4 0 01-.5-1 4 4 0 00-2-2.2c-2.3-1.3-5.6-.2-6.1.2a6.8 6.8 0 017.6-3.7z" class="cls-7"/><path d="M75 317c-1.3 1-3.3.3-3.4.3a52.3 52.3 0 01-4.8 3.7c-.8.6-2 1.5-1.8 2.7.4 2.2 3.9 1.5 5.2.8s2.4-1.7 3.7-2.5c.9-.6 1.7-.8 1.9-2 0-.7-.6-3.1-.8-3z" class="cls-10"/><path d="M75.8 319.6c-.2 1-1 1.3-2 1.9-1.2.8-2.3 1.9-3.7 2.6s-4.2 1.2-5-.4c.4 2.2 3.8 1.5 5.1.8s2.4-1.8 3.7-2.5c.9-.6 1.7-.9 1.9-2a2.6 2.6 0 000-.4z" class="cls-11"/><path d="M68.7 313.4c-1.2 1-3 .4-3 .5a50.2 50.2 0 01-4.4 3.3c-.8.6-2 1.4-1.7 2.5.4 2 3.6 1.4 4.8.8s2.2-1.7 3.3-2.4c.8-.5 1.6-.8 1.8-1.8a7 7 0 00-.8-3z" class="cls-10"/><path d="M69.4 315.9c-.1 1-1 1.3-1.7 1.8-1.2.7-2.2 1.7-3.4 2.3s-4 1.2-4.7-.3c.4 2 3.6 1.4 4.8.7s2.2-1.6 3.3-2.3c.8-.5 1.6-.8 1.8-1.8a2.1 2.1 0 000-.4z" class="cls-11"/><path d="M86.6 275.3a19.2 19.2 0 01-10.3-1.5l.1 2c-4.2 3-12.6 8-13.2 11.5A222 222 0 0066 314c1.3.7 2.3.6 2.9 0 0 0 2.6-9.3 1.9-22.9 0 0 14.7-6.5 15.6-10a11.3 11.3 0 00.4-4.5v-1.3z" class="cls-8"/><path d="M91.5 273.9a15.8 15.8 0 01-8.9 1.2l.3 4.2c-4.3 3-12.7 8-13.3 11.4.6 11 1.6 26.7 2 27a3.6 3.6 0 003.5-.5s2.7-9.1 2-22.7c0-.2 12.5-6.4 14.1-8s2-4.2 2-6.5a15.9 15.9 0 00-1.7-6.1z" class="cls-8"/><path d="M94.6 276.2s4.7 8.3-3 12.5c-8.3 4.5-13.3 5.5-13.3 5.5l-1.2.3a32 32 0 010 8.6s-5.9 2-13.3-4.5l-2.5-8-.3-2a4.4 4.4 0 011.2-4c1.8-1.7 7.5-5.9 11-8.3s6.4-4.6 6.4-4.6l.6-.6s4.2 3.4 11.8 2.2a12.4 12.4 0 012.6 2.9z" class="cls-12"/><path id="_Контур_7" d="M90 288.5a21 21 0 012.3-1.8 9.3 9.3 0 002.2-1.6 18 18 0 002.4-6.7 29.1 29.1 0 00-.2-9.8 67.7 67.7 0 00-4-11.4c-1-2.2-.4-3.5.6-4.5 1-1.1 2.3-1 3.6 2A62.2 62.2 0 01101 268a29.5 29.5 0 01-.1 10 36.8 36.8 0 01-2.7 8.5c-.4.8-.4 1.4-.9 3a10.3 10.3 0 01-2.4 4.2c-1 1-1.5 1.1-1.8 1s-.3-.5 0-1a8.4 8.4 0 001.8-2.5l-1.5 1.8a8.5 8.5 0 01-1.7 1.4c-.6.4-1.6 0-1.2-.5l1.7-1.7a8 8 0 001.2-1.6 16.2 16.2 0 01-2 1.6 3.6 3.6 0 01-1.8.7c-.3 0-.8-.4-.2-1a12 12 0 002.3-2c.6-.7.9-1.4.7-1.4s-.5.5-1.3.9-1.8.3-2-.2.2-.3.9-.7z" class="cls-8" data-name="&lt;Контур&gt;"/><path d="M98.9 258.8s-2.8 2.5-6 2l-1.2-5.3s-.8-2.7 1.5-3.8 4.7 1.7 5.7 7zM83.4 249.6s-3-1-6.3 5.8l1.2.8a50.3 50.3 0 015-6.6z" class="cls-13"/><g id="_Группа_" data-name="&lt;Группа&gt;"><g id="_Группа_2" data-name="&lt;Группа&gt;"><path id="_Контур_8" d="M62.2 278.9l11-6.3a.6.6 0 01.6 0l19 11-11.1 6.5z" class="cls-9" data-name="&lt;Контур&gt;"/><path d="M82 287.6l.8.5c.1 0 0 0 0 .1l-.8.5a.3.3 0 01-.2 0l-.9-.5v-.2l.8-.4a.3.3 0 01.3 0zM80.8 286.9l.8.5v.1l-.8.5a.3.3 0 01-.3 0l-.8-.5v-.1l.8-.5a.3.3 0 01.3 0zM79.6 286.2l.8.5v.2l-.8.4a.3.3 0 01-.2 0l-.9-.5v-.1l.8-.5a.3.3 0 01.3 0zM78.4 285.5l.8.5c.1 0 .1.1 0 .2l-.7.4a.3.3 0 01-.3 0l-.8-.5c-.1 0-.1 0 0-.1l.7-.5a.3.3 0 01.3 0zM77.2 284.9l.9.4v.2l-.8.5a.3.3 0 01-.3 0l-.8-.5v-.2l.8-.4a.3.3 0 01.2 0zM76 284.2l.9.5v.1l-.8.5a.3.3 0 01-.3 0l-.8-.5v-.2l.8-.4a.3.3 0 01.3 0zM74.9 283.5l.8.5v.1l-.8.5a.3.3 0 01-.3 0l-.8-.5v-.2l.8-.4a.3.3 0 01.3 0zM73.7 282.8l.8.5c.1 0 0 .1 0 .2l-.8.4a.3.3 0 01-.2 0l-.9-.5v-.1l.8-.5a.3.3 0 01.3 0zM72.5 282.1l.8.5c.1 0 .1.1 0 .2l-.7.4a.3.3 0 01-.3 0l-.8-.5c-.1 0-.1 0 0-.1l.8-.5a.3.3 0 01.2 0zM71.3 281.4l.9.5v.2l-.8.4a.3.3 0 01-.3 0l-.8-.4v-.2l.8-.5a.3.3 0 01.2 0zM70.2 280.8l.8.4v.2l-.8.5a.3.3 0 01-.3 0l-.8-.5v-.2l.8-.4a.3.3 0 01.3 0zM69 280l.8.6c.1 0 .1 0 0 .1l-.8.5a.3.3 0 01-.2 0l-.9-.5v-.2l.8-.4a.3.3 0 01.3 0zM67.8 279.4l.8.5c.1 0 0 0 0 .1l-.8.5a.3.3 0 01-.2 0l-.9-.5v-.1l.8-.5a.3.3 0 01.3 0zM66 278.4l1.4.8v.2l-.8.4a.3.3 0 01-.2 0L65 279v-.2l.8-.4a.3.3 0 01.2 0zM81.3 286l.9.4v.2l-.8.4a.3.3 0 01-.3 0l-.8-.5v-.1l.8-.5a.3.3 0 01.3 0zM80.2 285.2l.8.5v.2l-.8.4a.3.3 0 01-.2 0l-.9-.5v-.1l.8-.5a.3.3 0 01.3 0zM79 284.5l.8.5c.1 0 0 .1 0 .2l-.8.4a.3.3 0 01-.2 0l-.9-.4v-.2l.8-.5a.3.3 0 01.3 0zM77.8 283.9l.8.4c.1 0 .1.2 0 .2l-.7.5a.3.3 0 01-.3 0l-.8-.5c-.1 0-.1-.1 0-.2l.8-.4a.3.3 0 01.2 0zM76.6 283.2l.9.5v.1l-.8.5a.3.3 0 01-.3 0l-.8-.5c-.1 0 0-.1 0-.2l.8-.4a.3.3 0 01.2 0zM75.5 282.5l.8.5v.1l-.8.5a.3.3 0 01-.3 0l-.8-.5v-.1l.8-.5a.3.3 0 01.3 0zM74.3 281.8l.8.5v.1l-.8.5a.3.3 0 01-.3 0l-.8-.5v-.1l.8-.5a.3.3 0 01.3 0zM73 281.1l1 .5v.2l-.9.4a.3.3 0 01-.2 0l-.9-.5v-.1l.8-.5a.3.3 0 01.3 0z" class="cls-7"/><path d="M71.9 280.4l.8.5c.1 0 .1.1 0 .2l-.8.5a.3.3 0 01-.2 0l-.9-.5v-.2l.8-.5a.3.3 0 01.3 0zM70.7 279.8l.8.4c.1 0 .1.2 0 .2l-.7.5a.3.3 0 01-.3 0l-.8-.5c-.1 0-.1-.1 0-.2l.7-.4a.3.3 0 01.3 0zM69.5 279l.9.6v.1l-.8.5a.3.3 0 01-.3 0l-.8-.5v-.2l.8-.4a.3.3 0 01.2 0zM68.3 278.4l.9.5v.1l-.8.5a.3.3 0 01-.3 0l-.8-.5v-.1l.8-.5a.3.3 0 01.3 0zM82.5 286.6l1.4.8c.1 0 .1.1 0 .2l-.8.4a.3.3 0 01-.2 0l-1.4-.8v-.2l.8-.4a.3.3 0 01.2 0zM66.1 278.4l.8.4a.3.3 0 00.3 0l.8-.5v-.1c-.1 0-.1 0 0-.1l.8-.5v-.2l-.5-.3a.3.3 0 00-.2 0l-.9.5h-.1l-.2.2-.8.5c-.1 0-.1 0 0 0zM86.5 285l.9.4v.2l-.8.4a.3.3 0 01-.3 0l-.8-.5v-.1l.8-.5a.3.3 0 01.2 0zM85.4 284.3l.8.4v.2l-.8.5a.3.3 0 01-.3 0l-.8-.5v-.2l.8-.4a.3.3 0 01.3 0zM84.2 283.6l.8.5v.1l-.8.5a.3.3 0 01-.3 0l-.8-.5v-.2l.8-.4a.3.3 0 01.3 0zM74.2 277.8l.8.5v.1l-.8.5a.3.3 0 01-.3 0l-.8-.5v-.1l.8-.5a.3.3 0 01.3 0zM73 277.1l.8.5c.1 0 0 .1 0 .1l-.8.5a.3.3 0 01-.2 0l-.9-.5v-.1l.8-.5a.3.3 0 01.3 0zM71.8 276.4l.8.5c.1 0 0 .1 0 .2l-.8.4a.3.3 0 01-.2 0l-.9-.5v-.1l.8-.5a.3.3 0 01.3 0z" class="cls-7"/><path d="M70.6 275.8l.9.4v.2l-.8.4a.3.3 0 01-.3 0l-.8-.5c-.1 0-.1 0 0-.1l.8-.5a.3.3 0 01.2 0zM82.7 282.7l1.1.7c.1 0 .1 0 0 .1l-.8.5a.3.3 0 01-.3 0l-1.1-.7v-.1l.8-.5a.3.3 0 01.3 0zM75.3 278.5l1.2.6v.2l-.8.4a.3.3 0 01-.3 0l-1.1-.6c-.1 0 0-.1 0-.2l.8-.4a.3.3 0 01.2 0zM76.8 279.3l5.6 3.2v.2l-.8.4a.3.3 0 01-.3 0l-5.6-3.1v-.2l.8-.4a.3.3 0 01.3 0zM82.2 285l.8.6v.1l-.8.5a.3.3 0 01-.3 0l-.8-.5v-.2l.8-.4a.3.3 0 01.3 0zM81 284.4l.8.5c.1 0 0 0 0 .1l-.8.5a.3.3 0 01-.2 0l-.9-.5v-.2l.8-.4a.3.3 0 01.3 0zM79.8 283.7l.8.5c.1 0 .1 0 0 .1l-.7.5a.3.3 0 01-.3 0l-.8-.5c-.1 0-.1 0 0-.1l.7-.5a.3.3 0 01.3 0zM78.6 283l.9.5v.1l-.8.5a.3.3 0 01-.3 0l-.8-.5v-.1l.8-.5a.3.3 0 01.2 0zM77.5 282.3l.8.5v.2l-.8.4a.3.3 0 01-.3 0l-.8-.5v-.1l.8-.5a.3.3 0 01.3 0zM76.3 281.7l.8.4v.2l-.8.5a.3.3 0 01-.3 0l-.8-.5v-.2l.8-.5a.3.3 0 01.3 0zM75.1 281l.8.5c.1 0 0 0 0 .1l-.8.5a.3.3 0 01-.2 0l-.9-.5v-.1l.8-.5a.3.3 0 01.3 0zM74 280.3l.8.5v.1l-.8.5a.3.3 0 01-.3 0l-.8-.5c-.1 0-.1-.1 0-.1l.8-.5a.3.3 0 01.2 0zM72.7 279.6l.9.5v.1l-.8.5a.3.3 0 01-.3 0l-.8-.5v-.1l.8-.5a.3.3 0 01.2 0zM71.6 279l.8.4v.2l-.8.4a.3.3 0 01-.3 0l-.8-.5v-.1l.8-.5a.3.3 0 01.3 0zM70.4 278.3l.8.4v.2l-.8.5a.3.3 0 01-.2 0l-.9-.5v-.2l.8-.4a.3.3 0 01.3 0zM69.2 277.6l.8.5c.1 0 .1 0 0 .1l-.8.5a.3.3 0 01-.2 0l-.9-.5v-.2l.8-.4a.3.3 0 01.3 0zM83.4 285.8l1.7 1v.1l-.8.5a.3.3 0 01-.3 0l-1.7-1v-.2l.8-.5a.3.3 0 01.3 0zM84 284.7l.7.5c.1 0 .1.1 0 .2l-.8.4a.3.3 0 01-.2 0l-.9-.4v-.2l.8-.5a.3.3 0 01.3 0z" class="cls-7"/><path d="M82.7 284l.9.5v.2l-.8.5a.3.3 0 01-.3 0l-.8-.5c-.1 0 0-.1 0-.2l.8-.4a.3.3 0 01.2 0zM81.5 283.4l.9.5v.1l-.8.5a.3.3 0 01-.3 0l-.8-.5v-.2l.8-.4a.3.3 0 01.3 0zM80.4 282.7l.8.5v.1l-.8.5a.3.3 0 01-.3 0l-.8-.5v-.1l.8-.5a.3.3 0 01.3 0zM79.2 282l.8.5v.1l-.8.5a.3.3 0 01-.3 0l-.8-.5v-.1l.8-.5a.3.3 0 01.3 0zM78 281.3l.8.5c.1 0 0 .1 0 .2l-.8.4a.3.3 0 01-.2 0l-.9-.5v-.1l.8-.5a.3.3 0 01.3 0z" class="cls-7"/><path d="M76.8 280.7l.9.4v.2l-.8.5a.3.3 0 01-.3 0l-.8-.5c-.1 0 0-.1 0-.2l.8-.4a.3.3 0 01.2 0zM75.7 280l.8.5v.1l-.8.5a.3.3 0 01-.3 0l-.8-.5v-.1l.8-.5a.3.3 0 01.3 0zM74.5 279.3l.8.5v.1l-.8.5a.3.3 0 01-.2 0l-.9-.5v-.1l.8-.5a.3.3 0 01.3 0zM73.3 278.6l.8.5c.1 0 0 .1 0 .1l-.8.5a.3.3 0 01-.2 0l-.9-.5v-.1l.8-.5a.3.3 0 01.3 0zM72.1 278l.9.4v.2l-.8.4a.3.3 0 01-.3 0l-.8-.5c-.1 0-.1 0 0-.1l.8-.5a.3.3 0 01.2 0zM69.5 276.4l2.3 1.3v.2l-.8.5a.3.3 0 01-.3 0l-2.3-1.4v-.1l.8-.5a.3.3 0 01.3 0zM85 285.4l1.2.7v.1l-.8.5a.3.3 0 01-.2 0L84 286v-.2l.8-.5a.3.3 0 01.3 0zM64.9 279l16.7 9.7v.2l-.4.2a.3.3 0 01-.3 0l-16.7-9.6v-.2l.4-.2a.3.3 0 01.3 0z" class="cls-7"/><path id="_Контур_9" d="M84.7 279.7l-.1.1-2.9 1.6-5.2-2.9-.1-.1 3-1.7 5.3 3z" class="cls-14" data-name="&lt;Контур&gt;"/><path id="_Контур_10" d="M84.6 279.8l-2.9 1.6-5.2-2.9 2.9-1.7 5.2 3z" class="cls-15" data-name="&lt;Контур&gt;"/><path id="_Контур_11" d="M92.9 283.6v.3a1 1 0 01-.5.9l-10.2 5.8a1 1 0 01-.5.2 1 1 0 01-.5-.2L62.8 280a1 1 0 01-.6-1v-.2l19.5 11.3z" class="cls-15" data-name="&lt;Контур&gt;"/><path id="_Контур_12" d="M81.7 290v.8a1 1 0 01-.5-.2L62.8 280a1 1 0 01-.6-1v-.2z" class="cls-15" data-name="&lt;Контур&gt;"/><path id="_Контур_13" d="M81.4 290.2a1.2 1.2 0 01-1 0L62 279.5a1.3 1.3 0 01-.6-.9l-2-12a1.5 1.5 0 010-.1 1.2 1.2 0 01.4-1l19 11a1 1 0 01.4.7z" class="cls-9" data-name="&lt;Контур&gt;"/><path id="_Контур_14" d="M81.7 290l-.1.1a1 1 0 01-.2.1l-2.2-13a1 1 0 00-.4-.6l-19-11a1.2 1.2 0 01.2-.1l19 11a1 1 0 01.5.6z" class="cls-15" data-name="&lt;Контур&gt;"/></g></g></g><path d="M373.6 92.4L214.4.5a2.8 2.8 0 00-2.7-.3 1.2 1.2 0 00-.2.1L208.7 2l1.4 2.5v104.2c0 3.2 2 6.9 4.3 8.3l158.2 91.3.4 2.7 3.2-1.9a2.2 2.2 0 00.5-.2 4 4 0 001.2-3.4V100.7c0-3.2-1.9-7-4.3-8.3z" class="cls-16"/><path fill="#f8f9ff" d="M370.4 210.7l-159.1-92c-2.4-1.3-4.3-5-4.3-8.2V5.6c0-3.2 2-4.7 4.3-3.3l159.1 91.9c2.4 1.4 4.4 5.1 4.4 8.3v104.9c0 3.2-2 4.7-4.4 3.3z"/><path d="M225.9 115.5l-6.1-3.6.1-82.3 6 3.7v82.2z" class="cls-16"/><path d="M225.9 115.5l-6.1-3.5V95.6l6.1 3.6v16.3z" class="cls-12"/><path d="M245.2 126.7l-6.1-3.7V40.8l6.1 3.6v82.3z" class="cls-16"/><path d="M245.2 126.7l-6.1-3.6v-13.3l6.1 3.5v13.4z" class="cls-12"/><path d="M264.5 137.8l-6.1-3.5.3-82.2 6.1 3.5-.3 82.2z" class="cls-16"/><path d="M264.5 137.8l-6.1-3.5.1-33.4 6.1 3.5-.1 33.4z" class="cls-12"/><path d="M283.9 149.1l-6.1-3.6.4-82.2 6.1 3.6-.4 82.2z" class="cls-16"/><path d="M283.9 149.1l-6.1-3.6.1-28.4 6.1 3.6-.1 28.4z" class="cls-12"/><path d="M303.4 160.3l-6.1-3.5.3-82.2 6.1 3.5-.3 82.2z" class="cls-16"/><path d="M303.4 160.3l-6.1-3.5.2-43.5 6.1 3.6-.2 43.4z" class="cls-12"/><path d="M323 171.6l-6.1-3.5.3-82.2 6.1 3.6-.3 82.1z" class="cls-16"/><path d="M323 171.6l-6.1-3.5.2-56.5 6.1 3.6-.2 56.4z" class="cls-12"/><path d="M342.6 183l-6.1-3.6.4-82.1 6 3.5-.3 82.2z" class="cls-16"/><path d="M342.6 182.9l-6.1-3.5.3-70.5 6.1 3.6-.3 70.4z" class="cls-12"/><path d="M362.4 194.4l-6.1-3.6.3-82.1 6.1 3.5-.3 82.2z" class="cls-16"/><path d="M362.4 194.3l-6.1-3.5.3-71.5 6.1 3.6-.3 71.4z" class="cls-12"/><path d="M254.8 132.2l-6.1-3.5.3-82.2 6.1 3.6-.3 82.1z" class="cls-16"/><path d="M254.8 132.2l-6.1-3.5.1-27.4 6.1 3.5-.1 27.4z" class="cls-12"/><path d="M274.2 143.4l-6.1-3.5.3-82.2 6.1 3.6-.3 82.1z" class="cls-16"/><path d="M274.2 143.4l-6.1-3.5.2-38.4 6 3.5-.1 38.4z" class="cls-12"/><path d="M293.6 154.7l-6.1-3.6.4-82.2 6 3.6-.3 82.2z" class="cls-16"/><path d="M293.6 154.7l-6.1-3.6.2-50.4 6.1 3.5-.2 50.5z" class="cls-12"/><path d="M313.2 166l-6.1-3.6.3-82.2 6.1 3.6-.3 82.2z" class="cls-16"/><path d="M313.2 165.9l-6.1-3.5.2-50.4 6.1 3.5-.2 50.4z" class="cls-12"/><path d="M332.8 177.3l-6.1-3.5.3-82.2 6.1 3.5-.3 82.2z" class="cls-16"/><path d="M332.8 177.3l-6.1-3.6.2-62.4 6.1 3.5-.2 62.5z" class="cls-12"/><path d="M352.5 188.7l-6.1-3.6.3-82.1 6.1 3.5-.3 82.2z" class="cls-16"/><path d="M352.5 188.6l-6.1-3.5.3-74.5 6.1 3.6-.3 74.4z" class="cls-12"/><path d="M235.5 121.1l-6.1-3.6.1-82.3 6.1 3.6-.1 82.3z" class="cls-16"/><path d="M235.5 121.1l-6.1-3.6.1-20.3 6.1 3.5-.1 20.4z" class="cls-12"/><ellipse cx="215.7" cy="13.9" class="cls-16" rx="2.1" ry="3.7" transform="rotate(-30 215.7 13.9)"/><ellipse cx="223.5" cy="18.4" class="cls-16" rx="2.1" ry="3.7" transform="rotate(-30 223.5 18.4)"/><ellipse cx="231.3" cy="22.9" class="cls-16" rx="2.1" ry="3.7" transform="rotate(-30 231.3 22.9)"/><g id="Men_2"><path id="_Контур_15" d="M207.6 132.3c-.2 1.8-2.4 9.8-2 12.5s8 7.2 8 7.2l1-4.6-4-4 1-7.8z" class="cls-8" data-name="&lt;Контур&gt;"/><path id="_Контур_16" d="M213.4 124.5a3.3 3.3 0 00-4.2 1.3c-1 1.8-2.2 8-2.3 9.1a4.4 4.4 0 003.8 1.8z" class="cls-13" data-name="&lt;Контур&gt;"/><path d="M222 212.8a6.4 6.4 0 004.8-.6c1.1 0 7.5-2.6 8.3-.4.8 2-2 3.9-3.4 4.2-3.2.8-5.6 2.4-6.9 2.7-1 .2-2.2.3-3-.5-.8-.8-.8-4.2.1-5.4z" class="cls-10"/><path d="M224.8 218.1c1.3-.2 3.7-1.8 6.9-2.6 1.2-.3 3.3-1.7 3.6-3.3.2 1.9-2.3 3.5-3.6 3.8-3.2.8-5.6 2.4-6.9 2.7-1 .2-2.2.3-3-.4a1.8 1.8 0 01-.4-.8 3.9 3.9 0 003.4.6z" class="cls-11"/><path d="M211.7 208.2a6.5 6.5 0 004.8-.6c1.2 0 7.5-2.7 8.4-.4.7 2-2 3.9-3.5 4.2-3.2.8-5.5 2.4-6.8 2.7-1 .2-2.2.3-3-.5-1-.9-.8-4.2 0-5.4z" class="cls-10"/><path d="M214.6 213.5c1.2-.3 3.6-1.9 6.8-2.6 1.2-.3 3.4-1.7 3.6-3.3.3 1.9-2.2 3.5-3.6 3.8-3.2.8-5.6 2.4-6.8 2.7-1 .2-2.2.3-3-.5a1.8 1.8 0 01-.5-.7 3.8 3.8 0 003.5.6z" class="cls-11"/><path id="_Контур_17" d="M211.5 191a39.1 39.1 0 011.5-7l-.7-11.6c-.2-6.4-2.4-12.1-.7-17.2l19.9 4.4s-1.2 25.6-1.5 28.8a57.5 57.5 0 01-.9 7.2c-.9 5-2.3 16.8-2.3 16.8a7.4 7.4 0 01-4.9.5l.3-18.5c.2-4.4.3-4 .3-4l-.7-11-.4-5.4-1 7.5c-.2 3.2-1 6-1.8 11.8l-2 15c-2 1.3-5 .2-5 .2s-.6-13.2 0-17.5z" class="cls-12" data-name="&lt;Контур&gt;"/><path id="_Контур_18" d="M214.4 124.6c1.6 0 2.7.5 2.9 0a19.3 19.3 0 00.3-2.3l-.3-1c-2-1.1-2.5-3.2-2.8-5.6-.4-4 1.8-7.7 6-8 3.8-.5 6.6 2.2 7.3 6 .4 1.8 1.2 5.2.2 8.2-.6 1.7-1.4 3-2.2 3.3a17.8 17.8 0 01-2.3-.2l-.3 1.9c-.1.8-.1 1 1.3 2s-2.2 2.7-4.5 2.5-5.1-1.6-5.8-3.1c-.9-1.7-.8-3.7.2-3.7z" class="cls-8" data-name="&lt;Контур&gt;"/><path id="_Контур_19" d="M216.6 124.8c-.4 1 .7 2.4 3.5 3.3s3.1-.3 3.1-.3a55 55 0 015.5 2.8c1.8 1.2 2.5 4.7 2.7 10.5.3 6.8.3 16.8.1 18.5 0 0-3.2 3.2-7.3 2.8s-11-4-12.6-6.7c0-6 .8-6.9-.2-10.3-2.2-7.8-3.3-11-2.3-16.2.9-4.2 2.1-4.8 3.8-4.7a34.5 34.5 0 013.7.3z" class="cls-9" data-name="&lt;Контур&gt;"/><path id="_Контур_20" d="M237.8 146.7c-3.3.8-4-1.3-4.5-3-1-4.2-1.7-8-2.5-10.5-.9-2.8-1.9-3.3-3.3-3.8-1.6-.7-3 .7-2.4 4.3a72 72 0 003 12.3c.5 1.3 1.4 3.7 2.8 4.8 1.7 1.4 4.3 1.4 8.3.4 1.6-.4 3.5-1.4 6.7-3l3.1-1.3a11.3 11.3 0 004.2-3.3c.9-1.3 1-1.8.8-2.1s-.6-.3-1 .2a9.4 9.4 0 01-2.5 2.2l1.7-1.8a9.1 9.1 0 001.2-2c.3-.8-.3-1.7-.8-1.2l-1.5 2a8.5 8.5 0 01-1.6 1.5 16.6 16.6 0 001.4-2.3 3.7 3.7 0 00.6-2c0-.4-.6-.9-1.1-.2a13.4 13.4 0 01-1.8 2.8c-.8.8-1.4 1.2-1.4 1s.4-.7.7-1.6 0-1.9-.5-2-.4 0-.8.8a24.3 24.3 0 00-1.6 2.8 5.7 5.7 0 01-1.3 2.3c-.8 1-2.7 1.9-5.8 2.7z" class="cls-8" data-name="&lt;Контур&gt;"/><path id="_Контур_21" d="M226.3 128.8c2.2-.3 3.8.7 4.8 4l1.7 6.2a6 6 0 01-3.8 2.5c-2.6.7-3.6-.6-3.6-.6l-1.2-6c-.5-2.4-.7-5.7 2.1-6.1z" class="cls-13" data-name="&lt;Контур&gt;"/><path d="M227.7 113.1s3.5-5.4-4.1-6.5c-5.5-.7-9 2.8-9.5 6.7a12 12 0 003.5 9 6.7 6.7 0 004.8-.6 28.8 28.8 0 000-3s-2.6-5.7 5.3-5.6z" class="cls-7"/></g><g id="Men_11"><path id="_Контур_22" d="M368.8 319.4a37.7 37.7 0 005.3 7.3c.6.7 5-1 4.1-1.5s-3.8-4.5-5.3-7.3a90.7 90.7 0 01-3.1-9.9c-1-3.3-1.7-8.1-2.4-10.4a4.5 4.5 0 00-3.4-3.5c-1.6-.4-2.6 0-2.3 2 .5 3.4 3.1 16.6 7 23.3z" class="cls-8" data-name="&lt;Контур&gt;"/><path d="M366.2 371.2c1.4 1.1 3.4.1 3.5.2a60.8 60.8 0 005.1 4.2c.9.7 2.2 1.6 2 3-.4 2.2-4.1 1.5-5.5.8s-2.6-1.9-4-2.7c-.9-.6-1.8-.9-2-2 0-.8.7-3.5 1-3.5z" class="cls-10"/><path d="M365.3 374.1c.2 1.2 1.1 1.5 2 2 1.4 1 2.6 2.1 4 2.8s4.5 1.4 5.4-.3c-.5 2.2-4.1 1.5-5.5.8s-2.6-1.9-3.9-2.7c-1-.6-1.9-.9-2-2a1.7 1.7 0 010-.6z" class="cls-11"/><path d="M380.2 363.1c1.4 1.2 3.8 0 4 0a52 52 0 004.5 4.1c.8.7 2.2 1.6 2 3-.5 2.3-4.2 1.5-5.6.8s-2.6-1.9-3.9-2.7c-1-.6-1.9-.9-2-2a6.4 6.4 0 011-3.2z" class="cls-10"/><path d="M379.2 365.9c.2 1.1 1 1.5 2 2 1.3.9 2.5 2.1 4 2.8s4.5 1.3 5.4-.3c-.5 2.2-4.2 1.5-5.6.8s-2.5-1.9-3.8-2.7c-1-.6-2-1-2-2.1a2 2 0 010-.5z" class="cls-11"/><path id="_Контур_23" d="M347.8 327c-1.6 9.6 2.7 13.1 8.2 15.2 4 1.4 9.6 3.7 9.6 3.7v6.8l.4 19.3a4.6 4.6 0 004.2 0s2.3-11.7 2.7-17c.7-7 1.8-11.6 1.4-13.2-.3-1.3-8-5.1-10.5-7.2L380 340a29.4 29.4 0 00-.5 5.3l.5 17.8s2.2 1.7 4.1 0c0 0 4.1-24 3.6-27.3-.5-3-14.8-9.2-17.3-11.3a4 4 0 00-3.2-.9z" class="cls-12" data-name="&lt;Контур&gt;"/><g id="_Группа_3" data-name="&lt;Группа&gt;"><g id="_Группа_4" data-name="&lt;Группа&gt;"><path id="_Контур_24" d="M386.7 331l-11-6.4a.6.6 0 00-.6 0l-19.1 11 11.2 6.6z" class="cls-9" data-name="&lt;Контур&gt;"/><path d="M366.7 339.9l-.8.4v.2l.8.4a.3.3 0 00.3 0l.8-.4v-.2l-.8-.5a.3.3 0 00-.3 0z" class="cls-7"/><path d="M368 339.2l-1 .5v.1l.9.5a.3.3 0 00.2 0l.9-.5v-.2l-.8-.4a.3.3 0 00-.3 0zM369.1 338.5l-.8.5c-.1 0 0 0 0 .1l.8.5a.3.3 0 00.2 0l.9-.5v-.2l-.8-.4a.3.3 0 00-.3 0zM370.3 337.8l-.9.5v.1l.8.5a.3.3 0 00.3 0l.8-.5v-.1l-.8-.5a.3.3 0 00-.2 0zM371.4 337.1l-.8.5v.2l.8.4a.3.3 0 00.3 0l.8-.5v-.1l-.8-.5a.3.3 0 00-.3 0zM372.6 336.4l-.8.5v.2l.8.4a.3.3 0 00.2 0l.9-.4v-.2l-.8-.5a.3.3 0 00-.3 0zM373.8 335.8l-.8.4c-.1 0-.1.2 0 .2l.8.5a.3.3 0 00.2 0l.9-.5v-.2l-.8-.4a.3.3 0 00-.3 0zM375 335l-.8.6c-.1 0 0 0 0 .1l.8.5a.3.3 0 00.2 0l.9-.5v-.2l-.8-.4a.3.3 0 00-.3 0zM376.1 334.4l-.8.5v.1l.8.5a.3.3 0 00.3 0l.8-.5v-.1l-.8-.5a.3.3 0 00-.3 0zM377.3 333.7l-.8.5v.2l.8.4a.3.3 0 00.3 0l.8-.5v-.1l-.8-.5a.3.3 0 00-.3 0zM378.5 333l-.8.5c-.1 0 0 .1 0 .2l.8.4a.3.3 0 00.2 0l.9-.4v-.2l-.8-.5a.3.3 0 00-.3 0zM379.7 332.4l-.8.5c-.1 0-.1 0 0 .1l.7.5a.3.3 0 00.3 0l.8-.5c.1 0 .1-.1 0-.2l-.7-.4a.3.3 0 00-.3 0zM380.9 331.7l-.9.5v.1l.8.5a.3.3 0 00.3 0l.8-.5v-.2l-.8-.4a.3.3 0 00-.2 0zM382.6 330.7l-1.4.8v.1l.8.5a.3.3 0 00.3 0l1.4-.8v-.2l-.8-.4a.3.3 0 00-.3 0zM367.3 338.2l-.8.5v.1l.8.5a.3.3 0 00.3 0l.8-.5v-.2l-.8-.4a.3.3 0 00-.3 0zM368.5 337.5l-.8.5v.1l.8.5a.3.3 0 00.2 0l.9-.5v-.1l-.8-.5a.3.3 0 00-.3 0zM369.7 336.8l-.8.5c-.1 0-.1.1 0 .1l.8.5a.3.3 0 00.2 0l.9-.5v-.1l-.8-.5a.3.3 0 00-.3 0zM370.9 336.1l-.9.5v.2l.8.4a.3.3 0 00.3 0l.8-.5c.1 0 0 0 0-.1l-.8-.5a.3.3 0 00-.2 0zM372 335.5l-.8.4c-.1 0 0 .2 0 .2l.8.4a.3.3 0 00.2 0l.9-.4v-.2l-.8-.4a.3.3 0 00-.3 0zM373.2 334.8l-.8.5v.1l.8.5a.3.3 0 00.3 0l.8-.5v-.2l-.8-.4a.3.3 0 00-.3 0zM374.4 334.1l-.8.5c-.1 0 0 0 0 .1l.8.5a.3.3 0 00.2 0l.9-.5v-.1l-.8-.5a.3.3 0 00-.3 0zM375.6 333.4l-.9.5v.2l.8.4a.3.3 0 00.3 0l.8-.5c.1 0 .1 0 0-.1l-.8-.5a.3.3 0 00-.2 0zM376.8 332.7l-.9.5v.2l.8.4a.3.3 0 00.3 0l.8-.5v-.1l-.8-.5a.3.3 0 00-.2 0z" class="cls-7"/><path d="M378 332l-.9.5v.2l.8.5a.3.3 0 00.3 0l.8-.5v-.2l-.8-.4a.3.3 0 00-.3 0zM379.1 331.4l-.8.5v.1l.8.5a.3.3 0 00.3 0l.8-.5v-.2l-.8-.4a.3.3 0 00-.3 0zM380.3 330.7l-.8.5c-.1 0 0 0 0 .1l.8.5a.3.3 0 00.2 0l.9-.5v-.2l-.8-.4a.3.3 0 00-.3 0zM366.1 338.9l-1.3.8c-.1 0-.1 0 0 .1l.8.5a.3.3 0 00.2 0l1.4-.8v-.2l-.8-.4a.3.3 0 00-.3 0zM382.6 330.6l-.9.5a.3.3 0 01-.2 0l-.9-.5v-.1c.2 0 .2-.1 0-.1l-.8-.5v-.2l.5-.3a.3.3 0 01.3 0l.8.5h.2l.1.2h.1l.8.4v.1zM362.2 337.2l-.9.5v.1l.8.5a.3.3 0 00.3 0l.8-.5v-.1l-.8-.5a.3.3 0 00-.2 0zM363.3 336.5l-.8.5v.2l.8.4a.3.3 0 00.3 0l.8-.5v-.1l-.8-.5a.3.3 0 00-.3 0zM364.5 335.9l-.8.4v.2l.8.4a.3.3 0 00.2 0l.9-.4v-.2l-.8-.5a.3.3 0 00-.3 0zM374.5 330l-.8.6v.1l.8.5a.3.3 0 00.2 0l.9-.5v-.2l-.8-.4a.3.3 0 00-.3 0zM375.7 329.4l-.8.5c-.1 0-.1 0 0 .1l.8.5a.3.3 0 00.2 0l.9-.5v-.1l-.9-.5a.3.3 0 00-.2 0zM376.9 328.7l-.9.5v.2l.8.4a.3.3 0 00.3 0l.8-.5v-.1l-.8-.5a.3.3 0 00-.2 0zM378 328l-.8.5c-.1 0 0 .1 0 .2l.8.4a.3.3 0 00.2 0l.9-.4v-.2l-.8-.5a.3.3 0 00-.3 0zM366 335l-1.1.7c-.1 0 0 0 0 .1l.8.5a.3.3 0 00.2 0l1.2-.7v-.1l-.8-.5a.3.3 0 00-.3 0zM373.3 330.8l-1 .6c-.2 0-.2.1 0 .2l.7.4a.3.3 0 00.3 0l1.1-.6v-.2l-.8-.4a.3.3 0 00-.3 0zM371.9 331.6l-5.6 3.2v.2l.8.4a.3.3 0 00.3 0l5.5-3.2c.1 0 0 0 0-.1l-.8-.5a.3.3 0 00-.2 0zM366.5 337.3l-.8.5v.2l.8.4a.3.3 0 00.2 0l.9-.5v-.1l-.8-.5a.3.3 0 00-.3 0zM367.7 336.7l-.8.4c-.1 0-.1.1 0 .2l.8.5a.3.3 0 00.2 0l.9-.5v-.2l-.9-.4a.3.3 0 00-.2 0z" class="cls-7"/><path d="M368.9 336l-.9.5v.1l.8.5a.3.3 0 00.3 0l.8-.5v-.1l-.8-.5a.3.3 0 00-.2 0zM370 335.3l-.8.5c-.1 0 0 0 0 .1l.8.5a.3.3 0 00.2 0l.9-.5v-.1l-.8-.5a.3.3 0 00-.3 0zM371.2 334.6l-.8.5v.1l.8.5a.3.3 0 00.2 0l.9-.5v-.1l-.8-.5a.3.3 0 00-.3 0zM372.4 334l-.8.4c-.1 0-.1.1 0 .2l.8.4a.3.3 0 00.2 0l.8-.5c.1 0 .1 0 0-.1l-.7-.5a.3.3 0 00-.3 0z" class="cls-7"/><path d="M373.6 333.3l-.9.4v.2l.8.5a.3.3 0 00.3 0l.8-.5c.1 0 0-.1 0-.2l-.8-.4a.3.3 0 00-.2 0zM374.8 332.6l-.9.5v.1l.8.5a.3.3 0 00.3 0l.8-.5v-.2l-.8-.4a.3.3 0 00-.3 0zM376 331.9l-1 .5v.1l.9.5a.3.3 0 00.3 0l.8-.5v-.2l-.8-.4a.3.3 0 00-.3 0zM377.1 331.2l-.8.5c-.1 0 0 .1 0 .2l.8.4a.3.3 0 00.2 0l.9-.5v-.1l-.8-.5a.3.3 0 00-.3 0z" class="cls-7"/><path d="M378.3 330.5l-.9.5v.2l.8.4a.3.3 0 00.3 0l.8-.4c.1 0 0-.1 0-.2l-.8-.5a.3.3 0 00-.2 0zM379.4 329.9l-.8.5v.1l.8.5a.3.3 0 00.3 0l.8-.5v-.2l-.8-.4a.3.3 0 00-.3 0zM365.3 338l-1.7 1v.1l.8.5a.3.3 0 00.3 0l1.7-1v-.2l-.8-.4a.3.3 0 00-.3 0zM364.8 337l-.8.5c-.1 0-.1 0 0 .1l.8.5a.3.3 0 00.2 0l.9-.5v-.1l-.8-.5a.3.3 0 00-.3 0zM366 336.3l-.8.5c-.1 0 0 .1 0 .2l.8.4a.3.3 0 00.2 0l.8-.4v-.2l-.8-.4a.3.3 0 00-.2 0zM367.1 335.7l-.8.4v.2l.8.5a.3.3 0 00.3 0l.8-.5v-.2l-.8-.4a.3.3 0 00-.3 0zM368.3 335l-.8.5v.1l.8.5a.3.3 0 00.2 0l.9-.5v-.1l-.8-.5a.3.3 0 00-.3 0zM369.5 334.3l-.8.5c-.1 0-.1 0 0 .1l.8.5a.3.3 0 00.2 0l.9-.5v-.1l-.8-.5a.3.3 0 00-.3 0zM370.7 333.6l-.9.5v.1l.8.5a.3.3 0 00.3 0l.8-.5v-.1l-.8-.5a.3.3 0 00-.2 0zM371.8 333l-.8.4v.2l.8.4a.3.3 0 00.3 0l.8-.5v-.1l-.8-.5a.3.3 0 00-.3 0zM373 332.3l-.8.4c-.1 0 0 .2 0 .2l.8.5a.3.3 0 00.2 0l.9-.5v-.2l-.8-.4a.3.3 0 00-.3 0zM374.2 331.6l-.8.5c-.1 0-.1 0 0 .1l.8.5a.3.3 0 00.2 0l.9-.5v-.2l-.8-.4a.3.3 0 00-.3 0zM375.4 330.9l-.9.5v.1l.8.5a.3.3 0 00.3 0l.8-.5c.1 0 0-.1 0-.2l-.8-.4a.3.3 0 00-.2 0zM376.6 330.2l-.9.5v.2l.8.4a.3.3 0 00.3 0l.8-.5v-.1l-.8-.5a.3.3 0 00-.3 0zM379.2 328.7l-2.3 1.3v.1l.8.5a.3.3 0 00.3 0l2.2-1.3c.1 0 .1-.1 0-.2l-.8-.4a.3.3 0 00-.2 0zM363.6 337.7l-1.1.7v.1l.8.5a.3.3 0 00.2 0l1.2-.7v-.2l-.8-.4a.3.3 0 00-.3 0zM383.8 331.4L367 341v.1l.4.3a.3.3 0 00.2 0l16.7-9.7c.1 0 .1 0 0-.1l-.4-.3a.3.3 0 00-.2 0z" class="cls-7"/><path id="_Контур_25" d="M364.2 331.8l.2.1 2.8 1.6 5.2-2.9.1-.1-3-1.7-5.3 3z" class="cls-14" data-name="&lt;Контур&gt;"/><path id="_Контур_26" d="M364.4 331.9l2.8 1.6 5.2-2.9-2.9-1.7-5.1 3z" class="cls-15" data-name="&lt;Контур&gt;"/><path id="_Контур_27" d="M356 335.7v.2a1 1 0 00.5 1l10.2 5.8a1 1 0 00.5.2 1 1 0 00.5-.2l18.5-10.6a1 1 0 00.5-1v-.2l-19.5 11.3z" class="cls-15" data-name="&lt;Контур&gt;"/><path id="_Контур_28" d="M367.5 342.3a1.3 1.3 0 001.1 0l18.3-10.6a1.3 1.3 0 00.6-1l2-12a1.4 1.4 0 000-.1 1.2 1.2 0 00-.3-.9l-19 11a1 1 0 00-.5.6z" class="cls-9" data-name="&lt;Контур&gt;"/><path id="_Контур_29" d="M367.2 342.2h.2l.1.1 2.2-13a1 1 0 01.5-.6l19-11a1.2 1.2 0 00-.3-.2l-19 11a1 1 0 00-.5.7z" class="cls-15" data-name="&lt;Контур&gt;"/></g></g><path id="_Контур_30" d="M353.4 291s.2 4.6.1 5-2 1.7-2.6 2.2 3.1 4.2 5 5 7.5-1.3 7.6-4.2-1-5.1-1.8-5.3l-8.3-2.7z" class="cls-8" data-name="&lt;Контур&gt;"/><path id="_Контур_31" d="M352.9 296.7s3.3 5 8 5.4c1.4-1.4 1.5-6.5-.5-8.2 0 0 1.8-1.5 3-1.2a6.5 6.5 0 013 3.7 30 30 0 011.6 10.5v17a10.4 10.4 0 01-4.9 7 15 15 0 01-10.9 1.5 5.4 5.4 0 01-4-3.5c.2-3.4 1.6-10.4 1-14.7s-1.5-7.4-1.7-10.8.5-3.4 2.2-4.6a27.4 27.4 0 013.2-2z" class="cls-9" data-name="&lt;Контур&gt;"/><path id="_Контур_32" d="M358.2 336a23.7 23.7 0 00-2.6-1.5 5.3 5.3 0 01-2.2-1.4c-.8-.8-2.1-3.8-3-6.7a30 30 0 01-1.2-10.2c.4-4 1.9-9.8 2.3-12.2s-.4-3.3-1.5-4.2c-1.3-1-3.1-.5-4 2.8a63.9 63.9 0 00-2.2 14 32 32 0 001.6 10.3 37.7 37.7 0 004 8.2c.5.7.6 1.4 1.3 3a10.6 10.6 0 003 4c1.1.8 1.7 1 2 .8s.3-.6-.2-1a8.6 8.6 0 01-2-2.3l1.6 1.5a8.8 8.8 0 002 1.3c.6.3 1.5-.3 1-.8l-1.9-1.5a8.7 8.7 0 01-1.4-1.5 15.9 15.9 0 002.2 1.4 3.5 3.5 0 002 .5c.3 0 .8-.5.1-1a12.5 12.5 0 01-2.5-1.7c-.8-.8-1.2-1.4-1-1.4s.6.5 1.5.7 1.8 0 1.9-.4 0-.4-.8-.8z" class="cls-8" data-name="&lt;Контур&gt;"/><path id="_Контур_33" d="M363.7 284.2c-.5-3.6-3-6.2-6.7-6a7 7 0 00-3.6 12.8 7.3 7.3 0 00.6 1.6c1.3 1.5 5.1 2.4 6.3 2.2a3.4 3.4 0 002.9-2.4c1.2-2.8.8-6.5.5-8.2z" class="cls-8" data-name="&lt;Контур&gt;"/><path d="M353.4 291l.3-3s-2.5-6.6 3.5-5.3c3.9.8 4.9 1.1 6-1.5s-3-5-8-4.3a7 7 0 00-6.1 7c0 1.9.6 5.8 4.3 7.1z" class="cls-7"/><path d="M343.2 308.7s3.3 3.2 7.1 2.3c.6-.4 1.9-8 1.9-8s0-4.1-3.2-4-5.8 9.7-5.8 9.7zM367.7 302.4a3.6 3.6 0 002.4-1c0-1.8-2.3-8.2-6.6-8.7a8 8 0 012.7 3.3 42.5 42.5 0 011.5 6.4z" class="cls-13"/></g></g></g></svg>