<svg width="123" height="112" viewBox="0 0 123 112" fill="none" xmlns="http://www.w3.org/2000/svg">
<path d="M53.7 84.0001C48.1 74.6001 65.2 74.1001 60 84.0001M35.9057 30.0063L36.8774 39.1056L36.3096 39.1002C35.2124 39.0896 34.1333 39.3801 33.1896 39.9402L33.1873 39.9416C32.6581 40.2576 32.2391 40.729 31.9873 41.2916L31.9776 41.3131L31.969 41.3351C31.7572 41.8752 31.6656 42.4547 31.7001 43.0335C31.7109 44.9252 32.6431 47.1164 34.2647 49.5499L39.453 57.5319C41.2532 60.5017 43.2779 63.6621 45.662 66.0223L45.2229 66.8347L44.9356 66.5227C42.5556 63.9382 40.4523 61.112 38.6601 58.09L38.6556 58.0824L38.6509 58.0749L33.6509 49.9748L33.6238 49.9308L33.5922 49.8898C32.0604 47.9015 31.0958 45.5359 30.8002 43.0442C30.8073 42.2232 30.9698 41.4773 31.2177 40.8015C31.5353 40.1845 31.9946 39.6553 32.5922 39.2721L33.7472 38.6945L34.343 38.3967L34.2977 37.7321C34.0015 33.3874 33.9018 27.8584 34.0961 23.3116L34.6757 20.124C35.9016 15.7415 39.0007 12.2373 42.845 9.73855L42.845 9.73861L42.8547 9.73216C44.271 8.78797 45.692 8.12241 47.3298 7.54417C49.1943 6.89913 49.7477 5.15728 50.1092 4.01916C50.1364 3.93351 50.1625 3.85128 50.188 3.77319C50.4005 3.12296 50.5693 2.69284 50.8019 2.40432C50.9785 2.18537 51.215 2.01624 51.7289 1.9997C55.2901 1.90677 60.1408 3.39993 64.7798 5.62663C69.4017 7.84514 73.6288 10.7024 75.965 13.1783C78.5891 16.087 80.3072 19.9532 80.6991 25.0269L80.4003 38.2776L80.3828 39.0495L81.1253 39.2616C81.6851 39.4216 82.0987 39.6668 82.4083 39.985C82.7174 40.3027 82.9677 40.7393 83.1317 41.3502C83.4381 42.5874 83.1741 44.4739 81.8585 47.5274L81.807 47.5789L81.7441 47.683L75.9441 57.283L75.9339 57.2999L75.9244 57.3172C73.9558 60.8862 71.5198 64.1762 68.6812 67.1001H67.4713C67.6086 66.9804 67.7442 66.8587 67.8783 66.7349L67.8804 66.7329C70.8011 64.0209 73.0693 60.2949 75.1555 56.8179C75.1562 56.8168 75.1568 56.8157 75.1575 56.8146L80.9535 47.3212L80.9935 47.2556L81.0231 47.1847C81.5326 45.9618 81.9044 44.9077 82.1218 44.0107C82.336 43.1276 82.4222 42.3121 82.2806 41.604L82.2684 41.543L82.2487 41.4839C81.8417 40.2628 80.6422 39.9089 79.4905 39.8042L79.4454 39.8001H79.4H78.7H78.6377L78.576 39.8078L77.8377 39.9001H77.1528L78.8751 32.3217L79.2022 30.8826L77.7444 31.1123C71.6169 32.0776 66.1646 30.6596 60.5089 29.1887C59.659 28.9677 58.8046 28.7455 57.9425 28.53C51.3893 26.8917 44.5266 25.6997 36.5214 28.9746L35.8259 29.2591L35.9057 30.0063ZM67.274 68.3668L66.7355 67.7086C66.9114 67.5709 67.0845 67.4299 67.2552 67.2857L68.1679 68.6548L69.3679 70.4548L69.3732 70.4627L69.3786 70.4705L71.8786 74.0705L71.9575 74.1841L72.0643 74.272C73.7 75.6191 76.0398 76.6713 78.5639 77.5883C76.3669 82.9827 75.4908 88.8299 76.0161 94.6412C76.5179 100.194 78.284 105.549 81.1691 110.3H6.23922C4.4604 110.157 3.23938 109.639 2.43453 108.884C1.65725 108.154 1.16319 107.104 1.01039 105.659L2.27732 99.8118L2.29148 99.7465L2.29682 99.6798C2.68447 94.8341 4.03282 91.2209 6.1032 88.3959C7.49097 86.5471 9.26215 85.2322 11.1819 84.1763L11.182 84.1764L11.193 84.1701C12.5772 83.3858 14.5866 82.6994 17.0041 82.0433C18.9926 81.5037 21.1954 81.0001 23.4719 80.4796C23.9491 80.3705 24.4295 80.2607 24.9119 80.1496C27.6809 79.5121 30.5045 78.836 33.0616 78.0392C35.6087 77.2455 37.9574 76.3125 39.7489 75.136L39.9146 75.0272L40.0262 74.8635L43.0206 70.4717C43.3257 70.0431 43.6347 69.6173 43.9474 69.1943L43.1477 70.6739L39.6808 75.6266L39.4459 75.9622L39.5139 76.3662C40.8844 84.5036 43.7804 90.7181 46.6134 96.7973C47.1442 97.9364 47.6728 99.0707 48.1888 100.212L49.3036 102.678L50.0601 100.08L54.6601 84.2796L54.7817 83.862L54.5591 83.4883C53.2704 81.3252 53.4332 79.9461 53.9088 79.1599C54.4172 78.3193 55.4951 77.7886 56.7214 77.7624C57.9464 77.7362 59.0419 78.2192 59.5852 79.0493C60.0985 79.8337 60.3178 81.2447 59.1147 83.5351L58.9298 83.8871L59.0371 84.27L63.4371 99.9699L64.1595 102.547L65.304 100.128C65.506 99.7005 65.7087 99.2734 65.9115 98.8461C69.2028 91.9113 72.5262 84.9088 73.3943 76.8066L73.443 76.352L73.1311 76.0178C71.796 74.5874 70.3396 72.4567 69.1321 70.6454L69.1049 70.6047L69.074 70.5669L67.274 68.3668ZM33.8219 42.0888C33.9064 41.9106 34.0418 41.7612 34.2112 41.6596C34.5702 41.4466 34.9587 41.2921 35.3621 41.2001H36.2H38H39.1125L38.9943 40.0939L37.9753 30.5515C45.0733 27.8678 51.214 28.9094 57.4575 30.4703C58.2898 30.6783 59.1262 30.8967 59.9682 31.1165C65.1848 32.4782 70.6157 33.8958 76.6071 33.2766L74.9249 40.6785L74.6472 41.9001H75.9H77.9H77.9623L78.024 41.8924L78.7623 41.8001H79.353C79.8203 41.8459 80.0848 41.9263 80.2262 41.9998C80.2889 42.0325 80.3181 42.0576 80.3331 42.0778C80.374 42.3756 80.3477 42.8402 80.1781 43.5395C79.9993 44.2774 79.6805 45.2006 79.2062 46.345L73.4465 55.779L73.4425 55.7856C71.3296 59.3071 69.1986 62.7792 66.5207 65.2662C64.0835 67.5156 61.1195 69.0001 56.9 69.0001H56.8999C53.4973 69.0006 50.2302 67.6671 47.7999 65.2858L47.7817 65.268L47.7626 65.2511C45.2912 63.0649 43.161 59.7913 41.1552 56.4818L41.147 56.4683L41.1384 56.4551L35.9384 48.4551L35.9385 48.4551L35.932 48.4454C34.3653 46.0952 33.7 44.2995 33.7 43.0001V42.9659L33.6977 42.9318C33.678 42.645 33.7204 42.3575 33.8219 42.0888ZM44.8192 71.7736L44.8523 71.7263L44.8797 71.6756L46.3076 69.0339C49.1928 71.2155 52.6448 72.5 57 72.5C61.0307 72.5 63.5788 72.0669 66.3032 70.3387L67.4951 71.7955C68.5986 73.4501 69.9974 75.5052 71.3554 77.0375C70.5061 84.1594 67.6859 90.4181 64.6413 96.8555L61.0677 84.1043C62.2829 81.6029 62.2659 79.4931 61.2586 77.954C60.2331 76.3873 58.3786 75.7265 56.6786 75.7628C54.9799 75.7991 53.1578 76.5372 52.1975 78.1247C51.2548 79.6832 51.3197 81.7522 52.6213 84.1279L48.8895 96.9457C48.7282 96.5985 48.5669 96.252 48.4058 95.9059C45.6266 89.9368 42.9031 84.0875 41.5554 76.4362L44.8192 71.7736Z" fill="white" stroke="black" stroke-width="2"/>
<path d="M112.496 71.4866L112.583 70.4882L111.584 70.4036L99.7844 69.4036L99.5964 69.3876C101.324 69.0763 103.256 68.9 105.3 68.9C109.107 68.9 112.527 69.5118 114.959 70.4681C116.178 70.9475 117.099 71.4938 117.698 72.05C118.295 72.605 118.5 73.0957 118.5 73.5C118.5 73.8684 118.306 74.3387 117.705 74.8851C117.106 75.4302 116.184 75.9688 114.963 76.4428C112.528 77.3883 109.106 78 105.3 78C101.494 78 98.0716 77.3883 95.637 76.4428C94.4164 75.9688 93.4942 75.4302 92.8946 74.8851C92.2936 74.3387 92.1 73.8684 92.1 73.5C92.1 73.0957 92.3047 72.605 92.9023 72.05C93.5013 71.4938 94.4219 70.9475 95.6409 70.4681C96.5485 70.1113 97.5938 69.8024 98.7454 69.5553L98.7015 70.3445L98.6015 72.1445L98.5627 72.8434L99.2061 73.1191C99.6634 73.3151 100.114 73.7401 100.432 74.2961L100.457 74.3401L100.486 74.3812C100.912 74.9775 101.173 75.5802 101.351 76.1162L101.567 76.7646L102.25 76.7988L104.25 76.8988L105.665 76.9695L105.258 75.6127C105.107 75.1093 104.929 74.5957 104.7 74.076L111.205 74.6955L112.209 74.7911L112.296 73.7866L112.496 71.4866ZM102.995 71.9045L100.839 71.6992L100.954 71.8639C100.851 71.7807 100.744 71.702 100.633 71.6284L100.641 71.4834L110.417 72.3118L110.391 72.6089L102.995 71.9045ZM120.5 73.5C120.5 72.8066 120.282 72.1723 119.922 71.6054C121.037 72.7231 121.6 73.9248 121.6 75.1C121.6 77.0361 120.07 79.024 117.053 80.587C114.084 82.1245 109.923 83.1 105.3 83.1C100.677 83.1 96.5159 82.1245 93.5474 80.587C90.5295 79.024 89 77.0361 89 75.1C89 73.9387 89.5502 72.7589 90.6418 71.6632C90.3036 72.2153 90.1 72.8301 90.1 73.5C90.1 74.6316 90.7064 75.5988 91.5492 76.3649C92.3933 77.1323 93.5586 77.7812 94.913 78.3072C97.6284 79.3617 101.306 80 105.3 80C109.294 80 112.972 79.3617 115.687 78.3072C117.041 77.7812 118.207 77.1323 119.051 76.3649C119.894 75.5988 120.5 74.6316 120.5 73.5ZM115.939 104.731C118.204 103.845 120.141 102.663 121.514 101.25C121.572 101.512 121.6 101.76 121.6 102C121.6 103.936 120.07 105.924 117.053 107.487C114.084 109.025 109.923 110 105.3 110C100.677 110 96.5159 109.025 93.5474 107.487C90.5295 105.924 89 103.936 89 102C89 101.736 89.0261 101.488 89.0789 101.243C90.4527 102.659 92.3925 103.844 94.6606 104.731C97.6632 105.906 101.338 106.6 105.3 106.6C109.262 106.6 112.937 105.906 115.939 104.731ZM116.018 95.6174C118.261 94.7297 120.174 93.5419 121.52 92.1097C121.573 92.3702 121.6 92.6321 121.6 92.9C121.6 94.8361 120.07 96.824 117.053 98.387C114.084 99.9245 109.923 100.9 105.3 100.9C100.677 100.9 96.5159 99.9245 93.5474 98.387C90.5295 96.824 89 94.8361 89 92.9C89 92.6309 89.0272 92.3679 89.0809 92.1062C90.4356 93.5418 92.3683 94.7305 94.621 95.6179C97.638 96.8064 101.339 97.5 105.3 97.5C109.31 97.5 113.012 96.8068 116.018 95.6174ZM89 83.8C89 83.6021 89.0147 83.4142 89.0437 83.2326C90.3563 84.6641 92.2739 85.8414 94.5098 86.7184C97.5405 87.9072 101.291 88.6 105.3 88.6C109.31 88.6 113.035 87.9069 116.065 86.7184C118.294 85.8443 120.205 84.6778 121.557 83.2709C121.585 83.45 121.6 83.6267 121.6 83.8C121.6 85.7361 120.07 87.724 117.053 89.287C114.084 90.8245 109.923 91.8 105.3 91.8C100.677 91.8 96.5159 90.8245 93.5474 89.287C90.5295 87.724 89 85.7362 89 83.8Z" fill="white" stroke="#F9CB07" stroke-width="2"/>
</svg>
