<svg xmlns="http://www.w3.org/2000/svg" viewBox="0 0 122.9 74.9"><style type="text/css">  .st0{fill-rule:evenodd;clip-rule:evenodd;}</style><path class="st0" d="M58.1 57.4c4.8 10 19.3 10.3 23.8 0.1 -1.2-1.3-2.2-2.6-3.1-4 -0.1-0.2-0.3-0.4-0.4-0.7 -2.2 1.8-4.9 2.9-8.4 2.9 -3.8 0-6.6-1.4-8.9-3.6 -0.1-0.1-0.3-0.3-0.4-0.4 -0.3 0.9-0.8 2-1.2 3.1C59 55.8 58.6 56.7 58.1 57.4L58.1 57.4zM95.2 41.2h2.4l5.8-6.5c0.5-0.6 1.4-0.6 2-0.1v0c0.6 0.5 0.6 1.4 0.1 2l-4.1 4.6h12.6l-4.1-4.6c-0.5-0.6-0.5-1.5 0.1-2h0c0.6-0.5 1.5-0.5 2 0.1l5.8 6.5 2.3 0 0 0 2.1 0c0.5 0 0.9 0.4 0.9 0.9v2.4c0 0.5-0.4 0.9-0.9 0.9h-1.8l-0.9 11.9c0 0.3-0.3 0.6-0.6 0.6H96.4c-0.3 0-0.6-0.3-0.6-0.6l-0.9-11.9h-1.8c-0.5 0-0.9-0.4-0.9-0.9v-2.4c0-0.5 0.4-0.9 0.9-0.9l2.1 0L95.2 41.2 95.2 41.2zM111.6 45.8h2.7v7.9h-2.7V45.8L111.6 45.8zM106.3 45.8h2.7v7.9h-2.7V45.8L106.3 45.8zM101 45.8h2.7v7.9h-2.7V45.8L101 45.8zM42.2 59.8c0.7 0.3 1.5 0.6 2.2 0.9 4.5-1.1 9.4-2.3 12.3-4.3 0.4-0.6 0.8-1.4 1.2-2.3 0.6-1.3 1.1-2.8 1.5-3.8 -1.4-1.7-2.7-3.6-3.8-5.5l-3.9-6.2c-1.4-2.1-2.2-4.1-2.2-5.6 0-0.7 0.1-1.4 0.4-2 0.3-0.6 0.7-1.1 1.3-1.5 0.3-0.2 0.6-0.3 0.9-0.5 -0.2-3.3-0.3-7.6-0.2-11.1 0.1-0.8 0.2-1.7 0.5-2.5 1-3.5 3.5-6.4 6.6-8.4 1.7-1.1 3.6-1.9 5.5-2.4 1.2-0.3-1-4.3 0.2-4.4 6.2-0.6 16.2 5 20.5 9.7 2.2 2.3 3.5 5.4 3.8 9.5l-0.2 10.1v0c1.1 0.3 1.8 1 2.1 2.1 0.3 1.2 0 3-1.1 5.3l0 0c0 0 0 0.1-0.1 0.1l-4.4 7.3c-1.6 2.7-3.3 5.4-5.4 7.5 0.2 0.3 0.4 0.6 0.6 0.9 0.9 1.3 1.8 2.6 2.9 3.7 0 0 0.1 0.1 0.1 0.1 5.1 3.6 16.4 4.5 21.1 7.1 1.6 0.9 3 2 4.2 3.5 1 1.4 2.6 4.9 3.3 7.9 -37.2 0-74.5 0-111.7 0 -1.6-9 12.1-13.3 16.3-16.8 1.9-1.6 4-3.4 4.3-3.9 -0.6-0.6-1.1-1.2-1.7-1.9l-2.3-2.7 -1.7 0.1 -3.3 0.1C8.7 46.4 8.9 39.4 9.2 35.3c1.3-8.1 4.5-14 9.6-17.4 3.5-2.3 5.5-2.4 9.6-2.4 3.5 0 5.7-0.1 8.7 1.9 9.8 6.5 12.9 21.8 8.1 32.1h-3.4l-0.2 0.3 -0.3 0.4 -1.5 1.8c-0.9 1-1.7 2.1-2.8 3 0.6 0.8 2.4 2.3 3.9 3.7C41.3 59 41.8 59.4 42.2 59.8L42.2 59.8zM31.3 67.1c0-0.1 0.1-0.1 0.1-0.2 1.2-1.5 2.6-2.6 4.2-3.5 0.8-0.4 1.7-0.8 2.7-1.1 0.5-0.9 0.9-1.8 1.1-2.9 -1.5-1.3-3-2.6-3.7-3.5l-0.1 0.1c-1.7 1.2-3.7 1.9-6.6 1.9 -2.6 0-4.6-0.7-6.2-1.8 -0.4-0.3-0.8-0.6-1.1-0.9 -0.8 1-2.7 2.6-4.4 4.1l-0.4 0.3C16.8 65.3 24.8 68.6 31.3 67.1L31.3 67.1zM54.3 30.7c-0.9 0-1.5 0.2-2 0.5 -0.2 0.2-0.4 0.4-0.6 0.7 -0.1 0.3-0.2 0.6-0.2 1 0 1.2 0.7 2.7 1.9 4.5l0 0 0 0 3.9 6.2c1.6 2.5 3.2 5 5.2 6.9 2 1.8 4.3 3 7.5 3 3.4 0 5.9-1.2 7.9-3.1 2.1-2 3.8-4.6 5.4-7.3l4.4-7.2c0.8-1.9 1.1-3.1 0.9-3.8 -0.1-0.4-0.6-0.6-1.4-0.7 -0.2 0-0.3 0-0.5 0 -0.2 0-0.4 0-0.6 0 -0.1 0-0.2 0-0.3 0 -0.4 0-0.8 0-1.2-0.1l1.5-6.6c-11.1 1.8-19.4-6.5-31.2-1.6l0.9 7.8C55.2 30.8 54.7 30.8 54.3 30.7L54.3 30.7 54.3 30.7zM17.3 48.3c-2.7-9.4-1.5-18 5.9-25.4 1.3 4.2 4.2 7.7 9.2 10.3 2.4 1.8 4.7 3.9 6.9 6.4 0.4-1.6-1.1-3.6-2.9-5.6 1.7 0.8 3.3 2 4.4 4.3 1.3 2.6 1.3 4.8 0.8 7.7 -0.1 0.9-0.3 1.7-0.6 2.5 -0.1 0-0.1 0.1-0.2 0.2 -0.2 0.3-0.4 0.5-0.6 0.7 -0.1 0.1-0.1 0.2-0.3 0.4l-1.5 1.8c-1.1 1.4-2.3 2.8-3.8 3.8 -1.4 1-3.2 1.6-5.5 1.6 -2.2 0-3.9-0.6-5.2-1.5 -1.4-0.9-2.6-2.2-3.7-3.5l-2.7-3.2C17.4 48.4 17.3 48.4 17.3 48.3L17.3 48.3z"/></svg>