<svg xmlns="http://www.w3.org/2000/svg" id="Layer_1" x="0" y="0" version="1.1" viewBox="0 0 58.5 122.9" xml:space="preserve"><defs/><style>.st1{fill:#262626}</style><path fill="#d8182b" fill-rule="evenodd" d="M16 113.2c-6.5-5.7-7.2-19.9 5-26.3.7 6 1.8 10.2 3.4 12.8 2.2 3.9 7 4.3 9.5.4 1.9-2.7 3-7.5 4-13 10.3 5.2 12 19 4.9 26.2-1.8-3-4.6-11-6-4.8-.9 4.3-3 11.6-7.5 14.4-8.3-5.4-6.8-21-11-14.6a29 29 0 00-2.3 4.9z" clip-rule="evenodd"/><path d="M13.8 76.6c-13.7-26-10-56.4 14-76 .8-.8 2.1-.8 3 0 24.8 19.7 26.7 50 14.6 76.5L57.8 89c.6.6.8 1.4.6 2.2l-3.7 14.7a2.2 2.2 0 01-2.7 1.6l-.8-.4C32.8 93.6 29.8 95 12 103.2l-6 2.8c-1.1.5-2.4 0-3-1l-.2-.7L0 89.8a2 2 0 01.7-2l13-11.2z" class="st1"/><path fill="#fff" fill-rule="evenodd" d="M21.5 76.5C9 55.6 7.2 26.8 28 9.5c.7-.5 1.6-.4 2.2 0 20.6 16.4 19.4 46.6 7 67H21.6z" clip-rule="evenodd"/><path d="M29 46.4c-1.7 0-3.4.6-4.7 1.9a6.2 6.2 0 00-2 4.5c0 1.6.7 3.2 2 4.5a7 7 0 009.5 0c1.3-1.3 2-2.9 2-4.5 0-1.7-.7-3.3-2-4.5a6.9 6.9 0 00-4.8-1.9z" class="st1"/><path fill="#262626" fillRule="evenodd" d="M12.5 34.3h32.9l1.9 6.1H10.8l1.7-6.1z" clip-rule="evenodd"/></svg>