<svg xmlns="http://www.w3.org/2000/svg" viewBox="0 0 94.6 122.9"><style type="text/css">  .st0{fill-rule:evenodd;clip-rule:evenodd;}</style><path fill="#fff" class="st0" d="M38.1 21.2c-1.9-5.6-3.6-11.2-5-17 5.4-5.9 26.2-5.1 32.1-0.1l-5.5 13.2c3-3.9 4-5.5 5.8-7.7 0.8 0.5 1.5 1 2.1 1.6 1.6 1.4 3 3 3.3 5.2 0.2 1.4-0.2 2.9-1.5 4.4L56.6 35.5c-1.6-0.3-3.2-0.7-4.8-1.2 0.7-1.7 1.6-3.6 2.3-5.2L49.5 34c-4.8-1-8.7-0.4-12.3 1.5L24.4 20.1c-0.8-0.9-1.1-1.8-1.1-2.8 0-3.7 5.6-7 8.5-8.2L38.1 21.2 38.1 21.2zM54.6 49.1l-2.5-11.5c10.8 2 28 23.9 33.6 33.8 2.8 5.1 5.3 10.7 7.4 16.9 4.1 15.1 0.2 29.3-16.3 32.6 -10.3 2.1-29.5 2.2-40.3 1.7 -11.6-0.6-29.6-0.6-34.3-12.5 -7.6-19.3 6.3-42.2 19-56.3 1.7-1.8 3.4-3.6 5.2-5.2 4.6-4.1 9.6-8.9 15.5-10.9l-5.7 10.7 8.3-11h4.4L54.6 49.1 54.6 49.1zM49.3 58.5v2c2.2 0.2 4 0.7 5.5 1.3 1.5 0.7 2.9 1.7 4 3 0.9 1 1.6 2.1 2.1 3.2 0.5 1.1 0.7 2.1 0.7 3 0 1-0.4 1.9-1.1 2.6 -0.7 0.7-1.6 1.1-2.7 1.1 -2 0-3.3-1.1-3.8-3.2 -0.7-2.5-2.3-4.2-4.8-5v12.6c2.5 0.7 4.5 1.3 6 1.9 1.5 0.6 2.8 1.4 4 2.4 1.3 1.1 2.2 2.4 2.9 4 0.7 1.5 1 3.2 1 5.1 0 2.3-0.5 4.4-1.6 6.4 -1.1 2-2.7 3.6-4.8 4.9 -2.1 1.3-4.6 2-7.5 2.3v2.1c0 1.2-0.1 2.1-0.3 2.6 -0.2 0.5-0.7 0.8-1.5 0.8 -0.7 0-1.2-0.2-1.5-0.7 -0.3-0.4-0.4-1.1-0.4-2.1v-2.7c-2.3-0.3-4.4-0.8-6.2-1.7 -1.8-0.8-3.2-1.9-4.4-3.1 -1.2-1.3-2-2.6-2.6-3.9 -0.6-1.4-0.8-2.7-0.8-4 0-1 0.4-1.8 1.1-2.6 0.8-0.8 1.7-1.2 2.8-1.2 0.9 0 1.7 0.2 2.3 0.6 0.6 0.4 1.1 1 1.3 1.8 0.5 1.7 1 2.9 1.4 3.8 0.4 0.9 1 1.7 1.8 2.4 0.8 0.7 1.9 1.3 3.2 1.7V85.8c-2.7-0.7-4.9-1.6-6.7-2.5 -1.8-0.9-3.3-2.2-4.4-3.9 -1.1-1.7-1.7-3.9-1.7-6.5 0-3.5 1.1-6.3 3.3-8.5 2.2-2.2 5.4-3.5 9.5-3.9v-2c0-1.7 0.6-2.5 1.9-2.5C48.7 56 49.3 56.8 49.3 58.5L49.3 58.5zM45.5 78V66.4c-1.7 0.5-3 1.2-3.9 2 -0.9 0.8-1.4 2.1-1.4 3.8 0 1.6 0.4 2.8 1.3 3.6C42.3 76.6 43.7 77.3 45.5 78L45.5 78zM49.3 86.9v13.2c2-0.4 3.6-1.2 4.7-2.4 1.1-1.2 1.7-2.7 1.7-4.3 0-1.7-0.5-3.1-1.6-4.1C53 88.4 51.4 87.6 49.3 86.9L49.3 86.9z"/></svg>