<svg width="740" height="734" viewBox="0 0 740 734" fill="none" xmlns="http://www.w3.org/2000/svg">
<path fill-rule="evenodd" clip-rule="evenodd" d="M468.082 120.53C513.291 151.092 547.565 191.897 575.299 238.894C606.705 292.115 644.25 347.036 638.029 408.518C631.509 472.966 597.096 538.303 541.621 571.751C488.772 603.615 422.766 575.718 361.054 575.514C307.615 575.337 254.301 590.614 204.736 570.636C149.963 548.559 90.2808 515.588 72.5918 459.244C55.1341 403.638 99.164 349.975 118.161 294.875C134.439 247.665 144.073 199.218 175.598 160.49C211.842 115.966 252.94 67.1975 309.822 59.4261C367.256 51.5793 420.059 88.0647 468.082 120.53Z" fill="#95C9EC" fill-opacity="0.28"/>
</svg>
