<?xml version="1.0" encoding="UTF-8" standalone="no"?>
<svg
   xmlns:dc="http://purl.org/dc/elements/1.1/"
   xmlns:cc="http://creativecommons.org/ns#"
   xmlns:rdf="http://www.w3.org/1999/02/22-rdf-syntax-ns#"
   xmlns:svg="http://www.w3.org/2000/svg"
   xmlns="http://www.w3.org/2000/svg"
   xmlns:sodipodi="http://sodipodi.sourceforge.net/DTD/sodipodi-0.dtd"
   xmlns:inkscape="http://www.inkscape.org/namespaces/inkscape"
   id="Layer_1"
   data-name="Layer 1"
   viewBox="0 0 1200 1200"
   version="1.1"
   sodipodi:docname="splash.svg"
   inkscape:version="1.0.1 (3bc2e813f5, 2020-09-07)">
  <metadata
     id="metadata93">
    <rdf:RDF>
      <cc:Work
         rdf:about="">
        <dc:format>image/svg+xml</dc:format>
        <dc:type
           rdf:resource="http://purl.org/dc/dcmitype/StillImage" />
        <dc:title></dc:title>
      </cc:Work>
    </rdf:RDF>
  </metadata>
  <sodipodi:namedview
     pagecolor="#ffffff"
     bordercolor="#666666"
     borderopacity="1"
     objecttolerance="10"
     gridtolerance="10"
     guidetolerance="10"
     inkscape:pageopacity="0"
     inkscape:pageshadow="2"
     inkscape:window-width="1366"
     inkscape:window-height="768"
     id="namedview91"
     showgrid="false"
     inkscape:zoom="0.51416667"
     inkscape:cx="621.32903"
     inkscape:cy="584.04982"
     inkscape:window-x="37"
     inkscape:window-y="953"
     inkscape:window-maximized="0"
     inkscape:current-layer="Layer_1" />
  <defs
     id="defs4">
    <style
       id="style2">.cls-1{fill:#ebe9f0;}.cls-2{fill:#adadad;}.cls-3{fill:#efefef;stroke-width:4px;}.cls-10,.cls-11,.cls-12,.cls-13,.cls-14,.cls-15,.cls-3,.cls-5,.cls-6,.cls-7,.cls-8,.cls-9{stroke:#353535;}.cls-10,.cls-11,.cls-12,.cls-13,.cls-14,.cls-15,.cls-16,.cls-3,.cls-5,.cls-6,.cls-7,.cls-8,.cls-9{stroke-miterlimit:10;}.cls-4{fill:#353535;}.cls-10,.cls-11,.cls-12,.cls-13,.cls-14,.cls-15,.cls-16,.cls-5,.cls-6,.cls-7,.cls-8,.cls-9{fill:none;}.cls-6{stroke-dasharray:11.92 11.92;}.cls-7{stroke-dasharray:11.92 11.92;}.cls-8{stroke-dasharray:11.11 11.11;}.cls-9{stroke-dasharray:12.13 12.13;}.cls-10{stroke-dasharray:11.9 11.9;}.cls-11{stroke-dasharray:11.73 11.73;}.cls-12{stroke-dasharray:11.58 11.58;}.cls-13{stroke-dasharray:12.49 12.49;}.cls-14{stroke-dasharray:10.54 10.54;}.cls-15{stroke-dasharray:12.84 12.84;}.cls-16{stroke:#38313e;stroke-dasharray:12;}</style>
  </defs>
  <path
     class="cls-1"
     d="m 1061.1022,761.03656 c 22.79,-57.61 9,-132.7 -43.4,-165.71 -22.00001,-13.84 -49.93001,-20.53 -64.83005,-41.82 -33.06,-52.56 30.69004,-147.57 22.66004,-216 3.5,-116.16004 -37.50004,-167.85004 -179.41004,-178.03004 -141.91,-10.18 -233.52,74.94 -265.74,93.75 -70.61,41.22 -162.48,-2.68 -241.35,18.76 -70.17,19.06 -119.4901,95.55004 -107.9001,167.36004 9.45,58.49 53.5001,112.47 41.8501,170.56 -30.9001,106 -199.690104,160.38 -60.0001,285.72 73.0001,51.60002 168.0001,33.79 252.0701,38.61 60.37,3.67002 119.25,19.28002 178.35,32.12002 120.09,32 253.31,27.64 339.43,-71.71002 47.76004,-44.25 102.58005,-68.67 128.27005,-133.61 z"
     id="path6" />
</svg>
