<svg xmlns="http://www.w3.org/2000/svg" viewBox="0 0 93.2 122.9"><path fill="#fff" d="M59.4 0.6C59 0.2 58.4 0 57.9 0c-0.1 0-0.2 0-0.3 0H4.8c-1.3 0-2.5 0.5-3.4 1.4C0.5 2.3 0 3.5 0 4.9v97.3c0 1.3 0.5 2.5 1.4 3.4 0.9 0.9 2.1 1.4 3.4 1.4h29.8v-4.3H4.8c-0.1 0-0.3 0-0.3-0.2 -0.1-0.1-0.2-0.2-0.2-0.3V4.9c0-0.2 0-0.3 0.2-0.3 0.1-0.1 0.2-0.2 0.4-0.2h50.9 0v0 18.9c0 1.8 0.7 3.5 1.9 4.6 1.2 1.2 2.8 1.9 4.6 1.9h18.5v20.7h4.4V28.1c0-0.2 0.1-0.3 0.1-0.5 0-0.6-0.3-1.2-0.7-1.6L59.6 0.7c-0.1-0.1-0.1-0.1-0.2-0.2H59.4L59.4 0.6 59.4 0.6zM47.6 58.9h41.9c1 0 2 0.4 2.6 1.1l0.1 0.1c0.6 0.7 1 1.6 1 2.5v56.6c0 1-0.4 1.9-1.1 2.6l0 0c-0.7 0.7-1.6 1.1-2.6 1.1H47.6c-1 0-1.9-0.4-2.6-1.1l-0.1-0.1c-0.6-0.7-1-1.6-1-2.5v-56.6c0-1 0.4-1.9 1.1-2.6l0 0C45.7 59.3 46.6 58.9 47.6 58.9L47.6 58.9 47.6 58.9zM80.9 69.7h1.2v6.4h-1.2V69.7L80.9 69.7 80.9 69.7 80.9 69.7zM52.7 85.9h5.9c0.5 0 0.9 0.4 0.9 0.9v4.9c0 0.5-0.4 0.9-0.9 0.9h-5.8c-0.5 0-0.9-0.4-0.9-0.9v-4.9C51.8 86.3 52.2 85.9 52.7 85.9L52.7 85.9 52.7 85.9 52.7 85.9zM52.7 109.4h5.9c0.5 0 0.9 0.4 0.9 0.9v4.9c0 0.5-0.4 0.9-0.9 0.9h-5.8c-0.5 0-0.9-0.4-0.9-0.9v-4.9C51.8 109.8 52.2 109.4 52.7 109.4L52.7 109.4 52.7 109.4 52.7 109.4 52.7 109.4zM52.7 97.6h5.9c0.5 0 0.9 0.4 0.9 0.9v4.9c0 0.5-0.4 0.9-0.9 0.9h-5.8c-0.5 0-0.9-0.4-0.9-0.9v-4.9C51.8 98.1 52.2 97.6 52.7 97.6L52.7 97.6 52.7 97.6 52.7 97.6zM78.6 85.9h5.9c0.5 0 0.9 0.4 0.9 0.9v4.9c0 0.5-0.4 0.9-0.9 0.9h-5.8c-0.5 0-0.9-0.4-0.9-0.9v-4.9C77.7 86.3 78.1 85.9 78.6 85.9L78.6 85.9 78.6 85.9 78.6 85.9zM78.6 109.4h5.9c0.5 0 0.9 0.4 0.9 0.9v4.9c0 0.5-0.4 0.9-0.9 0.9h-5.8c-0.5 0-0.9-0.4-0.9-0.9v-4.9C77.7 109.8 78.1 109.4 78.6 109.4L78.6 109.4 78.6 109.4 78.6 109.4zM78.6 97.6h5.9c0.5 0 0.9 0.4 0.9 0.9v4.9c0 0.5-0.4 0.9-0.9 0.9h-5.8c-0.5 0-0.9-0.4-0.9-0.9v-4.9C77.7 98.1 78.1 97.6 78.6 97.6L78.6 97.6 78.6 97.6 78.6 97.6zM65.6 85.9h5.9c0.5 0 0.9 0.4 0.9 0.9v4.9c0 0.5-0.4 0.9-0.9 0.9h-5.8c-0.5 0-0.9-0.4-0.9-0.9v-4.9C64.7 86.3 65.1 85.9 65.6 85.9L65.6 85.9 65.6 85.9 65.6 85.9zM65.6 109.4h5.9c0.5 0 0.9 0.4 0.9 0.9v4.9c0 0.5-0.4 0.9-0.9 0.9h-5.8c-0.5 0-0.9-0.4-0.9-0.9v-4.9C64.7 109.8 65.1 109.4 65.6 109.4L65.6 109.4 65.6 109.4 65.6 109.4zM65.6 97.6h5.9c0.5 0 0.9 0.4 0.9 0.9v4.9c0 0.5-0.4 0.9-0.9 0.9h-5.8c-0.5 0-0.9-0.4-0.9-0.9v-4.9C64.7 98.1 65.1 97.6 65.6 97.6L65.6 97.6 65.6 97.6 65.6 97.6zM51.9 65.9h33.3c0.5 0 1 0.2 1.3 0.5l0.1 0.1c0.3 0.3 0.5 0.8 0.5 1.2V78.1c0 0.5-0.2 1-0.5 1.3l0 0c-0.3 0.3-0.8 0.5-1.3 0.5H51.9c-0.5 0-1-0.2-1.3-0.5l-0.1-0.1c-0.3-0.3-0.5-0.7-0.5-1.2V67.7c0-0.5 0.2-0.9 0.5-1.3l0 0C51 66.1 51.4 65.9 51.9 65.9L51.9 65.9 51.9 65.9zM85 67.9H52.2v9.9h32.8V67.9L85 67.9 85 67.9zM89.5 61.5H47.6c-0.3 0-0.6 0.1-0.8 0.3 -0.2 0.2-0.3 0.5-0.3 0.8v56.6c0 0.3 0.1 0.6 0.3 0.7l0.1 0.1c0.2 0.2 0.5 0.3 0.8 0.3h41.9c0.3 0 0.6-0.1 0.8-0.3s0.3-0.5 0.3-0.8v-56.6c0-0.3-0.1-0.5-0.3-0.7l0 0C90.1 61.6 89.8 61.5 89.5 61.5L89.5 61.5 89.5 61.5zM17.2 65.7c-1.1 0-1.9-0.9-1.9-1.9 0-1.1 0.9-1.9 2-1.9h16.3c1.1 0 2 0.9 2 2 0 1.1-0.9 2-1.9 2H17.2L17.2 65.7zM17.2 80.5c-1.1 0-1.9-0.9-1.9-1.9 0-1.1 0.9-1.9 2-1.9h16.3c1.1 0 2 0.9 2 2 0 1.1-0.9 2-1.9 2H17.2L17.2 80.5zM17.9 17.1c-1.2 0-2.2 1-2.2 2.2 0 1.2 1 2.2 2.2 2.2H32.8c1.2 0 2.2-1 2.2-2.2 0-1.2-1-2.2-2.2-2.2H17.9L17.9 17.1 17.9 17.1zM60 23.2V7.4l17.8 18H62.3c-0.6 0-1.1-0.3-1.6-0.6C60.3 24.4 60 23.8 60 23.2L60 23.2 60 23.2zM17.9 32.2c-1.2 0-2.2 1-2.2 2.2 0 1.2 1 2.2 2.2 2.2h38.2c1.2 0 2.2-1 2.2-2.2 0-1.2-1-2.2-2.2-2.2L17.9 32.2 17.9 32.2 17.9 32.2zM17.9 46.7c-1.2 0-2.2 1-2.2 2.2 0 1.2 1 2.2 2.2 2.2h49.4c1.2 0 2.2-1 2.2-2.2 0-1.2-1-2.2-2.2-2.2H17.9L17.9 46.7 17.9 46.7z"/></svg>